%TF.GenerationSoftware,KiCad,Pcbnew,(6.0.8-1)-1*%
%TF.CreationDate,2023-01-25T17:11:04-08:00*%
%TF.ProjectId,SiPM_breakout,5369504d-5f62-4726-9561-6b6f75742e6b,rev?*%
%TF.SameCoordinates,Original*%
%TF.FileFunction,Legend,Bot*%
%TF.FilePolarity,Positive*%
%FSLAX46Y46*%
G04 Gerber Fmt 4.6, Leading zero omitted, Abs format (unit mm)*
G04 Created by KiCad (PCBNEW (6.0.8-1)-1) date 2023-01-25 17:11:04*
%MOMM*%
%LPD*%
G01*
G04 APERTURE LIST*
%ADD10C,0.150000*%
%ADD11C,0.120000*%
G04 APERTURE END LIST*
D10*
%TO.C,J2*%
X79733333Y-88982380D02*
X79733333Y-89696666D01*
X79780952Y-89839523D01*
X79876190Y-89934761D01*
X80019047Y-89982380D01*
X80114285Y-89982380D01*
X79304761Y-89077619D02*
X79257142Y-89030000D01*
X79161904Y-88982380D01*
X78923809Y-88982380D01*
X78828571Y-89030000D01*
X78780952Y-89077619D01*
X78733333Y-89172857D01*
X78733333Y-89268095D01*
X78780952Y-89410952D01*
X79352380Y-89982380D01*
X78733333Y-89982380D01*
%TO.C,J1*%
X79733333Y-105122380D02*
X79733333Y-105836666D01*
X79780952Y-105979523D01*
X79876190Y-106074761D01*
X80019047Y-106122380D01*
X80114285Y-106122380D01*
X78733333Y-106122380D02*
X79304761Y-106122380D01*
X79019047Y-106122380D02*
X79019047Y-105122380D01*
X79114285Y-105265238D01*
X79209523Y-105360476D01*
X79304761Y-105408095D01*
%TO.C,J3*%
X102533333Y-95122380D02*
X102533333Y-95836666D01*
X102580952Y-95979523D01*
X102676190Y-96074761D01*
X102819047Y-96122380D01*
X102914285Y-96122380D01*
X102152380Y-95122380D02*
X101533333Y-95122380D01*
X101866666Y-95503333D01*
X101723809Y-95503333D01*
X101628571Y-95550952D01*
X101580952Y-95598571D01*
X101533333Y-95693809D01*
X101533333Y-95931904D01*
X101580952Y-96027142D01*
X101628571Y-96074761D01*
X101723809Y-96122380D01*
X102009523Y-96122380D01*
X102104761Y-96074761D01*
X102152380Y-96027142D01*
D11*
%TO.C,J2*%
X78070000Y-87200000D02*
X78070000Y-88530000D01*
X78070000Y-85930000D02*
X80730000Y-85930000D01*
X78070000Y-88530000D02*
X79400000Y-88530000D01*
X78070000Y-85930000D02*
X78070000Y-83330000D01*
X78070000Y-83330000D02*
X80730000Y-83330000D01*
X80730000Y-85930000D02*
X80730000Y-83330000D01*
%TO.C,J1*%
X80730000Y-109270000D02*
X80730000Y-111870000D01*
X78070000Y-109270000D02*
X78070000Y-111870000D01*
X80730000Y-111870000D02*
X78070000Y-111870000D01*
X80730000Y-106670000D02*
X79400000Y-106670000D01*
X80730000Y-108000000D02*
X80730000Y-106670000D01*
X80730000Y-109270000D02*
X78070000Y-109270000D01*
%TO.C,J3*%
X103530000Y-96670000D02*
X102200000Y-96670000D01*
X103530000Y-99270000D02*
X103530000Y-101870000D01*
X100870000Y-99270000D02*
X100870000Y-101870000D01*
X103530000Y-99270000D02*
X100870000Y-99270000D01*
X103530000Y-101870000D02*
X100870000Y-101870000D01*
X103530000Y-98000000D02*
X103530000Y-96670000D01*
%TD*%
M02*
