%TF.GenerationSoftware,KiCad,Pcbnew,(6.0.8-1)-1*%
%TF.CreationDate,2023-05-30T17:25:44-07:00*%
%TF.ProjectId,SiPM_breakout,5369504d-5f62-4726-9561-6b6f75742e6b,rev?*%
%TF.SameCoordinates,Original*%
%TF.FileFunction,Copper,L2,Bot*%
%TF.FilePolarity,Positive*%
%FSLAX46Y46*%
G04 Gerber Fmt 4.6, Leading zero omitted, Abs format (unit mm)*
G04 Created by KiCad (PCBNEW (6.0.8-1)-1) date 2023-05-30 17:25:44*
%MOMM*%
%LPD*%
G01*
G04 APERTURE LIST*
%TA.AperFunction,ComponentPad*%
%ADD10R,2.000000X2.000000*%
%TD*%
%TA.AperFunction,ComponentPad*%
%ADD11O,2.000000X2.000000*%
%TD*%
%TA.AperFunction,ComponentPad*%
%ADD12C,1.400000*%
%TD*%
%TA.AperFunction,ComponentPad*%
%ADD13O,1.400000X1.400000*%
%TD*%
%TA.AperFunction,ComponentPad*%
%ADD14R,1.700000X1.700000*%
%TD*%
%TA.AperFunction,ComponentPad*%
%ADD15O,1.700000X1.700000*%
%TD*%
%TA.AperFunction,ViaPad*%
%ADD16C,0.800000*%
%TD*%
%TA.AperFunction,Conductor*%
%ADD17C,0.500000*%
%TD*%
%TA.AperFunction,Conductor*%
%ADD18C,0.250000*%
%TD*%
G04 APERTURE END LIST*
D10*
%TO.P,C2,1*%
%TO.N,Net-(C2-Pad1)*%
X93400000Y-78000000D03*
D11*
%TO.P,C2,2*%
%TO.N,/SIG2*%
X78400000Y-78000000D03*
%TD*%
D10*
%TO.P,C1,1*%
%TO.N,Net-(C1-Pad1)*%
X93400000Y-117642500D03*
D11*
%TO.P,C1,2*%
%TO.N,/SIG1*%
X78400000Y-117642500D03*
%TD*%
D12*
%TO.P,R2,1*%
%TO.N,Net-(C2-Pad1)*%
X93000000Y-82000000D03*
D13*
%TO.P,R2,2*%
%TO.N,/GND*%
X93000000Y-87080000D03*
%TD*%
D12*
%TO.P,R1,1*%
%TO.N,Net-(C1-Pad1)*%
X93200000Y-106800000D03*
D13*
%TO.P,R1,2*%
%TO.N,/GND*%
X93200000Y-111880000D03*
%TD*%
D14*
%TO.P,J2,1,Pin_1*%
%TO.N,/SIG2*%
X79400000Y-87200000D03*
D15*
%TO.P,J2,2,Pin_2*%
%TO.N,/BIAS2*%
X79400000Y-84660000D03*
%TD*%
D14*
%TO.P,J1,1,Pin_1*%
%TO.N,/SIG1*%
X79400000Y-108000000D03*
D15*
%TO.P,J1,2,Pin_2*%
%TO.N,/BIAS1*%
X79400000Y-110540000D03*
%TD*%
D14*
%TO.P,J3,1,Pin_1*%
%TO.N,/GND*%
X92800000Y-96860000D03*
D15*
%TO.P,J3,2,Pin_2*%
X92800000Y-99400000D03*
%TD*%
D16*
%TO.N,/GND*%
X88600000Y-103000000D03*
%TO.N,/BIAS1*%
X82800000Y-102600000D03*
X82800000Y-100400000D03*
%TO.N,/BIAS2*%
X82800000Y-95400000D03*
X82800000Y-93395500D03*
%TO.N,/GND*%
X81800000Y-91600000D03*
X88600000Y-93400000D03*
X79940621Y-100259834D03*
X82600000Y-85400000D03*
X78400000Y-113600000D03*
X82200000Y-110000000D03*
X82200000Y-104600000D03*
X79400000Y-95000000D03*
X81099647Y-92900353D03*
X85250000Y-98000000D03*
%TD*%
D17*
%TO.N,Net-(C2-Pad1)*%
X93000000Y-82000000D02*
X93000000Y-78400000D01*
X93000000Y-78400000D02*
X93400000Y-78000000D01*
%TO.N,Net-(C1-Pad1)*%
X93200000Y-106800000D02*
X92050000Y-107950000D01*
X92050000Y-107950000D02*
X92050000Y-116292500D01*
X92050000Y-116292500D02*
X93400000Y-117642500D01*
X93400000Y-117642500D02*
X93400000Y-117000000D01*
%TO.N,/SIG1*%
X78400000Y-117642500D02*
X80700000Y-115342500D01*
X80700000Y-115342500D02*
X80700000Y-109300000D01*
X80700000Y-109300000D02*
X79400000Y-108000000D01*
%TO.N,/SIG2*%
X79400000Y-87200000D02*
X80700000Y-85900000D01*
X80700000Y-80300000D02*
X78400000Y-78000000D01*
X80700000Y-85900000D02*
X80700000Y-80300000D01*
D18*
%TO.N,Net-(C2-Pad1)*%
X93400000Y-78000000D02*
X92600000Y-78000000D01*
D17*
%TO.N,/BIAS1*%
X82800000Y-102600000D02*
X82800000Y-100400000D01*
%TO.N,/BIAS2*%
X82800000Y-95400000D02*
X82800000Y-93395500D01*
%TD*%
%TA.AperFunction,Conductor*%
%TO.N,/GND*%
G36*
X92610589Y-75568489D02*
G01*
X92629945Y-75569989D01*
X92644849Y-75572310D01*
X92644855Y-75572310D01*
X92653724Y-75573691D01*
X92662626Y-75572527D01*
X92662629Y-75572527D01*
X92670012Y-75571561D01*
X92694591Y-75570767D01*
X92721442Y-75572527D01*
X92916922Y-75585340D01*
X92933262Y-75587491D01*
X93055477Y-75611801D01*
X93177696Y-75636112D01*
X93193606Y-75640375D01*
X93429600Y-75720484D01*
X93444826Y-75726791D01*
X93668342Y-75837016D01*
X93682616Y-75845257D01*
X93889829Y-75983713D01*
X93902905Y-75993746D01*
X94090278Y-76158068D01*
X94101932Y-76169722D01*
X94200768Y-76282422D01*
X94230645Y-76346826D01*
X94220959Y-76417159D01*
X94174787Y-76471090D01*
X94106036Y-76491500D01*
X92351866Y-76491500D01*
X92289684Y-76498255D01*
X92153295Y-76549385D01*
X92036739Y-76636739D01*
X91949385Y-76753295D01*
X91898255Y-76889684D01*
X91891500Y-76951866D01*
X91891500Y-79048134D01*
X91898255Y-79110316D01*
X91949385Y-79246705D01*
X92036739Y-79363261D01*
X92153295Y-79450615D01*
X92161704Y-79453767D01*
X92169575Y-79458077D01*
X92168664Y-79459741D01*
X92216490Y-79495663D01*
X92241193Y-79562224D01*
X92241500Y-79571009D01*
X92241500Y-80997233D01*
X92221498Y-81065354D01*
X92204595Y-81086328D01*
X92070699Y-81220224D01*
X91949411Y-81393442D01*
X91860044Y-81585090D01*
X91805314Y-81789345D01*
X91786884Y-82000000D01*
X91805314Y-82210655D01*
X91860044Y-82414910D01*
X91949411Y-82606558D01*
X92070699Y-82779776D01*
X92220224Y-82929301D01*
X92393442Y-83050589D01*
X92398420Y-83052910D01*
X92398423Y-83052912D01*
X92580108Y-83137633D01*
X92585090Y-83139956D01*
X92590398Y-83141378D01*
X92590400Y-83141379D01*
X92784030Y-83193262D01*
X92784032Y-83193262D01*
X92789345Y-83194686D01*
X93000000Y-83213116D01*
X93210655Y-83194686D01*
X93215968Y-83193262D01*
X93215970Y-83193262D01*
X93409600Y-83141379D01*
X93409602Y-83141378D01*
X93414910Y-83139956D01*
X93419892Y-83137633D01*
X93601577Y-83052912D01*
X93601580Y-83052910D01*
X93606558Y-83050589D01*
X93779776Y-82929301D01*
X93929301Y-82779776D01*
X94050589Y-82606558D01*
X94139956Y-82414910D01*
X94194686Y-82210655D01*
X94213116Y-82000000D01*
X94194686Y-81789345D01*
X94139956Y-81585090D01*
X94050589Y-81393442D01*
X93929301Y-81220224D01*
X93795405Y-81086328D01*
X93761379Y-81024016D01*
X93758500Y-80997233D01*
X93758500Y-79634500D01*
X93778502Y-79566379D01*
X93832158Y-79519886D01*
X93884500Y-79508500D01*
X94448134Y-79508500D01*
X94510316Y-79501745D01*
X94517716Y-79498971D01*
X94521275Y-79497637D01*
X94524238Y-79497420D01*
X94525400Y-79497144D01*
X94525445Y-79497332D01*
X94592082Y-79492457D01*
X94654450Y-79526380D01*
X94688577Y-79588637D01*
X94691500Y-79615621D01*
X94691500Y-116026879D01*
X94671498Y-116095000D01*
X94617842Y-116141493D01*
X94547568Y-116151597D01*
X94521275Y-116144863D01*
X94517716Y-116143529D01*
X94517715Y-116143529D01*
X94510316Y-116140755D01*
X94448134Y-116134000D01*
X93016371Y-116134000D01*
X92948250Y-116113998D01*
X92927276Y-116097095D01*
X92845405Y-116015224D01*
X92811379Y-115952912D01*
X92808500Y-115926129D01*
X92808500Y-113183758D01*
X92828502Y-113115637D01*
X92882158Y-113069144D01*
X92931502Y-113057794D01*
X92942599Y-113057530D01*
X92946000Y-113049588D01*
X92946000Y-113044439D01*
X93454000Y-113044439D01*
X93457973Y-113057970D01*
X93466522Y-113059199D01*
X93609423Y-113020908D01*
X93619727Y-113017158D01*
X93801323Y-112932479D01*
X93810811Y-112927002D01*
X93974942Y-112812075D01*
X93983350Y-112805019D01*
X94125019Y-112663350D01*
X94132075Y-112654942D01*
X94247002Y-112490811D01*
X94252479Y-112481323D01*
X94337158Y-112299727D01*
X94340908Y-112289423D01*
X94377866Y-112151497D01*
X94377530Y-112137401D01*
X94369588Y-112134000D01*
X93472115Y-112134000D01*
X93456876Y-112138475D01*
X93455671Y-112139865D01*
X93454000Y-112147548D01*
X93454000Y-113044439D01*
X92946000Y-113044439D01*
X92946000Y-111607885D01*
X93454000Y-111607885D01*
X93458475Y-111623124D01*
X93459865Y-111624329D01*
X93467548Y-111626000D01*
X94364439Y-111626000D01*
X94377970Y-111622027D01*
X94379199Y-111613478D01*
X94340908Y-111470577D01*
X94337158Y-111460273D01*
X94252479Y-111278677D01*
X94247002Y-111269189D01*
X94132075Y-111105058D01*
X94125019Y-111096650D01*
X93983350Y-110954981D01*
X93974942Y-110947925D01*
X93810811Y-110832998D01*
X93801323Y-110827521D01*
X93619727Y-110742842D01*
X93609423Y-110739092D01*
X93471497Y-110702134D01*
X93457401Y-110702470D01*
X93454000Y-110710412D01*
X93454000Y-111607885D01*
X92946000Y-111607885D01*
X92946000Y-110715561D01*
X92942027Y-110702031D01*
X92916569Y-110698371D01*
X92851988Y-110668878D01*
X92813604Y-110609151D01*
X92808500Y-110573653D01*
X92808500Y-108316371D01*
X92828502Y-108248250D01*
X92845405Y-108227276D01*
X93029316Y-108043365D01*
X93091628Y-108009339D01*
X93129392Y-108006939D01*
X93194524Y-108012637D01*
X93194525Y-108012637D01*
X93200000Y-108013116D01*
X93410655Y-107994686D01*
X93415968Y-107993262D01*
X93415970Y-107993262D01*
X93609600Y-107941379D01*
X93609602Y-107941378D01*
X93614910Y-107939956D01*
X93619892Y-107937633D01*
X93801577Y-107852912D01*
X93801580Y-107852910D01*
X93806558Y-107850589D01*
X93979776Y-107729301D01*
X94129301Y-107579776D01*
X94250589Y-107406558D01*
X94256474Y-107393939D01*
X94337633Y-107219892D01*
X94337634Y-107219891D01*
X94339956Y-107214910D01*
X94369331Y-107105283D01*
X94393262Y-107015970D01*
X94393262Y-107015968D01*
X94394686Y-107010655D01*
X94413116Y-106800000D01*
X94394686Y-106589345D01*
X94339956Y-106385090D01*
X94326928Y-106357152D01*
X94252912Y-106198423D01*
X94252910Y-106198420D01*
X94250589Y-106193442D01*
X94129301Y-106020224D01*
X93979776Y-105870699D01*
X93806558Y-105749411D01*
X93801580Y-105747090D01*
X93801577Y-105747088D01*
X93619892Y-105662367D01*
X93619891Y-105662366D01*
X93614910Y-105660044D01*
X93609602Y-105658622D01*
X93609600Y-105658621D01*
X93415970Y-105606738D01*
X93415968Y-105606738D01*
X93410655Y-105605314D01*
X93200000Y-105586884D01*
X92989345Y-105605314D01*
X92984032Y-105606738D01*
X92984030Y-105606738D01*
X92790400Y-105658621D01*
X92790398Y-105658622D01*
X92785090Y-105660044D01*
X92780109Y-105662366D01*
X92780108Y-105662367D01*
X92598423Y-105747088D01*
X92598420Y-105747090D01*
X92593442Y-105749411D01*
X92420224Y-105870699D01*
X92270699Y-106020224D01*
X92149411Y-106193442D01*
X92147090Y-106198420D01*
X92147088Y-106198423D01*
X92073072Y-106357152D01*
X92060044Y-106385090D01*
X92005314Y-106589345D01*
X91986884Y-106800000D01*
X91987363Y-106805475D01*
X91987363Y-106805476D01*
X91993061Y-106870608D01*
X91979071Y-106940213D01*
X91956635Y-106970684D01*
X91561089Y-107366230D01*
X91546677Y-107378616D01*
X91535082Y-107387149D01*
X91535077Y-107387154D01*
X91529182Y-107391492D01*
X91524443Y-107397070D01*
X91524440Y-107397073D01*
X91494965Y-107431768D01*
X91488035Y-107439284D01*
X91482340Y-107444979D01*
X91480060Y-107447861D01*
X91464719Y-107467251D01*
X91461928Y-107470655D01*
X91419409Y-107520703D01*
X91414667Y-107526285D01*
X91411339Y-107532801D01*
X91407972Y-107537850D01*
X91404805Y-107542979D01*
X91400266Y-107548716D01*
X91369345Y-107614875D01*
X91367442Y-107618769D01*
X91334231Y-107683808D01*
X91332492Y-107690916D01*
X91330393Y-107696559D01*
X91328476Y-107702322D01*
X91325378Y-107708950D01*
X91323888Y-107716112D01*
X91323888Y-107716113D01*
X91310514Y-107780412D01*
X91309544Y-107784696D01*
X91292192Y-107855610D01*
X91291500Y-107866764D01*
X91291464Y-107866762D01*
X91291225Y-107870755D01*
X91290851Y-107874947D01*
X91289360Y-107882115D01*
X91289558Y-107889432D01*
X91291454Y-107959521D01*
X91291500Y-107962928D01*
X91291500Y-116225430D01*
X91290067Y-116244380D01*
X91286801Y-116265849D01*
X91287394Y-116273141D01*
X91287394Y-116273144D01*
X91291085Y-116318518D01*
X91291500Y-116328733D01*
X91291500Y-116336793D01*
X91291925Y-116340437D01*
X91294789Y-116365007D01*
X91295222Y-116369382D01*
X91299465Y-116421540D01*
X91301140Y-116442137D01*
X91303396Y-116449101D01*
X91304587Y-116455060D01*
X91305971Y-116460915D01*
X91306818Y-116468181D01*
X91331735Y-116536827D01*
X91333152Y-116540955D01*
X91355649Y-116610399D01*
X91359445Y-116616654D01*
X91361951Y-116622128D01*
X91364670Y-116627558D01*
X91367167Y-116634437D01*
X91371180Y-116640557D01*
X91371180Y-116640558D01*
X91407186Y-116695476D01*
X91409523Y-116699180D01*
X91447405Y-116761607D01*
X91451121Y-116765815D01*
X91451122Y-116765816D01*
X91454803Y-116769984D01*
X91454776Y-116770008D01*
X91457429Y-116773000D01*
X91460132Y-116776233D01*
X91464144Y-116782352D01*
X91469456Y-116787384D01*
X91520383Y-116835628D01*
X91522825Y-116838006D01*
X91854595Y-117169776D01*
X91888621Y-117232088D01*
X91891500Y-117258871D01*
X91891500Y-118690634D01*
X91898255Y-118752816D01*
X91949385Y-118889205D01*
X92036739Y-119005761D01*
X92153295Y-119093115D01*
X92289684Y-119144245D01*
X92351866Y-119151000D01*
X94167863Y-119151000D01*
X94235984Y-119171002D01*
X94282477Y-119224658D01*
X94292581Y-119294932D01*
X94262595Y-119360078D01*
X94101932Y-119543278D01*
X94090278Y-119554932D01*
X93902905Y-119719254D01*
X93889829Y-119729287D01*
X93682616Y-119867743D01*
X93668342Y-119875984D01*
X93444826Y-119986209D01*
X93429602Y-119992515D01*
X93193606Y-120072625D01*
X93177696Y-120076888D01*
X93055477Y-120101199D01*
X92933262Y-120125509D01*
X92916922Y-120127660D01*
X92768134Y-120137413D01*
X92701763Y-120141763D01*
X92678651Y-120140733D01*
X92675146Y-120140690D01*
X92666276Y-120139309D01*
X92657375Y-120140473D01*
X92657371Y-120140473D01*
X92634785Y-120143427D01*
X92618419Y-120144491D01*
X79269411Y-120141511D01*
X79250055Y-120140011D01*
X79235151Y-120137690D01*
X79235145Y-120137690D01*
X79226276Y-120136309D01*
X79217374Y-120137473D01*
X79217371Y-120137473D01*
X79209988Y-120138439D01*
X79185409Y-120139233D01*
X79140799Y-120136309D01*
X78963078Y-120124660D01*
X78946738Y-120122509D01*
X78824523Y-120098199D01*
X78702304Y-120073888D01*
X78686394Y-120069625D01*
X78450398Y-119989515D01*
X78435174Y-119983209D01*
X78211658Y-119872984D01*
X78197384Y-119864743D01*
X77990171Y-119726287D01*
X77977095Y-119716254D01*
X77789722Y-119551932D01*
X77778068Y-119540278D01*
X77613746Y-119352905D01*
X77603713Y-119339829D01*
X77465257Y-119132616D01*
X77457017Y-119118344D01*
X77448722Y-119101524D01*
X77436531Y-119031582D01*
X77464089Y-118966152D01*
X77522647Y-118926008D01*
X77593612Y-118923895D01*
X77627562Y-118938361D01*
X77672913Y-118966152D01*
X77713037Y-118990740D01*
X77717607Y-118992633D01*
X77717611Y-118992635D01*
X77927833Y-119079711D01*
X77932406Y-119081605D01*
X77980349Y-119093115D01*
X78158476Y-119135880D01*
X78158482Y-119135881D01*
X78163289Y-119137035D01*
X78400000Y-119155665D01*
X78636711Y-119137035D01*
X78641518Y-119135881D01*
X78641524Y-119135880D01*
X78819651Y-119093115D01*
X78867594Y-119081605D01*
X78872167Y-119079711D01*
X79082389Y-118992635D01*
X79082393Y-118992633D01*
X79086963Y-118990740D01*
X79127087Y-118966152D01*
X79285202Y-118869259D01*
X79285208Y-118869255D01*
X79289416Y-118866676D01*
X79469969Y-118712469D01*
X79624176Y-118531916D01*
X79626755Y-118527708D01*
X79626759Y-118527702D01*
X79745654Y-118333683D01*
X79748240Y-118329463D01*
X79839105Y-118110094D01*
X79894535Y-117879211D01*
X79913165Y-117642500D01*
X79894535Y-117405789D01*
X79893381Y-117400982D01*
X79893380Y-117400976D01*
X79875164Y-117325102D01*
X79878711Y-117254194D01*
X79908588Y-117206593D01*
X81188911Y-115926270D01*
X81203323Y-115913884D01*
X81214918Y-115905351D01*
X81214923Y-115905346D01*
X81220818Y-115901008D01*
X81225557Y-115895430D01*
X81225560Y-115895427D01*
X81255035Y-115860732D01*
X81261965Y-115853216D01*
X81267660Y-115847521D01*
X81285281Y-115825249D01*
X81288072Y-115821845D01*
X81330591Y-115771797D01*
X81330592Y-115771795D01*
X81335333Y-115766215D01*
X81338661Y-115759699D01*
X81342028Y-115754650D01*
X81345195Y-115749521D01*
X81349734Y-115743784D01*
X81380655Y-115677625D01*
X81382561Y-115673725D01*
X81415769Y-115608692D01*
X81417508Y-115601584D01*
X81419607Y-115595941D01*
X81421524Y-115590178D01*
X81424622Y-115583550D01*
X81439487Y-115512083D01*
X81440457Y-115507799D01*
X81456473Y-115442345D01*
X81457808Y-115436890D01*
X81458500Y-115425736D01*
X81458536Y-115425738D01*
X81458775Y-115421745D01*
X81459149Y-115417553D01*
X81460640Y-115410385D01*
X81458546Y-115332979D01*
X81458500Y-115329572D01*
X81458500Y-109367070D01*
X81459933Y-109348120D01*
X81462099Y-109333885D01*
X81462099Y-109333881D01*
X81463199Y-109326651D01*
X81461807Y-109309530D01*
X81458915Y-109273982D01*
X81458500Y-109263767D01*
X81458500Y-109255707D01*
X81455209Y-109227480D01*
X81454778Y-109223121D01*
X81449454Y-109157662D01*
X81449453Y-109157659D01*
X81448860Y-109150364D01*
X81446604Y-109143400D01*
X81445417Y-109137461D01*
X81444030Y-109131590D01*
X81443182Y-109124319D01*
X81440686Y-109117443D01*
X81440684Y-109117434D01*
X81418275Y-109055702D01*
X81416865Y-109051598D01*
X81394352Y-108982101D01*
X81390556Y-108975846D01*
X81388057Y-108970387D01*
X81385329Y-108964939D01*
X81382833Y-108958063D01*
X81342805Y-108897010D01*
X81340481Y-108893327D01*
X81305504Y-108835686D01*
X81305501Y-108835682D01*
X81302595Y-108830893D01*
X81295197Y-108822517D01*
X81295224Y-108822493D01*
X81292579Y-108819511D01*
X81289872Y-108816274D01*
X81285856Y-108810148D01*
X81229598Y-108756854D01*
X81227157Y-108754477D01*
X80795405Y-108322725D01*
X80761379Y-108260413D01*
X80758500Y-108233630D01*
X80758500Y-107529733D01*
X83387822Y-107529733D01*
X83387975Y-107534121D01*
X83387975Y-107534127D01*
X83396726Y-107784701D01*
X83397625Y-107810458D01*
X83398387Y-107814781D01*
X83398388Y-107814788D01*
X83422164Y-107949624D01*
X83446402Y-108087087D01*
X83533203Y-108354235D01*
X83656340Y-108606702D01*
X83658795Y-108610341D01*
X83658798Y-108610347D01*
X83731890Y-108718710D01*
X83813415Y-108839576D01*
X84001371Y-109048322D01*
X84216550Y-109228879D01*
X84454764Y-109377731D01*
X84711375Y-109491982D01*
X84981390Y-109569407D01*
X84985740Y-109570018D01*
X84985743Y-109570019D01*
X85088690Y-109584487D01*
X85259552Y-109608500D01*
X85470146Y-109608500D01*
X85472332Y-109608347D01*
X85472336Y-109608347D01*
X85675827Y-109594118D01*
X85675832Y-109594117D01*
X85680212Y-109593811D01*
X85954970Y-109535409D01*
X85959099Y-109533906D01*
X85959103Y-109533905D01*
X86214781Y-109440846D01*
X86214785Y-109440844D01*
X86218926Y-109439337D01*
X86466942Y-109307464D01*
X86483782Y-109295229D01*
X86690629Y-109144947D01*
X86690632Y-109144944D01*
X86694192Y-109142358D01*
X86699094Y-109137625D01*
X86794947Y-109045060D01*
X86896252Y-108947231D01*
X87069188Y-108725882D01*
X87071384Y-108722078D01*
X87071389Y-108722071D01*
X87207435Y-108486431D01*
X87209636Y-108482619D01*
X87314862Y-108222176D01*
X87348544Y-108087087D01*
X87381753Y-107953893D01*
X87381754Y-107953888D01*
X87382817Y-107949624D01*
X87383834Y-107939956D01*
X87411719Y-107674636D01*
X87411719Y-107674633D01*
X87412178Y-107670267D01*
X87410380Y-107618775D01*
X87402529Y-107393939D01*
X87402528Y-107393933D01*
X87402375Y-107389542D01*
X87400449Y-107378616D01*
X87354360Y-107117236D01*
X87353598Y-107112913D01*
X87266797Y-106845765D01*
X87241806Y-106794525D01*
X87170048Y-106647402D01*
X87143660Y-106593298D01*
X87141205Y-106589659D01*
X87141202Y-106589653D01*
X87003222Y-106385090D01*
X86986585Y-106360424D01*
X86798629Y-106151678D01*
X86583450Y-105971121D01*
X86345236Y-105822269D01*
X86088625Y-105708018D01*
X85818610Y-105630593D01*
X85814260Y-105629982D01*
X85814257Y-105629981D01*
X85711310Y-105615513D01*
X85540448Y-105591500D01*
X85329854Y-105591500D01*
X85327668Y-105591653D01*
X85327664Y-105591653D01*
X85124173Y-105605882D01*
X85124168Y-105605883D01*
X85119788Y-105606189D01*
X84845030Y-105664591D01*
X84840901Y-105666094D01*
X84840897Y-105666095D01*
X84585219Y-105759154D01*
X84585215Y-105759156D01*
X84581074Y-105760663D01*
X84333058Y-105892536D01*
X84329499Y-105895122D01*
X84329497Y-105895123D01*
X84157310Y-106020224D01*
X84105808Y-106057642D01*
X83903748Y-106252769D01*
X83730812Y-106474118D01*
X83728616Y-106477922D01*
X83728611Y-106477929D01*
X83634174Y-106641500D01*
X83590364Y-106717381D01*
X83485138Y-106977824D01*
X83484073Y-106982097D01*
X83484072Y-106982099D01*
X83424784Y-107219892D01*
X83417183Y-107250376D01*
X83416724Y-107254744D01*
X83416723Y-107254749D01*
X83396730Y-107444979D01*
X83387822Y-107529733D01*
X80758500Y-107529733D01*
X80758500Y-107101866D01*
X80751745Y-107039684D01*
X80700615Y-106903295D01*
X80613261Y-106786739D01*
X80496705Y-106699385D01*
X80360316Y-106648255D01*
X80298134Y-106641500D01*
X78501866Y-106641500D01*
X78439684Y-106648255D01*
X78303295Y-106699385D01*
X78186739Y-106786739D01*
X78099385Y-106903295D01*
X78048255Y-107039684D01*
X78041500Y-107101866D01*
X78041500Y-108898134D01*
X78048255Y-108960316D01*
X78099385Y-109096705D01*
X78186739Y-109213261D01*
X78303295Y-109300615D01*
X78311704Y-109303767D01*
X78311705Y-109303768D01*
X78420451Y-109344535D01*
X78477216Y-109387176D01*
X78501916Y-109453738D01*
X78486709Y-109523087D01*
X78467316Y-109549568D01*
X78340629Y-109682138D01*
X78214743Y-109866680D01*
X78120688Y-110069305D01*
X78060989Y-110284570D01*
X78037251Y-110506695D01*
X78037548Y-110511848D01*
X78037548Y-110511851D01*
X78043158Y-110609151D01*
X78050110Y-110729715D01*
X78051247Y-110734761D01*
X78051248Y-110734767D01*
X78052223Y-110739092D01*
X78099222Y-110947639D01*
X78183266Y-111154616D01*
X78299987Y-111345088D01*
X78446250Y-111513938D01*
X78618126Y-111656632D01*
X78811000Y-111769338D01*
X79019692Y-111849030D01*
X79024760Y-111850061D01*
X79024763Y-111850062D01*
X79132012Y-111871882D01*
X79238597Y-111893567D01*
X79243772Y-111893757D01*
X79243774Y-111893757D01*
X79456673Y-111901564D01*
X79456677Y-111901564D01*
X79461837Y-111901753D01*
X79466957Y-111901097D01*
X79466959Y-111901097D01*
X79678288Y-111874025D01*
X79678289Y-111874025D01*
X79683416Y-111873368D01*
X79688367Y-111871883D01*
X79688370Y-111871882D01*
X79779293Y-111844604D01*
X79850288Y-111844188D01*
X79910239Y-111882220D01*
X79940110Y-111946627D01*
X79941500Y-111965290D01*
X79941500Y-114976129D01*
X79921498Y-115044250D01*
X79904595Y-115065224D01*
X78835907Y-116133912D01*
X78773595Y-116167938D01*
X78717398Y-116167336D01*
X78641524Y-116149120D01*
X78641518Y-116149119D01*
X78636711Y-116147965D01*
X78400000Y-116129335D01*
X78163289Y-116147965D01*
X78158482Y-116149119D01*
X78158476Y-116149120D01*
X78013988Y-116183809D01*
X77932406Y-116203395D01*
X77927835Y-116205288D01*
X77927833Y-116205289D01*
X77717611Y-116292365D01*
X77717607Y-116292367D01*
X77713037Y-116294260D01*
X77708817Y-116296846D01*
X77514798Y-116415741D01*
X77514792Y-116415745D01*
X77510584Y-116418324D01*
X77506822Y-116421537D01*
X77506818Y-116421540D01*
X77396330Y-116515905D01*
X77331541Y-116544936D01*
X77261341Y-116534331D01*
X77208018Y-116487456D01*
X77188500Y-116420094D01*
X77188500Y-102600000D01*
X81886496Y-102600000D01*
X81906458Y-102789928D01*
X81965473Y-102971556D01*
X82060960Y-103136944D01*
X82188747Y-103278866D01*
X82343248Y-103391118D01*
X82349276Y-103393802D01*
X82349278Y-103393803D01*
X82511681Y-103466109D01*
X82517712Y-103468794D01*
X82611113Y-103488647D01*
X82698056Y-103507128D01*
X82698061Y-103507128D01*
X82704513Y-103508500D01*
X82895487Y-103508500D01*
X82901939Y-103507128D01*
X82901944Y-103507128D01*
X82988887Y-103488647D01*
X83082288Y-103468794D01*
X83088319Y-103466109D01*
X83250722Y-103393803D01*
X83250724Y-103393802D01*
X83256752Y-103391118D01*
X83411253Y-103278866D01*
X83539040Y-103136944D01*
X83634527Y-102971556D01*
X83693542Y-102789928D01*
X83713504Y-102600000D01*
X83693542Y-102410072D01*
X83634527Y-102228444D01*
X83575381Y-102126000D01*
X83558500Y-102063001D01*
X83558500Y-100936999D01*
X83575381Y-100873999D01*
X83631223Y-100777279D01*
X83631224Y-100777278D01*
X83634527Y-100771556D01*
X83693542Y-100589928D01*
X83713504Y-100400000D01*
X83693542Y-100210072D01*
X83634527Y-100028444D01*
X83539040Y-99863056D01*
X83411253Y-99721134D01*
X83338074Y-99667966D01*
X91468257Y-99667966D01*
X91498565Y-99802446D01*
X91501645Y-99812275D01*
X91581770Y-100009603D01*
X91586413Y-100018794D01*
X91697694Y-100200388D01*
X91703777Y-100208699D01*
X91843213Y-100369667D01*
X91850580Y-100376883D01*
X92014434Y-100512916D01*
X92022881Y-100518831D01*
X92206756Y-100626279D01*
X92216042Y-100630729D01*
X92415001Y-100706703D01*
X92424899Y-100709579D01*
X92528250Y-100730606D01*
X92542299Y-100729410D01*
X92546000Y-100719065D01*
X92546000Y-100718517D01*
X93054000Y-100718517D01*
X93058064Y-100732359D01*
X93071478Y-100734393D01*
X93078184Y-100733534D01*
X93088262Y-100731392D01*
X93292255Y-100670191D01*
X93301842Y-100666433D01*
X93493095Y-100572739D01*
X93501945Y-100567464D01*
X93675328Y-100443792D01*
X93683200Y-100437139D01*
X93834052Y-100286812D01*
X93840730Y-100278965D01*
X93965003Y-100106020D01*
X93970313Y-100097183D01*
X94064670Y-99906267D01*
X94068469Y-99896672D01*
X94130377Y-99692910D01*
X94132555Y-99682837D01*
X94133986Y-99671962D01*
X94131775Y-99657778D01*
X94118617Y-99654000D01*
X93072115Y-99654000D01*
X93056876Y-99658475D01*
X93055671Y-99659865D01*
X93054000Y-99667548D01*
X93054000Y-100718517D01*
X92546000Y-100718517D01*
X92546000Y-99672115D01*
X92541525Y-99656876D01*
X92540135Y-99655671D01*
X92532452Y-99654000D01*
X91483225Y-99654000D01*
X91469694Y-99657973D01*
X91468257Y-99667966D01*
X83338074Y-99667966D01*
X83256752Y-99608882D01*
X83250724Y-99606198D01*
X83250722Y-99606197D01*
X83088319Y-99533891D01*
X83088318Y-99533891D01*
X83082288Y-99531206D01*
X82988887Y-99511353D01*
X82901944Y-99492872D01*
X82901939Y-99492872D01*
X82895487Y-99491500D01*
X82704513Y-99491500D01*
X82698061Y-99492872D01*
X82698056Y-99492872D01*
X82611112Y-99511353D01*
X82517712Y-99531206D01*
X82511682Y-99533891D01*
X82511681Y-99533891D01*
X82349278Y-99606197D01*
X82349276Y-99606198D01*
X82343248Y-99608882D01*
X82188747Y-99721134D01*
X82060960Y-99863056D01*
X81965473Y-100028444D01*
X81906458Y-100210072D01*
X81886496Y-100400000D01*
X81906458Y-100589928D01*
X81965473Y-100771556D01*
X81968776Y-100777278D01*
X81968777Y-100777279D01*
X82024619Y-100873999D01*
X82041500Y-100936999D01*
X82041500Y-102063001D01*
X82024619Y-102126000D01*
X81965473Y-102228444D01*
X81906458Y-102410072D01*
X81886496Y-102600000D01*
X77188500Y-102600000D01*
X77188500Y-97754669D01*
X91442001Y-97754669D01*
X91442371Y-97761490D01*
X91447895Y-97812352D01*
X91451521Y-97827604D01*
X91496676Y-97948054D01*
X91505214Y-97963649D01*
X91581715Y-98065724D01*
X91594276Y-98078285D01*
X91696351Y-98154786D01*
X91711946Y-98163324D01*
X91821337Y-98204333D01*
X91878101Y-98246975D01*
X91902801Y-98313536D01*
X91887594Y-98382885D01*
X91868201Y-98409366D01*
X91744590Y-98538717D01*
X91738104Y-98546727D01*
X91618098Y-98722649D01*
X91613000Y-98731623D01*
X91523338Y-98924783D01*
X91519775Y-98934470D01*
X91464389Y-99134183D01*
X91465912Y-99142607D01*
X91478292Y-99146000D01*
X92527885Y-99146000D01*
X92543124Y-99141525D01*
X92544329Y-99140135D01*
X92546000Y-99132452D01*
X92546000Y-99127885D01*
X93054000Y-99127885D01*
X93058475Y-99143124D01*
X93059865Y-99144329D01*
X93067548Y-99146000D01*
X94118344Y-99146000D01*
X94131875Y-99142027D01*
X94133180Y-99132947D01*
X94091214Y-98965875D01*
X94087894Y-98956124D01*
X94002972Y-98760814D01*
X93998105Y-98751739D01*
X93882426Y-98572926D01*
X93876136Y-98564757D01*
X93731931Y-98406279D01*
X93700879Y-98342433D01*
X93709273Y-98271934D01*
X93754450Y-98217166D01*
X93780894Y-98203497D01*
X93888054Y-98163324D01*
X93903649Y-98154786D01*
X94005724Y-98078285D01*
X94018285Y-98065724D01*
X94094786Y-97963649D01*
X94103324Y-97948054D01*
X94148478Y-97827606D01*
X94152105Y-97812351D01*
X94157631Y-97761486D01*
X94158000Y-97754672D01*
X94158000Y-97132115D01*
X94153525Y-97116876D01*
X94152135Y-97115671D01*
X94144452Y-97114000D01*
X93072115Y-97114000D01*
X93056876Y-97118475D01*
X93055671Y-97119865D01*
X93054000Y-97127548D01*
X93054000Y-99127885D01*
X92546000Y-99127885D01*
X92546000Y-97132115D01*
X92541525Y-97116876D01*
X92540135Y-97115671D01*
X92532452Y-97114000D01*
X91460116Y-97114000D01*
X91444877Y-97118475D01*
X91443672Y-97119865D01*
X91442001Y-97127548D01*
X91442001Y-97754669D01*
X77188500Y-97754669D01*
X77188500Y-96587885D01*
X91442000Y-96587885D01*
X91446475Y-96603124D01*
X91447865Y-96604329D01*
X91455548Y-96606000D01*
X92527885Y-96606000D01*
X92543124Y-96601525D01*
X92544329Y-96600135D01*
X92546000Y-96592452D01*
X92546000Y-96587885D01*
X93054000Y-96587885D01*
X93058475Y-96603124D01*
X93059865Y-96604329D01*
X93067548Y-96606000D01*
X94139884Y-96606000D01*
X94155123Y-96601525D01*
X94156328Y-96600135D01*
X94157999Y-96592452D01*
X94157999Y-95965331D01*
X94157629Y-95958510D01*
X94152105Y-95907648D01*
X94148479Y-95892396D01*
X94103324Y-95771946D01*
X94094786Y-95756351D01*
X94018285Y-95654276D01*
X94005724Y-95641715D01*
X93903649Y-95565214D01*
X93888054Y-95556676D01*
X93767606Y-95511522D01*
X93752351Y-95507895D01*
X93701486Y-95502369D01*
X93694672Y-95502000D01*
X93072115Y-95502000D01*
X93056876Y-95506475D01*
X93055671Y-95507865D01*
X93054000Y-95515548D01*
X93054000Y-96587885D01*
X92546000Y-96587885D01*
X92546000Y-95520116D01*
X92541525Y-95504877D01*
X92540135Y-95503672D01*
X92532452Y-95502001D01*
X91905331Y-95502001D01*
X91898510Y-95502371D01*
X91847648Y-95507895D01*
X91832396Y-95511521D01*
X91711946Y-95556676D01*
X91696351Y-95565214D01*
X91594276Y-95641715D01*
X91581715Y-95654276D01*
X91505214Y-95756351D01*
X91496676Y-95771946D01*
X91451522Y-95892394D01*
X91447895Y-95907649D01*
X91442369Y-95958514D01*
X91442000Y-95965328D01*
X91442000Y-96587885D01*
X77188500Y-96587885D01*
X77188500Y-95400000D01*
X81886496Y-95400000D01*
X81887186Y-95406565D01*
X81899121Y-95520116D01*
X81906458Y-95589928D01*
X81965473Y-95771556D01*
X82060960Y-95936944D01*
X82188747Y-96078866D01*
X82343248Y-96191118D01*
X82349276Y-96193802D01*
X82349278Y-96193803D01*
X82511681Y-96266109D01*
X82517712Y-96268794D01*
X82611113Y-96288647D01*
X82698056Y-96307128D01*
X82698061Y-96307128D01*
X82704513Y-96308500D01*
X82895487Y-96308500D01*
X82901939Y-96307128D01*
X82901944Y-96307128D01*
X82988887Y-96288647D01*
X83082288Y-96268794D01*
X83088319Y-96266109D01*
X83250722Y-96193803D01*
X83250724Y-96193802D01*
X83256752Y-96191118D01*
X83411253Y-96078866D01*
X83539040Y-95936944D01*
X83634527Y-95771556D01*
X83693542Y-95589928D01*
X83700880Y-95520116D01*
X83712814Y-95406565D01*
X83713504Y-95400000D01*
X83693542Y-95210072D01*
X83634527Y-95028444D01*
X83575381Y-94926000D01*
X83558500Y-94863001D01*
X83558500Y-93932499D01*
X83575381Y-93869499D01*
X83631223Y-93772779D01*
X83631224Y-93772778D01*
X83634527Y-93767056D01*
X83693542Y-93585428D01*
X83713504Y-93395500D01*
X83693542Y-93205572D01*
X83634527Y-93023944D01*
X83539040Y-92858556D01*
X83411253Y-92716634D01*
X83256752Y-92604382D01*
X83250724Y-92601698D01*
X83250722Y-92601697D01*
X83088319Y-92529391D01*
X83088318Y-92529391D01*
X83082288Y-92526706D01*
X82988887Y-92506853D01*
X82901944Y-92488372D01*
X82901939Y-92488372D01*
X82895487Y-92487000D01*
X82704513Y-92487000D01*
X82698061Y-92488372D01*
X82698056Y-92488372D01*
X82611113Y-92506853D01*
X82517712Y-92526706D01*
X82511682Y-92529391D01*
X82511681Y-92529391D01*
X82349278Y-92601697D01*
X82349276Y-92601698D01*
X82343248Y-92604382D01*
X82188747Y-92716634D01*
X82060960Y-92858556D01*
X81965473Y-93023944D01*
X81906458Y-93205572D01*
X81886496Y-93395500D01*
X81906458Y-93585428D01*
X81965473Y-93767056D01*
X81968776Y-93772778D01*
X81968777Y-93772779D01*
X82024619Y-93869499D01*
X82041500Y-93932499D01*
X82041500Y-94863001D01*
X82024619Y-94926000D01*
X81965473Y-95028444D01*
X81906458Y-95210072D01*
X81886496Y-95400000D01*
X77188500Y-95400000D01*
X77188500Y-79222406D01*
X77208502Y-79154285D01*
X77262158Y-79107792D01*
X77332432Y-79097688D01*
X77396330Y-79126595D01*
X77506818Y-79220960D01*
X77506822Y-79220963D01*
X77510584Y-79224176D01*
X77514792Y-79226755D01*
X77514798Y-79226759D01*
X77708817Y-79345654D01*
X77713037Y-79348240D01*
X77717607Y-79350133D01*
X77717611Y-79350135D01*
X77879143Y-79417043D01*
X77932406Y-79439105D01*
X77980349Y-79450615D01*
X78158476Y-79493380D01*
X78158482Y-79493381D01*
X78163289Y-79494535D01*
X78400000Y-79513165D01*
X78636711Y-79494535D01*
X78641518Y-79493381D01*
X78641524Y-79493380D01*
X78717398Y-79475164D01*
X78788306Y-79478711D01*
X78835907Y-79508588D01*
X79904595Y-80577276D01*
X79938621Y-80639588D01*
X79941500Y-80666371D01*
X79941500Y-83232230D01*
X79921498Y-83300351D01*
X79867842Y-83346844D01*
X79797568Y-83356948D01*
X79773439Y-83351002D01*
X79753094Y-83343797D01*
X79753085Y-83343795D01*
X79748212Y-83342069D01*
X79743119Y-83341162D01*
X79743116Y-83341161D01*
X79533373Y-83303800D01*
X79533367Y-83303799D01*
X79528284Y-83302894D01*
X79454452Y-83301992D01*
X79310081Y-83300228D01*
X79310079Y-83300228D01*
X79304911Y-83300165D01*
X79084091Y-83333955D01*
X78871756Y-83403357D01*
X78673607Y-83506507D01*
X78669474Y-83509610D01*
X78669471Y-83509612D01*
X78499100Y-83637530D01*
X78494965Y-83640635D01*
X78340629Y-83802138D01*
X78214743Y-83986680D01*
X78120688Y-84189305D01*
X78060989Y-84404570D01*
X78037251Y-84626695D01*
X78050110Y-84849715D01*
X78051247Y-84854761D01*
X78051248Y-84854767D01*
X78075304Y-84961508D01*
X78099222Y-85067639D01*
X78183266Y-85274616D01*
X78299987Y-85465088D01*
X78446250Y-85633938D01*
X78450230Y-85637242D01*
X78454981Y-85641187D01*
X78494616Y-85700090D01*
X78496113Y-85771071D01*
X78458997Y-85831593D01*
X78418725Y-85856112D01*
X78331642Y-85888758D01*
X78303295Y-85899385D01*
X78186739Y-85986739D01*
X78099385Y-86103295D01*
X78048255Y-86239684D01*
X78041500Y-86301866D01*
X78041500Y-88098134D01*
X78048255Y-88160316D01*
X78099385Y-88296705D01*
X78186739Y-88413261D01*
X78303295Y-88500615D01*
X78439684Y-88551745D01*
X78501866Y-88558500D01*
X80298134Y-88558500D01*
X80360316Y-88551745D01*
X80496705Y-88500615D01*
X80613261Y-88413261D01*
X80700615Y-88296705D01*
X80751745Y-88160316D01*
X80758500Y-88098134D01*
X80758500Y-87546733D01*
X83434822Y-87546733D01*
X83434975Y-87551121D01*
X83434975Y-87551127D01*
X83439522Y-87681323D01*
X83444625Y-87827458D01*
X83445387Y-87831781D01*
X83445388Y-87831788D01*
X83469164Y-87966624D01*
X83493402Y-88104087D01*
X83580203Y-88371235D01*
X83582131Y-88375188D01*
X83582133Y-88375193D01*
X83603325Y-88418642D01*
X83703340Y-88623702D01*
X83705795Y-88627341D01*
X83705798Y-88627347D01*
X83778890Y-88735710D01*
X83860415Y-88856576D01*
X84048371Y-89065322D01*
X84263550Y-89245879D01*
X84501764Y-89394731D01*
X84758375Y-89508982D01*
X85028390Y-89586407D01*
X85032740Y-89587018D01*
X85032743Y-89587019D01*
X85135690Y-89601487D01*
X85306552Y-89625500D01*
X85517146Y-89625500D01*
X85519332Y-89625347D01*
X85519336Y-89625347D01*
X85722827Y-89611118D01*
X85722832Y-89611117D01*
X85727212Y-89610811D01*
X86001970Y-89552409D01*
X86006099Y-89550906D01*
X86006103Y-89550905D01*
X86261781Y-89457846D01*
X86261785Y-89457844D01*
X86265926Y-89456337D01*
X86513942Y-89324464D01*
X86618896Y-89248211D01*
X86737629Y-89161947D01*
X86737632Y-89161944D01*
X86741192Y-89159358D01*
X86943252Y-88964231D01*
X87116188Y-88742882D01*
X87118384Y-88739078D01*
X87118389Y-88739071D01*
X87254435Y-88503431D01*
X87256636Y-88499619D01*
X87361862Y-88239176D01*
X87396181Y-88101531D01*
X87428753Y-87970893D01*
X87428754Y-87970888D01*
X87429817Y-87966624D01*
X87440672Y-87863350D01*
X87458719Y-87691636D01*
X87458719Y-87691633D01*
X87459178Y-87687267D01*
X87459025Y-87682873D01*
X87449529Y-87410939D01*
X87449528Y-87410933D01*
X87449375Y-87406542D01*
X87438792Y-87346522D01*
X91820801Y-87346522D01*
X91859092Y-87489423D01*
X91862842Y-87499727D01*
X91947521Y-87681323D01*
X91952998Y-87690811D01*
X92067925Y-87854942D01*
X92074981Y-87863350D01*
X92216650Y-88005019D01*
X92225058Y-88012075D01*
X92389189Y-88127002D01*
X92398677Y-88132479D01*
X92580273Y-88217158D01*
X92590577Y-88220908D01*
X92728503Y-88257866D01*
X92742599Y-88257530D01*
X92746000Y-88249588D01*
X92746000Y-88244439D01*
X93254000Y-88244439D01*
X93257973Y-88257970D01*
X93266522Y-88259199D01*
X93409423Y-88220908D01*
X93419727Y-88217158D01*
X93601323Y-88132479D01*
X93610811Y-88127002D01*
X93774942Y-88012075D01*
X93783350Y-88005019D01*
X93925019Y-87863350D01*
X93932075Y-87854942D01*
X94047002Y-87690811D01*
X94052479Y-87681323D01*
X94137158Y-87499727D01*
X94140908Y-87489423D01*
X94177866Y-87351497D01*
X94177530Y-87337401D01*
X94169588Y-87334000D01*
X93272115Y-87334000D01*
X93256876Y-87338475D01*
X93255671Y-87339865D01*
X93254000Y-87347548D01*
X93254000Y-88244439D01*
X92746000Y-88244439D01*
X92746000Y-87352115D01*
X92741525Y-87336876D01*
X92740135Y-87335671D01*
X92732452Y-87334000D01*
X91835561Y-87334000D01*
X91822030Y-87337973D01*
X91820801Y-87346522D01*
X87438792Y-87346522D01*
X87437285Y-87337973D01*
X87401360Y-87134236D01*
X87400598Y-87129913D01*
X87313797Y-86862765D01*
X87295866Y-86826000D01*
X87287332Y-86808503D01*
X91822134Y-86808503D01*
X91822470Y-86822599D01*
X91830412Y-86826000D01*
X92727885Y-86826000D01*
X92743124Y-86821525D01*
X92744329Y-86820135D01*
X92746000Y-86812452D01*
X92746000Y-86807885D01*
X93254000Y-86807885D01*
X93258475Y-86823124D01*
X93259865Y-86824329D01*
X93267548Y-86826000D01*
X94164439Y-86826000D01*
X94177970Y-86822027D01*
X94179199Y-86813478D01*
X94140908Y-86670577D01*
X94137158Y-86660273D01*
X94052479Y-86478677D01*
X94047002Y-86469189D01*
X93932075Y-86305058D01*
X93925019Y-86296650D01*
X93783350Y-86154981D01*
X93774942Y-86147925D01*
X93610811Y-86032998D01*
X93601323Y-86027521D01*
X93419727Y-85942842D01*
X93409423Y-85939092D01*
X93271497Y-85902134D01*
X93257401Y-85902470D01*
X93254000Y-85910412D01*
X93254000Y-86807885D01*
X92746000Y-86807885D01*
X92746000Y-85915561D01*
X92742027Y-85902030D01*
X92733478Y-85900801D01*
X92590577Y-85939092D01*
X92580273Y-85942842D01*
X92398677Y-86027521D01*
X92389189Y-86032998D01*
X92225058Y-86147925D01*
X92216650Y-86154981D01*
X92074981Y-86296650D01*
X92067925Y-86305058D01*
X91952998Y-86469189D01*
X91947521Y-86478677D01*
X91862842Y-86660273D01*
X91859092Y-86670577D01*
X91822134Y-86808503D01*
X87287332Y-86808503D01*
X87220060Y-86670577D01*
X87190660Y-86610298D01*
X87188205Y-86606659D01*
X87188202Y-86606653D01*
X87100767Y-86477026D01*
X87033585Y-86377424D01*
X86845629Y-86168678D01*
X86630450Y-85988121D01*
X86392236Y-85839269D01*
X86135625Y-85725018D01*
X85865610Y-85647593D01*
X85861260Y-85646982D01*
X85861257Y-85646981D01*
X85740649Y-85630031D01*
X85587448Y-85608500D01*
X85376854Y-85608500D01*
X85374668Y-85608653D01*
X85374664Y-85608653D01*
X85171173Y-85622882D01*
X85171168Y-85622883D01*
X85166788Y-85623189D01*
X84892030Y-85681591D01*
X84887901Y-85683094D01*
X84887897Y-85683095D01*
X84632219Y-85776154D01*
X84632215Y-85776156D01*
X84628074Y-85777663D01*
X84380058Y-85909536D01*
X84376499Y-85912122D01*
X84376497Y-85912123D01*
X84159788Y-86069571D01*
X84152808Y-86074642D01*
X83950748Y-86269769D01*
X83777812Y-86491118D01*
X83775616Y-86494922D01*
X83775611Y-86494929D01*
X83680150Y-86660273D01*
X83637364Y-86734381D01*
X83532138Y-86994824D01*
X83531073Y-86999097D01*
X83531072Y-86999099D01*
X83497379Y-87134236D01*
X83464183Y-87267376D01*
X83463724Y-87271744D01*
X83463723Y-87271749D01*
X83450011Y-87402212D01*
X83434822Y-87546733D01*
X80758500Y-87546733D01*
X80758500Y-86966371D01*
X80778502Y-86898250D01*
X80795405Y-86877276D01*
X81188911Y-86483770D01*
X81203323Y-86471384D01*
X81214918Y-86462851D01*
X81214923Y-86462846D01*
X81220818Y-86458508D01*
X81225557Y-86452930D01*
X81225560Y-86452927D01*
X81255035Y-86418232D01*
X81261965Y-86410716D01*
X81267661Y-86405020D01*
X81269924Y-86402159D01*
X81269929Y-86402154D01*
X81285285Y-86382744D01*
X81288074Y-86379342D01*
X81330596Y-86329291D01*
X81330597Y-86329290D01*
X81335333Y-86323715D01*
X81338661Y-86317198D01*
X81342027Y-86312150D01*
X81345190Y-86307028D01*
X81349735Y-86301284D01*
X81380664Y-86235105D01*
X81382563Y-86231221D01*
X81415769Y-86166192D01*
X81417510Y-86159077D01*
X81419613Y-86153422D01*
X81421522Y-86147683D01*
X81424622Y-86141050D01*
X81439491Y-86069565D01*
X81440461Y-86065282D01*
X81456473Y-85999844D01*
X81457808Y-85994390D01*
X81458500Y-85983236D01*
X81458535Y-85983238D01*
X81458775Y-85979266D01*
X81459152Y-85975045D01*
X81460641Y-85967885D01*
X81458546Y-85890458D01*
X81458500Y-85887050D01*
X81458500Y-80367069D01*
X81459933Y-80348118D01*
X81462099Y-80333883D01*
X81462099Y-80333881D01*
X81463199Y-80326651D01*
X81458915Y-80273982D01*
X81458500Y-80263767D01*
X81458500Y-80255707D01*
X81455211Y-80227493D01*
X81454778Y-80223118D01*
X81449454Y-80157661D01*
X81449453Y-80157658D01*
X81448860Y-80150363D01*
X81446604Y-80143399D01*
X81445413Y-80137440D01*
X81444029Y-80131585D01*
X81443182Y-80124319D01*
X81418265Y-80055673D01*
X81416848Y-80051545D01*
X81396607Y-79989064D01*
X81396606Y-79989062D01*
X81394351Y-79982101D01*
X81390555Y-79975846D01*
X81388049Y-79970372D01*
X81385330Y-79964942D01*
X81382833Y-79958063D01*
X81342809Y-79897016D01*
X81340472Y-79893312D01*
X81305509Y-79835693D01*
X81305505Y-79835688D01*
X81302595Y-79830892D01*
X81295197Y-79822516D01*
X81295223Y-79822493D01*
X81292574Y-79819503D01*
X81289866Y-79816264D01*
X81285856Y-79810148D01*
X81280549Y-79805121D01*
X81280546Y-79805117D01*
X81229617Y-79756872D01*
X81227175Y-79754494D01*
X79908588Y-78435907D01*
X79874562Y-78373595D01*
X79875164Y-78317398D01*
X79893380Y-78241524D01*
X79893381Y-78241518D01*
X79894535Y-78236711D01*
X79913165Y-78000000D01*
X79894535Y-77763289D01*
X79839105Y-77532406D01*
X79748240Y-77313037D01*
X79726713Y-77277908D01*
X79626759Y-77114798D01*
X79626755Y-77114792D01*
X79624176Y-77110584D01*
X79469969Y-76930031D01*
X79289416Y-76775824D01*
X79285208Y-76773245D01*
X79285202Y-76773241D01*
X79091183Y-76654346D01*
X79086963Y-76651760D01*
X79082393Y-76649867D01*
X79082389Y-76649865D01*
X78872167Y-76562789D01*
X78872165Y-76562788D01*
X78867594Y-76560895D01*
X78757405Y-76534441D01*
X78641524Y-76506620D01*
X78641518Y-76506619D01*
X78636711Y-76505465D01*
X78400000Y-76486835D01*
X78163289Y-76505465D01*
X78158482Y-76506619D01*
X78158476Y-76506620D01*
X78042595Y-76534441D01*
X77932406Y-76560895D01*
X77927835Y-76562788D01*
X77927833Y-76562789D01*
X77717611Y-76649865D01*
X77717607Y-76649867D01*
X77713037Y-76651760D01*
X77708814Y-76654348D01*
X77695558Y-76662471D01*
X77627025Y-76681010D01*
X77559348Y-76659554D01*
X77514014Y-76604916D01*
X77505417Y-76534441D01*
X77524957Y-76485037D01*
X77603713Y-76367171D01*
X77613746Y-76354095D01*
X77778068Y-76166722D01*
X77789722Y-76155068D01*
X77977095Y-75990746D01*
X77990171Y-75980713D01*
X78197384Y-75842257D01*
X78211658Y-75834016D01*
X78435174Y-75723791D01*
X78450400Y-75717484D01*
X78686394Y-75637375D01*
X78702304Y-75633112D01*
X78824523Y-75608801D01*
X78946738Y-75584491D01*
X78963078Y-75582340D01*
X79116098Y-75572310D01*
X79178237Y-75568237D01*
X79201349Y-75569267D01*
X79204854Y-75569310D01*
X79213724Y-75570691D01*
X79222625Y-75569527D01*
X79222629Y-75569527D01*
X79245215Y-75566573D01*
X79261581Y-75565509D01*
X92610589Y-75568489D01*
G37*
%TD.AperFunction*%
%TD*%
M02*
