%TF.GenerationSoftware,KiCad,Pcbnew,(6.0.8-1)-1*%
%TF.CreationDate,2023-05-30T17:25:44-07:00*%
%TF.ProjectId,SiPM_breakout,5369504d-5f62-4726-9561-6b6f75742e6b,rev?*%
%TF.SameCoordinates,Original*%
%TF.FileFunction,Copper,L1,Top*%
%TF.FilePolarity,Positive*%
%FSLAX46Y46*%
G04 Gerber Fmt 4.6, Leading zero omitted, Abs format (unit mm)*
G04 Created by KiCad (PCBNEW (6.0.8-1)-1) date 2023-05-30 17:25:44*
%MOMM*%
%LPD*%
G01*
G04 APERTURE LIST*
%TA.AperFunction,ComponentPad*%
%ADD10R,2.000000X2.000000*%
%TD*%
%TA.AperFunction,ComponentPad*%
%ADD11O,2.000000X2.000000*%
%TD*%
%TA.AperFunction,ComponentPad*%
%ADD12C,1.400000*%
%TD*%
%TA.AperFunction,ComponentPad*%
%ADD13O,1.400000X1.400000*%
%TD*%
%TA.AperFunction,SMDPad,CuDef*%
%ADD14C,0.500000*%
%TD*%
%TA.AperFunction,ComponentPad*%
%ADD15R,1.700000X1.700000*%
%TD*%
%TA.AperFunction,ComponentPad*%
%ADD16O,1.700000X1.700000*%
%TD*%
%TA.AperFunction,ViaPad*%
%ADD17C,0.800000*%
%TD*%
%TA.AperFunction,Conductor*%
%ADD18C,0.500000*%
%TD*%
G04 APERTURE END LIST*
D10*
%TO.P,C2,1*%
%TO.N,Net-(C2-Pad1)*%
X93400000Y-78000000D03*
D11*
%TO.P,C2,2*%
%TO.N,/SIG2*%
X78400000Y-78000000D03*
%TD*%
D10*
%TO.P,C1,1*%
%TO.N,Net-(C1-Pad1)*%
X93400000Y-117642500D03*
D11*
%TO.P,C1,2*%
%TO.N,/SIG1*%
X78400000Y-117642500D03*
%TD*%
D12*
%TO.P,R2,1*%
%TO.N,Net-(C2-Pad1)*%
X93000000Y-82000000D03*
D13*
%TO.P,R2,2*%
%TO.N,/GND*%
X93000000Y-87080000D03*
%TD*%
D12*
%TO.P,R1,1*%
%TO.N,Net-(C1-Pad1)*%
X93200000Y-106800000D03*
D13*
%TO.P,R1,2*%
%TO.N,/GND*%
X93200000Y-111880000D03*
%TD*%
D14*
%TO.P,D1,1,K*%
%TO.N,/BIAS1*%
X85200000Y-102655000D03*
X84200000Y-100555000D03*
X86200000Y-100555000D03*
X85200000Y-100555000D03*
%TO.P,D1,2,A*%
%TO.N,Net-(C1-Pad1)*%
X84200000Y-101555000D03*
X86200000Y-101555000D03*
%TO.P,D1,4*%
%TO.N,N/C*%
X86200000Y-102655000D03*
X84200000Y-102655000D03*
%TO.P,D1,5*%
X85200000Y-101555000D03*
%TD*%
%TO.P,D2,1,K*%
%TO.N,/BIAS2*%
X85200000Y-95245000D03*
X84200000Y-95245000D03*
X86200000Y-95245000D03*
X85200000Y-93145000D03*
%TO.P,D2,2,A*%
%TO.N,Net-(C2-Pad1)*%
X84200000Y-94245000D03*
X86200000Y-94245000D03*
%TO.P,D2,4*%
%TO.N,N/C*%
X84200000Y-93145000D03*
X86200000Y-93145000D03*
%TO.P,D2,5*%
X85200000Y-94245000D03*
%TD*%
D15*
%TO.P,J2,1,Pin_1*%
%TO.N,/SIG2*%
X79400000Y-87200000D03*
D16*
%TO.P,J2,2,Pin_2*%
%TO.N,/BIAS2*%
X79400000Y-84660000D03*
%TD*%
D15*
%TO.P,J1,1,Pin_1*%
%TO.N,/SIG1*%
X79400000Y-108000000D03*
D16*
%TO.P,J1,2,Pin_2*%
%TO.N,/BIAS1*%
X79400000Y-110540000D03*
%TD*%
D15*
%TO.P,J3,1,Pin_1*%
%TO.N,/GND*%
X92800000Y-96860000D03*
D16*
%TO.P,J3,2,Pin_2*%
X92800000Y-99400000D03*
%TD*%
D17*
%TO.N,/GND*%
X88600000Y-103000000D03*
%TO.N,/BIAS1*%
X82800000Y-102600000D03*
X82800000Y-100400000D03*
%TO.N,/BIAS2*%
X82800000Y-95400000D03*
X82800000Y-93395500D03*
%TO.N,/GND*%
X81800000Y-91600000D03*
X88600000Y-93400000D03*
X79940621Y-100259834D03*
X82600000Y-85400000D03*
X78400000Y-113600000D03*
X82200000Y-110000000D03*
X82200000Y-104600000D03*
X79400000Y-95000000D03*
X81099647Y-92900353D03*
X85250000Y-98000000D03*
%TD*%
D18*
%TO.N,Net-(C2-Pad1)*%
X84400000Y-94245000D02*
X80755000Y-94245000D01*
X80755000Y-94245000D02*
X80600000Y-94400000D01*
X91000000Y-92202082D02*
X91000000Y-82800000D01*
X91800000Y-82000000D02*
X93000000Y-82000000D01*
X88002082Y-95200000D02*
X91000000Y-92202082D01*
X88000000Y-95200000D02*
X88002082Y-95200000D01*
X91000000Y-82800000D02*
X91800000Y-82000000D01*
%TO.N,Net-(C1-Pad1)*%
X87200000Y-101000000D02*
X87200000Y-103200000D01*
X87200000Y-103200000D02*
X90800000Y-106800000D01*
X90800000Y-106800000D02*
X93200000Y-106800000D01*
%TO.N,Net-(C2-Pad1)*%
X87200000Y-94400000D02*
X88000000Y-95200000D01*
X87000000Y-94200000D02*
X87200000Y-94400000D01*
X87000000Y-96600000D02*
X82400000Y-96600000D01*
X87200000Y-96600000D02*
X87000000Y-96600000D01*
%TO.N,Net-(C1-Pad1)*%
X83400000Y-99400000D02*
X83600000Y-99400000D01*
X82200000Y-99400000D02*
X83400000Y-99400000D01*
%TO.N,Net-(C2-Pad1)*%
X87600000Y-96600000D02*
X87200000Y-96600000D01*
%TO.N,Net-(C1-Pad1)*%
X83600000Y-99400000D02*
X86600000Y-99400000D01*
X82000000Y-99600000D02*
X82200000Y-99400000D01*
X81400000Y-100200000D02*
X82000000Y-99600000D01*
%TO.N,Net-(C2-Pad1)*%
X86400000Y-94245000D02*
X86955000Y-94245000D01*
X82400000Y-96600000D02*
X80650000Y-94850000D01*
X88000000Y-96200000D02*
X87600000Y-96600000D01*
X88000000Y-95200000D02*
X88000000Y-96200000D01*
X86955000Y-94245000D02*
X87000000Y-94200000D01*
X80650000Y-94850000D02*
X80650000Y-94447918D01*
%TO.N,Net-(C1-Pad1)*%
X86645000Y-101555000D02*
X86200000Y-101555000D01*
X87200000Y-101000000D02*
X86645000Y-101555000D01*
X86600000Y-99400000D02*
X87200000Y-100000000D01*
X81400000Y-101600000D02*
X81400000Y-100200000D01*
X84200000Y-101555000D02*
X81445000Y-101555000D01*
X87200000Y-100000000D02*
X87200000Y-101000000D01*
%TO.N,/BIAS1*%
X84045000Y-100400000D02*
X84200000Y-100555000D01*
X82800000Y-102600000D02*
X83555000Y-103355000D01*
X84500000Y-103355000D02*
X85200000Y-102655000D01*
X82600000Y-100600000D02*
X86000000Y-100600000D01*
X80860000Y-103740000D02*
X82000000Y-102600000D01*
X82800000Y-100400000D02*
X84045000Y-100400000D01*
X79400000Y-110540000D02*
X80860000Y-109080000D01*
X83555000Y-103355000D02*
X84500000Y-103355000D01*
X84645000Y-103355000D02*
X85400000Y-102600000D01*
X83155050Y-102600000D02*
X83910050Y-103355000D01*
X86200000Y-100555000D02*
X84200000Y-100555000D01*
X83910050Y-103355000D02*
X84645000Y-103355000D01*
X80860000Y-109080000D02*
X80860000Y-103740000D01*
X82000000Y-102600000D02*
X83155050Y-102600000D01*
%TO.N,/BIAS2*%
X84245000Y-95400000D02*
X84400000Y-95245000D01*
X82800000Y-93400000D02*
X82800000Y-93395500D01*
X82800000Y-93400000D02*
X83800000Y-92400000D01*
X81800000Y-89800000D02*
X82800000Y-90800000D01*
X81800000Y-87060000D02*
X81800000Y-89600000D01*
X82800000Y-95400000D02*
X84245000Y-95400000D01*
X79400000Y-84660000D02*
X81800000Y-87060000D01*
X83800000Y-92400000D02*
X84655000Y-92400000D01*
X83200000Y-95400000D02*
X84000000Y-95400000D01*
X85600000Y-95400000D02*
X83600000Y-95400000D01*
X86400000Y-95245000D02*
X84400000Y-95245000D01*
X82800000Y-90800000D02*
X82800000Y-93400000D01*
X84655000Y-92400000D02*
X85400000Y-93145000D01*
%TD*%
%TA.AperFunction,Conductor*%
%TO.N,/GND*%
G36*
X92610589Y-75568489D02*
G01*
X92629945Y-75569989D01*
X92644849Y-75572310D01*
X92644855Y-75572310D01*
X92653724Y-75573691D01*
X92662626Y-75572527D01*
X92662629Y-75572527D01*
X92670012Y-75571561D01*
X92694591Y-75570767D01*
X92721442Y-75572527D01*
X92916922Y-75585340D01*
X92933262Y-75587491D01*
X93055477Y-75611801D01*
X93177696Y-75636112D01*
X93193606Y-75640375D01*
X93429600Y-75720484D01*
X93444826Y-75726791D01*
X93668342Y-75837016D01*
X93682616Y-75845257D01*
X93889829Y-75983713D01*
X93902905Y-75993746D01*
X94090278Y-76158068D01*
X94101932Y-76169722D01*
X94200768Y-76282422D01*
X94230645Y-76346826D01*
X94220959Y-76417159D01*
X94174787Y-76471090D01*
X94106036Y-76491500D01*
X92351866Y-76491500D01*
X92289684Y-76498255D01*
X92153295Y-76549385D01*
X92036739Y-76636739D01*
X91949385Y-76753295D01*
X91898255Y-76889684D01*
X91891500Y-76951866D01*
X91891500Y-79048134D01*
X91898255Y-79110316D01*
X91949385Y-79246705D01*
X92036739Y-79363261D01*
X92153295Y-79450615D01*
X92289684Y-79501745D01*
X92351866Y-79508500D01*
X94448134Y-79508500D01*
X94510316Y-79501745D01*
X94517716Y-79498971D01*
X94521275Y-79497637D01*
X94524238Y-79497420D01*
X94525400Y-79497144D01*
X94525445Y-79497332D01*
X94592082Y-79492457D01*
X94654450Y-79526380D01*
X94688577Y-79588637D01*
X94691500Y-79615621D01*
X94691500Y-116026879D01*
X94671498Y-116095000D01*
X94617842Y-116141493D01*
X94547568Y-116151597D01*
X94521275Y-116144863D01*
X94517716Y-116143529D01*
X94517715Y-116143529D01*
X94510316Y-116140755D01*
X94448134Y-116134000D01*
X92351866Y-116134000D01*
X92289684Y-116140755D01*
X92153295Y-116191885D01*
X92036739Y-116279239D01*
X91949385Y-116395795D01*
X91898255Y-116532184D01*
X91891500Y-116594366D01*
X91891500Y-118690634D01*
X91898255Y-118752816D01*
X91949385Y-118889205D01*
X92036739Y-119005761D01*
X92153295Y-119093115D01*
X92289684Y-119144245D01*
X92351866Y-119151000D01*
X94167863Y-119151000D01*
X94235984Y-119171002D01*
X94282477Y-119224658D01*
X94292581Y-119294932D01*
X94262595Y-119360078D01*
X94101932Y-119543278D01*
X94090278Y-119554932D01*
X93902905Y-119719254D01*
X93889829Y-119729287D01*
X93682616Y-119867743D01*
X93668342Y-119875984D01*
X93444826Y-119986209D01*
X93429602Y-119992515D01*
X93193606Y-120072625D01*
X93177696Y-120076888D01*
X93055477Y-120101199D01*
X92933262Y-120125509D01*
X92916922Y-120127660D01*
X92768134Y-120137413D01*
X92701763Y-120141763D01*
X92678651Y-120140733D01*
X92675146Y-120140690D01*
X92666276Y-120139309D01*
X92657375Y-120140473D01*
X92657371Y-120140473D01*
X92634785Y-120143427D01*
X92618419Y-120144491D01*
X79269411Y-120141511D01*
X79250055Y-120140011D01*
X79235151Y-120137690D01*
X79235145Y-120137690D01*
X79226276Y-120136309D01*
X79217374Y-120137473D01*
X79217371Y-120137473D01*
X79209988Y-120138439D01*
X79185409Y-120139233D01*
X79140799Y-120136309D01*
X78963078Y-120124660D01*
X78946738Y-120122509D01*
X78824523Y-120098199D01*
X78702304Y-120073888D01*
X78686394Y-120069625D01*
X78450398Y-119989515D01*
X78435174Y-119983209D01*
X78211658Y-119872984D01*
X78197384Y-119864743D01*
X77990171Y-119726287D01*
X77977095Y-119716254D01*
X77789722Y-119551932D01*
X77778068Y-119540278D01*
X77613746Y-119352905D01*
X77603713Y-119339829D01*
X77465257Y-119132616D01*
X77457017Y-119118344D01*
X77448722Y-119101524D01*
X77436531Y-119031582D01*
X77464089Y-118966152D01*
X77522647Y-118926008D01*
X77593612Y-118923895D01*
X77627562Y-118938361D01*
X77672913Y-118966152D01*
X77713037Y-118990740D01*
X77717607Y-118992633D01*
X77717611Y-118992635D01*
X77927833Y-119079711D01*
X77932406Y-119081605D01*
X77980349Y-119093115D01*
X78158476Y-119135880D01*
X78158482Y-119135881D01*
X78163289Y-119137035D01*
X78400000Y-119155665D01*
X78636711Y-119137035D01*
X78641518Y-119135881D01*
X78641524Y-119135880D01*
X78819651Y-119093115D01*
X78867594Y-119081605D01*
X78872167Y-119079711D01*
X79082389Y-118992635D01*
X79082393Y-118992633D01*
X79086963Y-118990740D01*
X79127087Y-118966152D01*
X79285202Y-118869259D01*
X79285208Y-118869255D01*
X79289416Y-118866676D01*
X79469969Y-118712469D01*
X79624176Y-118531916D01*
X79626755Y-118527708D01*
X79626759Y-118527702D01*
X79745654Y-118333683D01*
X79748240Y-118329463D01*
X79839105Y-118110094D01*
X79894535Y-117879211D01*
X79913165Y-117642500D01*
X79894535Y-117405789D01*
X79839105Y-117174906D01*
X79748240Y-116955537D01*
X79745654Y-116951317D01*
X79626759Y-116757298D01*
X79626755Y-116757292D01*
X79624176Y-116753084D01*
X79469969Y-116572531D01*
X79289416Y-116418324D01*
X79285208Y-116415745D01*
X79285202Y-116415741D01*
X79091183Y-116296846D01*
X79086963Y-116294260D01*
X79082393Y-116292367D01*
X79082389Y-116292365D01*
X78872167Y-116205289D01*
X78872165Y-116205288D01*
X78867594Y-116203395D01*
X78787391Y-116184140D01*
X78641524Y-116149120D01*
X78641518Y-116149119D01*
X78636711Y-116147965D01*
X78400000Y-116129335D01*
X78163289Y-116147965D01*
X78158482Y-116149119D01*
X78158476Y-116149120D01*
X78012609Y-116184140D01*
X77932406Y-116203395D01*
X77927835Y-116205288D01*
X77927833Y-116205289D01*
X77717611Y-116292365D01*
X77717607Y-116292367D01*
X77713037Y-116294260D01*
X77708817Y-116296846D01*
X77514798Y-116415741D01*
X77514792Y-116415745D01*
X77510584Y-116418324D01*
X77506822Y-116421537D01*
X77506818Y-116421540D01*
X77396330Y-116515905D01*
X77331541Y-116544936D01*
X77261341Y-116534331D01*
X77208018Y-116487456D01*
X77188500Y-116420094D01*
X77188500Y-112146522D01*
X92020801Y-112146522D01*
X92059092Y-112289423D01*
X92062842Y-112299727D01*
X92147521Y-112481323D01*
X92152998Y-112490811D01*
X92267925Y-112654942D01*
X92274981Y-112663350D01*
X92416650Y-112805019D01*
X92425058Y-112812075D01*
X92589189Y-112927002D01*
X92598677Y-112932479D01*
X92780273Y-113017158D01*
X92790577Y-113020908D01*
X92928503Y-113057866D01*
X92942599Y-113057530D01*
X92946000Y-113049588D01*
X92946000Y-113044439D01*
X93454000Y-113044439D01*
X93457973Y-113057970D01*
X93466522Y-113059199D01*
X93609423Y-113020908D01*
X93619727Y-113017158D01*
X93801323Y-112932479D01*
X93810811Y-112927002D01*
X93974942Y-112812075D01*
X93983350Y-112805019D01*
X94125019Y-112663350D01*
X94132075Y-112654942D01*
X94247002Y-112490811D01*
X94252479Y-112481323D01*
X94337158Y-112299727D01*
X94340908Y-112289423D01*
X94377866Y-112151497D01*
X94377530Y-112137401D01*
X94369588Y-112134000D01*
X93472115Y-112134000D01*
X93456876Y-112138475D01*
X93455671Y-112139865D01*
X93454000Y-112147548D01*
X93454000Y-113044439D01*
X92946000Y-113044439D01*
X92946000Y-112152115D01*
X92941525Y-112136876D01*
X92940135Y-112135671D01*
X92932452Y-112134000D01*
X92035561Y-112134000D01*
X92022030Y-112137973D01*
X92020801Y-112146522D01*
X77188500Y-112146522D01*
X77188500Y-110506695D01*
X78037251Y-110506695D01*
X78037548Y-110511848D01*
X78037548Y-110511851D01*
X78043011Y-110606590D01*
X78050110Y-110729715D01*
X78051247Y-110734761D01*
X78051248Y-110734767D01*
X78052223Y-110739092D01*
X78099222Y-110947639D01*
X78183266Y-111154616D01*
X78299987Y-111345088D01*
X78446250Y-111513938D01*
X78618126Y-111656632D01*
X78811000Y-111769338D01*
X79019692Y-111849030D01*
X79024760Y-111850061D01*
X79024763Y-111850062D01*
X79132017Y-111871883D01*
X79238597Y-111893567D01*
X79243772Y-111893757D01*
X79243774Y-111893757D01*
X79456673Y-111901564D01*
X79456677Y-111901564D01*
X79461837Y-111901753D01*
X79466957Y-111901097D01*
X79466959Y-111901097D01*
X79678288Y-111874025D01*
X79678289Y-111874025D01*
X79683416Y-111873368D01*
X79688366Y-111871883D01*
X79892429Y-111810661D01*
X79892434Y-111810659D01*
X79897384Y-111809174D01*
X80097994Y-111710896D01*
X80241545Y-111608503D01*
X92022134Y-111608503D01*
X92022470Y-111622599D01*
X92030412Y-111626000D01*
X92927885Y-111626000D01*
X92943124Y-111621525D01*
X92944329Y-111620135D01*
X92946000Y-111612452D01*
X92946000Y-111607885D01*
X93454000Y-111607885D01*
X93458475Y-111623124D01*
X93459865Y-111624329D01*
X93467548Y-111626000D01*
X94364439Y-111626000D01*
X94377970Y-111622027D01*
X94379199Y-111613478D01*
X94340908Y-111470577D01*
X94337158Y-111460273D01*
X94252479Y-111278677D01*
X94247002Y-111269189D01*
X94132075Y-111105058D01*
X94125019Y-111096650D01*
X93983350Y-110954981D01*
X93974942Y-110947925D01*
X93810811Y-110832998D01*
X93801323Y-110827521D01*
X93619727Y-110742842D01*
X93609423Y-110739092D01*
X93471497Y-110702134D01*
X93457401Y-110702470D01*
X93454000Y-110710412D01*
X93454000Y-111607885D01*
X92946000Y-111607885D01*
X92946000Y-110715561D01*
X92942027Y-110702030D01*
X92933478Y-110700801D01*
X92790577Y-110739092D01*
X92780273Y-110742842D01*
X92598677Y-110827521D01*
X92589189Y-110832998D01*
X92425058Y-110947925D01*
X92416650Y-110954981D01*
X92274981Y-111096650D01*
X92267925Y-111105058D01*
X92152998Y-111269189D01*
X92147521Y-111278677D01*
X92062842Y-111460273D01*
X92059092Y-111470577D01*
X92022134Y-111608503D01*
X80241545Y-111608503D01*
X80279860Y-111581173D01*
X80438096Y-111423489D01*
X80497594Y-111340689D01*
X80565435Y-111246277D01*
X80568453Y-111242077D01*
X80667430Y-111041811D01*
X80732370Y-110828069D01*
X80761529Y-110606590D01*
X80763156Y-110540000D01*
X80745870Y-110329747D01*
X80760223Y-110260219D01*
X80782351Y-110230330D01*
X81348911Y-109663770D01*
X81363323Y-109651384D01*
X81374918Y-109642851D01*
X81374923Y-109642846D01*
X81380818Y-109638508D01*
X81385557Y-109632930D01*
X81385560Y-109632927D01*
X81415035Y-109598232D01*
X81421965Y-109590716D01*
X81427661Y-109585020D01*
X81429924Y-109582159D01*
X81429929Y-109582154D01*
X81445293Y-109562734D01*
X81448082Y-109559333D01*
X81468407Y-109535409D01*
X81495333Y-109503715D01*
X81498659Y-109497202D01*
X81502020Y-109492163D01*
X81505196Y-109487021D01*
X81509734Y-109481284D01*
X81540655Y-109415125D01*
X81542561Y-109411225D01*
X81555183Y-109386507D01*
X81575769Y-109346192D01*
X81577508Y-109339083D01*
X81579604Y-109333449D01*
X81581523Y-109327679D01*
X81584622Y-109321050D01*
X81587019Y-109309530D01*
X81599490Y-109249571D01*
X81600461Y-109245282D01*
X81606980Y-109218642D01*
X81617808Y-109174390D01*
X81618500Y-109163236D01*
X81618535Y-109163238D01*
X81618775Y-109159266D01*
X81619152Y-109155045D01*
X81620641Y-109147885D01*
X81618546Y-109070458D01*
X81618500Y-109067050D01*
X81618500Y-107529733D01*
X83387822Y-107529733D01*
X83387975Y-107534121D01*
X83387975Y-107534127D01*
X83389706Y-107583671D01*
X83397625Y-107810458D01*
X83398387Y-107814781D01*
X83398388Y-107814788D01*
X83422164Y-107949624D01*
X83446402Y-108087087D01*
X83533203Y-108354235D01*
X83656340Y-108606702D01*
X83658795Y-108610341D01*
X83658798Y-108610347D01*
X83731890Y-108718710D01*
X83813415Y-108839576D01*
X84001371Y-109048322D01*
X84216550Y-109228879D01*
X84454764Y-109377731D01*
X84711375Y-109491982D01*
X84715603Y-109493194D01*
X84715602Y-109493194D01*
X84946258Y-109559333D01*
X84981390Y-109569407D01*
X84985740Y-109570018D01*
X84985743Y-109570019D01*
X85072090Y-109582154D01*
X85259552Y-109608500D01*
X85470146Y-109608500D01*
X85472332Y-109608347D01*
X85472336Y-109608347D01*
X85675827Y-109594118D01*
X85675832Y-109594117D01*
X85680212Y-109593811D01*
X85954970Y-109535409D01*
X85959099Y-109533906D01*
X85959103Y-109533905D01*
X86214781Y-109440846D01*
X86214785Y-109440844D01*
X86218926Y-109439337D01*
X86466942Y-109307464D01*
X86483782Y-109295229D01*
X86690629Y-109144947D01*
X86690632Y-109144944D01*
X86694192Y-109142358D01*
X86896252Y-108947231D01*
X87069188Y-108725882D01*
X87071384Y-108722078D01*
X87071389Y-108722071D01*
X87207435Y-108486431D01*
X87209636Y-108482619D01*
X87314862Y-108222176D01*
X87348544Y-108087087D01*
X87381753Y-107953893D01*
X87381754Y-107953888D01*
X87382817Y-107949624D01*
X87383834Y-107939956D01*
X87411719Y-107674636D01*
X87411719Y-107674633D01*
X87412178Y-107670267D01*
X87408974Y-107578502D01*
X87402529Y-107393939D01*
X87402528Y-107393933D01*
X87402375Y-107389542D01*
X87398917Y-107369927D01*
X87354360Y-107117236D01*
X87353598Y-107112913D01*
X87266797Y-106845765D01*
X87241806Y-106794525D01*
X87170048Y-106647402D01*
X87143660Y-106593298D01*
X87141205Y-106589659D01*
X87141202Y-106589653D01*
X87003222Y-106385090D01*
X86986585Y-106360424D01*
X86798629Y-106151678D01*
X86583450Y-105971121D01*
X86345236Y-105822269D01*
X86088625Y-105708018D01*
X85818610Y-105630593D01*
X85814260Y-105629982D01*
X85814257Y-105629981D01*
X85711310Y-105615513D01*
X85540448Y-105591500D01*
X85329854Y-105591500D01*
X85327668Y-105591653D01*
X85327664Y-105591653D01*
X85124173Y-105605882D01*
X85124168Y-105605883D01*
X85119788Y-105606189D01*
X84845030Y-105664591D01*
X84840901Y-105666094D01*
X84840897Y-105666095D01*
X84585219Y-105759154D01*
X84585215Y-105759156D01*
X84581074Y-105760663D01*
X84333058Y-105892536D01*
X84329499Y-105895122D01*
X84329497Y-105895123D01*
X84128026Y-106041500D01*
X84105808Y-106057642D01*
X83903748Y-106252769D01*
X83730812Y-106474118D01*
X83728616Y-106477922D01*
X83728611Y-106477929D01*
X83634174Y-106641500D01*
X83590364Y-106717381D01*
X83485138Y-106977824D01*
X83484073Y-106982097D01*
X83484072Y-106982099D01*
X83424784Y-107219892D01*
X83417183Y-107250376D01*
X83416724Y-107254744D01*
X83416723Y-107254749D01*
X83388359Y-107524622D01*
X83387822Y-107529733D01*
X81618500Y-107529733D01*
X81618500Y-104106371D01*
X81638502Y-104038250D01*
X81655405Y-104017276D01*
X82239332Y-103433349D01*
X82301644Y-103399323D01*
X82372459Y-103404388D01*
X82379675Y-103407337D01*
X82511677Y-103466108D01*
X82511685Y-103466111D01*
X82517712Y-103468794D01*
X82524167Y-103470166D01*
X82524176Y-103470169D01*
X82580772Y-103482199D01*
X82643669Y-103516350D01*
X82971230Y-103843911D01*
X82983616Y-103858323D01*
X82992149Y-103869918D01*
X82992154Y-103869923D01*
X82996492Y-103875818D01*
X83002070Y-103880557D01*
X83002073Y-103880560D01*
X83036768Y-103910035D01*
X83044284Y-103916965D01*
X83049979Y-103922660D01*
X83052861Y-103924940D01*
X83072251Y-103940281D01*
X83075655Y-103943072D01*
X83125703Y-103985591D01*
X83131285Y-103990333D01*
X83137801Y-103993661D01*
X83142850Y-103997028D01*
X83147979Y-104000195D01*
X83153716Y-104004734D01*
X83219875Y-104035655D01*
X83223769Y-104037558D01*
X83288808Y-104070769D01*
X83295916Y-104072508D01*
X83301559Y-104074607D01*
X83307322Y-104076524D01*
X83313950Y-104079622D01*
X83321112Y-104081112D01*
X83321113Y-104081112D01*
X83385412Y-104094486D01*
X83389696Y-104095456D01*
X83460610Y-104112808D01*
X83466212Y-104113156D01*
X83466215Y-104113156D01*
X83471764Y-104113500D01*
X83471762Y-104113536D01*
X83475755Y-104113775D01*
X83479947Y-104114149D01*
X83487115Y-104115640D01*
X83564520Y-104113546D01*
X83567928Y-104113500D01*
X83822109Y-104113500D01*
X83833310Y-104113999D01*
X83835000Y-104114150D01*
X83842165Y-104115640D01*
X83919570Y-104113546D01*
X83922978Y-104113500D01*
X84432930Y-104113500D01*
X84451880Y-104114933D01*
X84466115Y-104117099D01*
X84466119Y-104117099D01*
X84473349Y-104118199D01*
X84480641Y-104117606D01*
X84480644Y-104117606D01*
X84526018Y-104113915D01*
X84536233Y-104113500D01*
X84577930Y-104113500D01*
X84596880Y-104114933D01*
X84611115Y-104117099D01*
X84611119Y-104117099D01*
X84618349Y-104118199D01*
X84625641Y-104117606D01*
X84625644Y-104117606D01*
X84671018Y-104113915D01*
X84681233Y-104113500D01*
X84689293Y-104113500D01*
X84706680Y-104111473D01*
X84717507Y-104110211D01*
X84721882Y-104109778D01*
X84787339Y-104104454D01*
X84787342Y-104104453D01*
X84794637Y-104103860D01*
X84801601Y-104101604D01*
X84807560Y-104100413D01*
X84813415Y-104099029D01*
X84820681Y-104098182D01*
X84889327Y-104073265D01*
X84893455Y-104071848D01*
X84955936Y-104051607D01*
X84955938Y-104051606D01*
X84962899Y-104049351D01*
X84969154Y-104045555D01*
X84974628Y-104043049D01*
X84980058Y-104040330D01*
X84986937Y-104037833D01*
X84993058Y-104033820D01*
X85047976Y-103997814D01*
X85051680Y-103995477D01*
X85114107Y-103957595D01*
X85122484Y-103950197D01*
X85122508Y-103950224D01*
X85125500Y-103947571D01*
X85128733Y-103944868D01*
X85134852Y-103940856D01*
X85188128Y-103884617D01*
X85190506Y-103882175D01*
X85712558Y-103360123D01*
X85774870Y-103326097D01*
X85845685Y-103331162D01*
X85852605Y-103334189D01*
X85855846Y-103336310D01*
X86015341Y-103395626D01*
X86184015Y-103418132D01*
X86191026Y-103417494D01*
X86191030Y-103417494D01*
X86346462Y-103403348D01*
X86353483Y-103402709D01*
X86353489Y-103402775D01*
X86421227Y-103408421D01*
X86477559Y-103451632D01*
X86495678Y-103487121D01*
X86503392Y-103510935D01*
X86503395Y-103510942D01*
X86505649Y-103517899D01*
X86509444Y-103524153D01*
X86511951Y-103529628D01*
X86514670Y-103535058D01*
X86517167Y-103541937D01*
X86521180Y-103548057D01*
X86521180Y-103548058D01*
X86557186Y-103602976D01*
X86559523Y-103606680D01*
X86597405Y-103669107D01*
X86601121Y-103673315D01*
X86601122Y-103673316D01*
X86604803Y-103677484D01*
X86604776Y-103677508D01*
X86607429Y-103680500D01*
X86610132Y-103683733D01*
X86614144Y-103689852D01*
X86619456Y-103694884D01*
X86670383Y-103743128D01*
X86672825Y-103745506D01*
X90216227Y-107288907D01*
X90228613Y-107303319D01*
X90237149Y-107314917D01*
X90241492Y-107320818D01*
X90247070Y-107325557D01*
X90247073Y-107325560D01*
X90281775Y-107355041D01*
X90289291Y-107361971D01*
X90294980Y-107367660D01*
X90297834Y-107369918D01*
X90297844Y-107369927D01*
X90317242Y-107385274D01*
X90320642Y-107388062D01*
X90370707Y-107430595D01*
X90370711Y-107430598D01*
X90376285Y-107435333D01*
X90382800Y-107438660D01*
X90387837Y-107442019D01*
X90392975Y-107445192D01*
X90398716Y-107449734D01*
X90464875Y-107480655D01*
X90468769Y-107482558D01*
X90533808Y-107515769D01*
X90540917Y-107517508D01*
X90546551Y-107519604D01*
X90552321Y-107521523D01*
X90558950Y-107524622D01*
X90566113Y-107526112D01*
X90566116Y-107526113D01*
X90616830Y-107536661D01*
X90630435Y-107539491D01*
X90634701Y-107540457D01*
X90705610Y-107557808D01*
X90711212Y-107558156D01*
X90711215Y-107558156D01*
X90716764Y-107558500D01*
X90716762Y-107558535D01*
X90720734Y-107558775D01*
X90724955Y-107559152D01*
X90732115Y-107560641D01*
X90809542Y-107558546D01*
X90812950Y-107558500D01*
X92197233Y-107558500D01*
X92265354Y-107578502D01*
X92286328Y-107595405D01*
X92420224Y-107729301D01*
X92593442Y-107850589D01*
X92598420Y-107852910D01*
X92598423Y-107852912D01*
X92780108Y-107937633D01*
X92785090Y-107939956D01*
X92790398Y-107941378D01*
X92790400Y-107941379D01*
X92984030Y-107993262D01*
X92984032Y-107993262D01*
X92989345Y-107994686D01*
X93200000Y-108013116D01*
X93410655Y-107994686D01*
X93415968Y-107993262D01*
X93415970Y-107993262D01*
X93609600Y-107941379D01*
X93609602Y-107941378D01*
X93614910Y-107939956D01*
X93619892Y-107937633D01*
X93801577Y-107852912D01*
X93801580Y-107852910D01*
X93806558Y-107850589D01*
X93979776Y-107729301D01*
X94129301Y-107579776D01*
X94250589Y-107406558D01*
X94256474Y-107393939D01*
X94337633Y-107219892D01*
X94337634Y-107219891D01*
X94339956Y-107214910D01*
X94369331Y-107105283D01*
X94393262Y-107015970D01*
X94393262Y-107015968D01*
X94394686Y-107010655D01*
X94413116Y-106800000D01*
X94394686Y-106589345D01*
X94339956Y-106385090D01*
X94326928Y-106357152D01*
X94252912Y-106198423D01*
X94252910Y-106198420D01*
X94250589Y-106193442D01*
X94129301Y-106020224D01*
X93979776Y-105870699D01*
X93806558Y-105749411D01*
X93801580Y-105747090D01*
X93801577Y-105747088D01*
X93619892Y-105662367D01*
X93619891Y-105662366D01*
X93614910Y-105660044D01*
X93609602Y-105658622D01*
X93609600Y-105658621D01*
X93415970Y-105606738D01*
X93415968Y-105606738D01*
X93410655Y-105605314D01*
X93200000Y-105586884D01*
X92989345Y-105605314D01*
X92984032Y-105606738D01*
X92984030Y-105606738D01*
X92790400Y-105658621D01*
X92790398Y-105658622D01*
X92785090Y-105660044D01*
X92780109Y-105662366D01*
X92780108Y-105662367D01*
X92598423Y-105747088D01*
X92598420Y-105747090D01*
X92593442Y-105749411D01*
X92420224Y-105870699D01*
X92286328Y-106004595D01*
X92224016Y-106038621D01*
X92197233Y-106041500D01*
X91166371Y-106041500D01*
X91098250Y-106021498D01*
X91077276Y-106004595D01*
X87995405Y-102922724D01*
X87961379Y-102860412D01*
X87958500Y-102833629D01*
X87958500Y-101087952D01*
X87958999Y-101076752D01*
X87959151Y-101075048D01*
X87960641Y-101067885D01*
X87958546Y-100990458D01*
X87958500Y-100987050D01*
X87958500Y-100067069D01*
X87959933Y-100048118D01*
X87962099Y-100033883D01*
X87962099Y-100033881D01*
X87963199Y-100026651D01*
X87961813Y-100009603D01*
X87958915Y-99973982D01*
X87958500Y-99963767D01*
X87958500Y-99955707D01*
X87955211Y-99927493D01*
X87954778Y-99923118D01*
X87949454Y-99857661D01*
X87949453Y-99857658D01*
X87948860Y-99850363D01*
X87946604Y-99843399D01*
X87945413Y-99837440D01*
X87944029Y-99831585D01*
X87943182Y-99824319D01*
X87918265Y-99755673D01*
X87916848Y-99751545D01*
X87896607Y-99689064D01*
X87896606Y-99689062D01*
X87894351Y-99682101D01*
X87890555Y-99675846D01*
X87888049Y-99670372D01*
X87886844Y-99667966D01*
X91468257Y-99667966D01*
X91498565Y-99802446D01*
X91501645Y-99812275D01*
X91581770Y-100009603D01*
X91586413Y-100018794D01*
X91697694Y-100200388D01*
X91703777Y-100208699D01*
X91843213Y-100369667D01*
X91850580Y-100376883D01*
X92014434Y-100512916D01*
X92022881Y-100518831D01*
X92206756Y-100626279D01*
X92216042Y-100630729D01*
X92415001Y-100706703D01*
X92424899Y-100709579D01*
X92528250Y-100730606D01*
X92542299Y-100729410D01*
X92546000Y-100719065D01*
X92546000Y-100718517D01*
X93054000Y-100718517D01*
X93058064Y-100732359D01*
X93071478Y-100734393D01*
X93078184Y-100733534D01*
X93088262Y-100731392D01*
X93292255Y-100670191D01*
X93301842Y-100666433D01*
X93493095Y-100572739D01*
X93501945Y-100567464D01*
X93675328Y-100443792D01*
X93683200Y-100437139D01*
X93834052Y-100286812D01*
X93840730Y-100278965D01*
X93965003Y-100106020D01*
X93970313Y-100097183D01*
X94064670Y-99906267D01*
X94068469Y-99896672D01*
X94130377Y-99692910D01*
X94132555Y-99682837D01*
X94133986Y-99671962D01*
X94131775Y-99657778D01*
X94118617Y-99654000D01*
X93072115Y-99654000D01*
X93056876Y-99658475D01*
X93055671Y-99659865D01*
X93054000Y-99667548D01*
X93054000Y-100718517D01*
X92546000Y-100718517D01*
X92546000Y-99672115D01*
X92541525Y-99656876D01*
X92540135Y-99655671D01*
X92532452Y-99654000D01*
X91483225Y-99654000D01*
X91469694Y-99657973D01*
X91468257Y-99667966D01*
X87886844Y-99667966D01*
X87885330Y-99664942D01*
X87882833Y-99658063D01*
X87875628Y-99647073D01*
X87842814Y-99597024D01*
X87840467Y-99593305D01*
X87802595Y-99530893D01*
X87795197Y-99522516D01*
X87795224Y-99522492D01*
X87792571Y-99519500D01*
X87789868Y-99516267D01*
X87785856Y-99510148D01*
X87729617Y-99456872D01*
X87727175Y-99454494D01*
X87183770Y-98911089D01*
X87171384Y-98896677D01*
X87162851Y-98885082D01*
X87162846Y-98885077D01*
X87158508Y-98879182D01*
X87152930Y-98874443D01*
X87152927Y-98874440D01*
X87118232Y-98844965D01*
X87110716Y-98838035D01*
X87105021Y-98832340D01*
X87088736Y-98819456D01*
X87082749Y-98814719D01*
X87079345Y-98811928D01*
X87029297Y-98769409D01*
X87029295Y-98769408D01*
X87023715Y-98764667D01*
X87017199Y-98761339D01*
X87012150Y-98757972D01*
X87007021Y-98754805D01*
X87001284Y-98750266D01*
X86935125Y-98719345D01*
X86931225Y-98717439D01*
X86866192Y-98684231D01*
X86859084Y-98682492D01*
X86853441Y-98680393D01*
X86847678Y-98678476D01*
X86841050Y-98675378D01*
X86769583Y-98660513D01*
X86765299Y-98659543D01*
X86694390Y-98642192D01*
X86688788Y-98641844D01*
X86688785Y-98641844D01*
X86683236Y-98641500D01*
X86683238Y-98641464D01*
X86679245Y-98641225D01*
X86675053Y-98640851D01*
X86667885Y-98639360D01*
X86604120Y-98641085D01*
X86590479Y-98641454D01*
X86587072Y-98641500D01*
X82267070Y-98641500D01*
X82248120Y-98640067D01*
X82233885Y-98637901D01*
X82233881Y-98637901D01*
X82226651Y-98636801D01*
X82219359Y-98637394D01*
X82219356Y-98637394D01*
X82173982Y-98641085D01*
X82163767Y-98641500D01*
X82155707Y-98641500D01*
X82152073Y-98641924D01*
X82152067Y-98641924D01*
X82139042Y-98643443D01*
X82127480Y-98644791D01*
X82123132Y-98645221D01*
X82050364Y-98651140D01*
X82043403Y-98653395D01*
X82037463Y-98654582D01*
X82031588Y-98655971D01*
X82024319Y-98656818D01*
X81955670Y-98681736D01*
X81951542Y-98683153D01*
X81889064Y-98703393D01*
X81889062Y-98703394D01*
X81882101Y-98705649D01*
X81875846Y-98709445D01*
X81870372Y-98711951D01*
X81864942Y-98714670D01*
X81858063Y-98717167D01*
X81851943Y-98721180D01*
X81851942Y-98721180D01*
X81797024Y-98757186D01*
X81793320Y-98759523D01*
X81730893Y-98797405D01*
X81722516Y-98804803D01*
X81722492Y-98804776D01*
X81719500Y-98807429D01*
X81716267Y-98810132D01*
X81710148Y-98814144D01*
X81680951Y-98844965D01*
X81656872Y-98870383D01*
X81654494Y-98872825D01*
X80911089Y-99616230D01*
X80896677Y-99628616D01*
X80885082Y-99637149D01*
X80885077Y-99637154D01*
X80879182Y-99641492D01*
X80874443Y-99647070D01*
X80874440Y-99647073D01*
X80844965Y-99681768D01*
X80838035Y-99689284D01*
X80832340Y-99694979D01*
X80830060Y-99697861D01*
X80814719Y-99717251D01*
X80811928Y-99720655D01*
X80785685Y-99751545D01*
X80764667Y-99776285D01*
X80761339Y-99782801D01*
X80757972Y-99787850D01*
X80754805Y-99792979D01*
X80750266Y-99798716D01*
X80719345Y-99864875D01*
X80717442Y-99868769D01*
X80684231Y-99933808D01*
X80682492Y-99940916D01*
X80680393Y-99946559D01*
X80678476Y-99952322D01*
X80675378Y-99958950D01*
X80673888Y-99966112D01*
X80673888Y-99966113D01*
X80672251Y-99973982D01*
X80662931Y-100018794D01*
X80660514Y-100030412D01*
X80659544Y-100034696D01*
X80642192Y-100105610D01*
X80641500Y-100116764D01*
X80641464Y-100116762D01*
X80641225Y-100120755D01*
X80640851Y-100124947D01*
X80639360Y-100132115D01*
X80639558Y-100139432D01*
X80641454Y-100209521D01*
X80641500Y-100212928D01*
X80641500Y-101644293D01*
X80656818Y-101775681D01*
X80717167Y-101941937D01*
X80814144Y-102089852D01*
X80942547Y-102211490D01*
X81023417Y-102258463D01*
X81037068Y-102266392D01*
X81085927Y-102317903D01*
X81099181Y-102387651D01*
X81072622Y-102453493D01*
X81062878Y-102464441D01*
X80371089Y-103156230D01*
X80356677Y-103168616D01*
X80345082Y-103177149D01*
X80345077Y-103177154D01*
X80339182Y-103181492D01*
X80334443Y-103187070D01*
X80334440Y-103187073D01*
X80304965Y-103221768D01*
X80298035Y-103229284D01*
X80292340Y-103234979D01*
X80290060Y-103237861D01*
X80274719Y-103257251D01*
X80271928Y-103260655D01*
X80247803Y-103289052D01*
X80224667Y-103316285D01*
X80221339Y-103322801D01*
X80217972Y-103327850D01*
X80214805Y-103332979D01*
X80210266Y-103338716D01*
X80179345Y-103404875D01*
X80177442Y-103408769D01*
X80144231Y-103473808D01*
X80142492Y-103480916D01*
X80140393Y-103486559D01*
X80138476Y-103492322D01*
X80135378Y-103498950D01*
X80133888Y-103506112D01*
X80133888Y-103506113D01*
X80120514Y-103570412D01*
X80119544Y-103574696D01*
X80102192Y-103645610D01*
X80101500Y-103656764D01*
X80101464Y-103656762D01*
X80101225Y-103660755D01*
X80100851Y-103664947D01*
X80099360Y-103672115D01*
X80099558Y-103679432D01*
X80101454Y-103749521D01*
X80101500Y-103752928D01*
X80101500Y-106515500D01*
X80081498Y-106583621D01*
X80027842Y-106630114D01*
X79975500Y-106641500D01*
X78501866Y-106641500D01*
X78439684Y-106648255D01*
X78303295Y-106699385D01*
X78186739Y-106786739D01*
X78099385Y-106903295D01*
X78048255Y-107039684D01*
X78041500Y-107101866D01*
X78041500Y-108898134D01*
X78048255Y-108960316D01*
X78099385Y-109096705D01*
X78186739Y-109213261D01*
X78303295Y-109300615D01*
X78311704Y-109303767D01*
X78311705Y-109303768D01*
X78420451Y-109344535D01*
X78477216Y-109387176D01*
X78501916Y-109453738D01*
X78486709Y-109523087D01*
X78467316Y-109549568D01*
X78364627Y-109657026D01*
X78340629Y-109682138D01*
X78214743Y-109866680D01*
X78120688Y-110069305D01*
X78060989Y-110284570D01*
X78037251Y-110506695D01*
X77188500Y-110506695D01*
X77188500Y-97754669D01*
X91442001Y-97754669D01*
X91442371Y-97761490D01*
X91447895Y-97812352D01*
X91451521Y-97827604D01*
X91496676Y-97948054D01*
X91505214Y-97963649D01*
X91581715Y-98065724D01*
X91594276Y-98078285D01*
X91696351Y-98154786D01*
X91711946Y-98163324D01*
X91821337Y-98204333D01*
X91878101Y-98246975D01*
X91902801Y-98313536D01*
X91887594Y-98382885D01*
X91868201Y-98409366D01*
X91744590Y-98538717D01*
X91738104Y-98546727D01*
X91618098Y-98722649D01*
X91613000Y-98731623D01*
X91523338Y-98924783D01*
X91519775Y-98934470D01*
X91464389Y-99134183D01*
X91465912Y-99142607D01*
X91478292Y-99146000D01*
X92527885Y-99146000D01*
X92543124Y-99141525D01*
X92544329Y-99140135D01*
X92546000Y-99132452D01*
X92546000Y-99127885D01*
X93054000Y-99127885D01*
X93058475Y-99143124D01*
X93059865Y-99144329D01*
X93067548Y-99146000D01*
X94118344Y-99146000D01*
X94131875Y-99142027D01*
X94133180Y-99132947D01*
X94091214Y-98965875D01*
X94087894Y-98956124D01*
X94002972Y-98760814D01*
X93998105Y-98751739D01*
X93882426Y-98572926D01*
X93876136Y-98564757D01*
X93731931Y-98406279D01*
X93700879Y-98342433D01*
X93709273Y-98271934D01*
X93754450Y-98217166D01*
X93780894Y-98203497D01*
X93888054Y-98163324D01*
X93903649Y-98154786D01*
X94005724Y-98078285D01*
X94018285Y-98065724D01*
X94094786Y-97963649D01*
X94103324Y-97948054D01*
X94148478Y-97827606D01*
X94152105Y-97812351D01*
X94157631Y-97761486D01*
X94158000Y-97754672D01*
X94158000Y-97132115D01*
X94153525Y-97116876D01*
X94152135Y-97115671D01*
X94144452Y-97114000D01*
X93072115Y-97114000D01*
X93056876Y-97118475D01*
X93055671Y-97119865D01*
X93054000Y-97127548D01*
X93054000Y-99127885D01*
X92546000Y-99127885D01*
X92546000Y-97132115D01*
X92541525Y-97116876D01*
X92540135Y-97115671D01*
X92532452Y-97114000D01*
X91460116Y-97114000D01*
X91444877Y-97118475D01*
X91443672Y-97119865D01*
X91442001Y-97127548D01*
X91442001Y-97754669D01*
X77188500Y-97754669D01*
X77188500Y-84626695D01*
X78037251Y-84626695D01*
X78037548Y-84631848D01*
X78037548Y-84631851D01*
X78043011Y-84726590D01*
X78050110Y-84849715D01*
X78051247Y-84854761D01*
X78051248Y-84854767D01*
X78066624Y-84922991D01*
X78099222Y-85067639D01*
X78183266Y-85274616D01*
X78299987Y-85465088D01*
X78446250Y-85633938D01*
X78450230Y-85637242D01*
X78454981Y-85641187D01*
X78494616Y-85700090D01*
X78496113Y-85771071D01*
X78458997Y-85831593D01*
X78418724Y-85856112D01*
X78303295Y-85899385D01*
X78186739Y-85986739D01*
X78099385Y-86103295D01*
X78048255Y-86239684D01*
X78041500Y-86301866D01*
X78041500Y-88098134D01*
X78048255Y-88160316D01*
X78099385Y-88296705D01*
X78186739Y-88413261D01*
X78303295Y-88500615D01*
X78439684Y-88551745D01*
X78501866Y-88558500D01*
X80298134Y-88558500D01*
X80360316Y-88551745D01*
X80496705Y-88500615D01*
X80613261Y-88413261D01*
X80700615Y-88296705D01*
X80751745Y-88160316D01*
X80758500Y-88098134D01*
X80758500Y-87395371D01*
X80778502Y-87327250D01*
X80832158Y-87280757D01*
X80902432Y-87270653D01*
X80967012Y-87300147D01*
X80973595Y-87306276D01*
X81004595Y-87337276D01*
X81038621Y-87399588D01*
X81041500Y-87426371D01*
X81041500Y-89644293D01*
X81041925Y-89647936D01*
X81046019Y-89683058D01*
X81045434Y-89716597D01*
X81036801Y-89773349D01*
X81051140Y-89949637D01*
X81105649Y-90117899D01*
X81109445Y-90124154D01*
X81109446Y-90124157D01*
X81194496Y-90264314D01*
X81194499Y-90264318D01*
X81197405Y-90269107D01*
X81201114Y-90273306D01*
X81201117Y-90273311D01*
X81203509Y-90276019D01*
X81204803Y-90277484D01*
X82004595Y-91077276D01*
X82038621Y-91139588D01*
X82041500Y-91166371D01*
X82041500Y-92858501D01*
X82024619Y-92921500D01*
X81965473Y-93023944D01*
X81906458Y-93205572D01*
X81905768Y-93212133D01*
X81905768Y-93212135D01*
X81888790Y-93373671D01*
X81861777Y-93439327D01*
X81803555Y-93479957D01*
X81763480Y-93486500D01*
X80822070Y-93486500D01*
X80803120Y-93485067D01*
X80788885Y-93482901D01*
X80788881Y-93482901D01*
X80781651Y-93481801D01*
X80774359Y-93482394D01*
X80774356Y-93482394D01*
X80728982Y-93486085D01*
X80718767Y-93486500D01*
X80710707Y-93486500D01*
X80697417Y-93488049D01*
X80682493Y-93489789D01*
X80678118Y-93490222D01*
X80612661Y-93495546D01*
X80612658Y-93495547D01*
X80605363Y-93496140D01*
X80598399Y-93498396D01*
X80592440Y-93499587D01*
X80586585Y-93500971D01*
X80579319Y-93501818D01*
X80510673Y-93526735D01*
X80506545Y-93528152D01*
X80444064Y-93548393D01*
X80444062Y-93548394D01*
X80437101Y-93550649D01*
X80430846Y-93554445D01*
X80425372Y-93556951D01*
X80419942Y-93559670D01*
X80413063Y-93562167D01*
X80406943Y-93566180D01*
X80406942Y-93566180D01*
X80352024Y-93602186D01*
X80348320Y-93604523D01*
X80285893Y-93642405D01*
X80277516Y-93649803D01*
X80277492Y-93649776D01*
X80274500Y-93652429D01*
X80271267Y-93655132D01*
X80265148Y-93659144D01*
X80260116Y-93664456D01*
X80211872Y-93715383D01*
X80209494Y-93717825D01*
X80032340Y-93894979D01*
X79950266Y-93998716D01*
X79947167Y-94005347D01*
X79947165Y-94005350D01*
X79878477Y-94152318D01*
X79878476Y-94152322D01*
X79875378Y-94158950D01*
X79839360Y-94332115D01*
X79844143Y-94508921D01*
X79846021Y-94516003D01*
X79846021Y-94516004D01*
X79887291Y-94671651D01*
X79891500Y-94703944D01*
X79891500Y-94782930D01*
X79890067Y-94801880D01*
X79886801Y-94823349D01*
X79887394Y-94830641D01*
X79887394Y-94830644D01*
X79891085Y-94876018D01*
X79891500Y-94886233D01*
X79891500Y-94894293D01*
X79891925Y-94897937D01*
X79894789Y-94922507D01*
X79895222Y-94926882D01*
X79901140Y-94999637D01*
X79903396Y-95006601D01*
X79904587Y-95012560D01*
X79905971Y-95018415D01*
X79906818Y-95025681D01*
X79931735Y-95094327D01*
X79933152Y-95098455D01*
X79955649Y-95167899D01*
X79959445Y-95174154D01*
X79961951Y-95179628D01*
X79964670Y-95185058D01*
X79967167Y-95191937D01*
X79971180Y-95198057D01*
X79971180Y-95198058D01*
X80007186Y-95252976D01*
X80009523Y-95256680D01*
X80047405Y-95319107D01*
X80051121Y-95323315D01*
X80051122Y-95323316D01*
X80054803Y-95327484D01*
X80054776Y-95327508D01*
X80057429Y-95330500D01*
X80060132Y-95333733D01*
X80064144Y-95339852D01*
X80069456Y-95344884D01*
X80120383Y-95393128D01*
X80122825Y-95395506D01*
X81816230Y-97088911D01*
X81828616Y-97103323D01*
X81837149Y-97114918D01*
X81837154Y-97114923D01*
X81841492Y-97120818D01*
X81847070Y-97125557D01*
X81847073Y-97125560D01*
X81881768Y-97155035D01*
X81889284Y-97161965D01*
X81894980Y-97167661D01*
X81897841Y-97169924D01*
X81897846Y-97169929D01*
X81917266Y-97185293D01*
X81920667Y-97188082D01*
X81976285Y-97235333D01*
X81982798Y-97238659D01*
X81987837Y-97242020D01*
X81992979Y-97245196D01*
X81998716Y-97249734D01*
X82064875Y-97280655D01*
X82068769Y-97282558D01*
X82133808Y-97315769D01*
X82140917Y-97317508D01*
X82146551Y-97319604D01*
X82152321Y-97321523D01*
X82158950Y-97324622D01*
X82166113Y-97326112D01*
X82166116Y-97326113D01*
X82216830Y-97336661D01*
X82230435Y-97339491D01*
X82234701Y-97340457D01*
X82305610Y-97357808D01*
X82311212Y-97358156D01*
X82311215Y-97358156D01*
X82316764Y-97358500D01*
X82316762Y-97358535D01*
X82320734Y-97358775D01*
X82324955Y-97359152D01*
X82332115Y-97360641D01*
X82409542Y-97358546D01*
X82412950Y-97358500D01*
X87532930Y-97358500D01*
X87551880Y-97359933D01*
X87566115Y-97362099D01*
X87566119Y-97362099D01*
X87573349Y-97363199D01*
X87580641Y-97362606D01*
X87580644Y-97362606D01*
X87626018Y-97358915D01*
X87636233Y-97358500D01*
X87644293Y-97358500D01*
X87661680Y-97356473D01*
X87672507Y-97355211D01*
X87676882Y-97354778D01*
X87742339Y-97349454D01*
X87742342Y-97349453D01*
X87749637Y-97348860D01*
X87756601Y-97346604D01*
X87762560Y-97345413D01*
X87768415Y-97344029D01*
X87775681Y-97343182D01*
X87844327Y-97318265D01*
X87848455Y-97316848D01*
X87910936Y-97296607D01*
X87910938Y-97296606D01*
X87917899Y-97294351D01*
X87924154Y-97290555D01*
X87929628Y-97288049D01*
X87935058Y-97285330D01*
X87941937Y-97282833D01*
X87948058Y-97278820D01*
X88002976Y-97242814D01*
X88006680Y-97240477D01*
X88069107Y-97202595D01*
X88077484Y-97195197D01*
X88077508Y-97195224D01*
X88080500Y-97192571D01*
X88083733Y-97189868D01*
X88089852Y-97185856D01*
X88143128Y-97129617D01*
X88145506Y-97127175D01*
X88488911Y-96783770D01*
X88503323Y-96771384D01*
X88514918Y-96762851D01*
X88514923Y-96762846D01*
X88520818Y-96758508D01*
X88525557Y-96752930D01*
X88525560Y-96752927D01*
X88555035Y-96718232D01*
X88561965Y-96710716D01*
X88567660Y-96705021D01*
X88585281Y-96682749D01*
X88588072Y-96679345D01*
X88630591Y-96629297D01*
X88630592Y-96629295D01*
X88635333Y-96623715D01*
X88638661Y-96617199D01*
X88642028Y-96612150D01*
X88645195Y-96607021D01*
X88649734Y-96601284D01*
X88655996Y-96587885D01*
X91442000Y-96587885D01*
X91446475Y-96603124D01*
X91447865Y-96604329D01*
X91455548Y-96606000D01*
X92527885Y-96606000D01*
X92543124Y-96601525D01*
X92544329Y-96600135D01*
X92546000Y-96592452D01*
X92546000Y-96587885D01*
X93054000Y-96587885D01*
X93058475Y-96603124D01*
X93059865Y-96604329D01*
X93067548Y-96606000D01*
X94139884Y-96606000D01*
X94155123Y-96601525D01*
X94156328Y-96600135D01*
X94157999Y-96592452D01*
X94157999Y-95965331D01*
X94157629Y-95958510D01*
X94152105Y-95907648D01*
X94148479Y-95892396D01*
X94103324Y-95771946D01*
X94094786Y-95756351D01*
X94018285Y-95654276D01*
X94005724Y-95641715D01*
X93903649Y-95565214D01*
X93888054Y-95556676D01*
X93767606Y-95511522D01*
X93752351Y-95507895D01*
X93701486Y-95502369D01*
X93694672Y-95502000D01*
X93072115Y-95502000D01*
X93056876Y-95506475D01*
X93055671Y-95507865D01*
X93054000Y-95515548D01*
X93054000Y-96587885D01*
X92546000Y-96587885D01*
X92546000Y-95520116D01*
X92541525Y-95504877D01*
X92540135Y-95503672D01*
X92532452Y-95502001D01*
X91905331Y-95502001D01*
X91898510Y-95502371D01*
X91847648Y-95507895D01*
X91832396Y-95511521D01*
X91711946Y-95556676D01*
X91696351Y-95565214D01*
X91594276Y-95641715D01*
X91581715Y-95654276D01*
X91505214Y-95756351D01*
X91496676Y-95771946D01*
X91451522Y-95892394D01*
X91447895Y-95907649D01*
X91442369Y-95958514D01*
X91442000Y-95965328D01*
X91442000Y-96587885D01*
X88655996Y-96587885D01*
X88680655Y-96535125D01*
X88682561Y-96531225D01*
X88715769Y-96466192D01*
X88717508Y-96459084D01*
X88719607Y-96453441D01*
X88721524Y-96447678D01*
X88724622Y-96441050D01*
X88739487Y-96369583D01*
X88740457Y-96365299D01*
X88756473Y-96299845D01*
X88757808Y-96294390D01*
X88758500Y-96283236D01*
X88758536Y-96283238D01*
X88758775Y-96279245D01*
X88759149Y-96275053D01*
X88760640Y-96267885D01*
X88758546Y-96190479D01*
X88758500Y-96187072D01*
X88758500Y-95568453D01*
X88778502Y-95500332D01*
X88795405Y-95479358D01*
X91488911Y-92785852D01*
X91503323Y-92773466D01*
X91514918Y-92764933D01*
X91514923Y-92764928D01*
X91520818Y-92760590D01*
X91525557Y-92755012D01*
X91525560Y-92755009D01*
X91555035Y-92720314D01*
X91561965Y-92712798D01*
X91567660Y-92707103D01*
X91585281Y-92684831D01*
X91588072Y-92681427D01*
X91630591Y-92631379D01*
X91630592Y-92631377D01*
X91635333Y-92625797D01*
X91638661Y-92619281D01*
X91642028Y-92614232D01*
X91645195Y-92609103D01*
X91649734Y-92603366D01*
X91680655Y-92537207D01*
X91682561Y-92533307D01*
X91704798Y-92489759D01*
X91715769Y-92468274D01*
X91717508Y-92461166D01*
X91719607Y-92455523D01*
X91721524Y-92449760D01*
X91724622Y-92443132D01*
X91739487Y-92371665D01*
X91740457Y-92367381D01*
X91756473Y-92301927D01*
X91757808Y-92296472D01*
X91758500Y-92285318D01*
X91758536Y-92285320D01*
X91758775Y-92281327D01*
X91759149Y-92277135D01*
X91760640Y-92269967D01*
X91758546Y-92192561D01*
X91758500Y-92189154D01*
X91758500Y-87812659D01*
X91778502Y-87744538D01*
X91832158Y-87698045D01*
X91902432Y-87687941D01*
X91967012Y-87717435D01*
X91987713Y-87740388D01*
X92067925Y-87854942D01*
X92074981Y-87863350D01*
X92216650Y-88005019D01*
X92225058Y-88012075D01*
X92389189Y-88127002D01*
X92398677Y-88132479D01*
X92580273Y-88217158D01*
X92590577Y-88220908D01*
X92728503Y-88257866D01*
X92742599Y-88257530D01*
X92746000Y-88249588D01*
X92746000Y-88244439D01*
X93254000Y-88244439D01*
X93257973Y-88257970D01*
X93266522Y-88259199D01*
X93409423Y-88220908D01*
X93419727Y-88217158D01*
X93601323Y-88132479D01*
X93610811Y-88127002D01*
X93774942Y-88012075D01*
X93783350Y-88005019D01*
X93925019Y-87863350D01*
X93932075Y-87854942D01*
X94047002Y-87690811D01*
X94052479Y-87681323D01*
X94137158Y-87499727D01*
X94140908Y-87489423D01*
X94177866Y-87351497D01*
X94177530Y-87337401D01*
X94169588Y-87334000D01*
X93272115Y-87334000D01*
X93256876Y-87338475D01*
X93255671Y-87339865D01*
X93254000Y-87347548D01*
X93254000Y-88244439D01*
X92746000Y-88244439D01*
X92746000Y-86807885D01*
X93254000Y-86807885D01*
X93258475Y-86823124D01*
X93259865Y-86824329D01*
X93267548Y-86826000D01*
X94164439Y-86826000D01*
X94177970Y-86822027D01*
X94179199Y-86813478D01*
X94140908Y-86670577D01*
X94137158Y-86660273D01*
X94052478Y-86478675D01*
X94047002Y-86469189D01*
X93932075Y-86305058D01*
X93925019Y-86296650D01*
X93783350Y-86154981D01*
X93774942Y-86147925D01*
X93610811Y-86032998D01*
X93601323Y-86027521D01*
X93419727Y-85942842D01*
X93409423Y-85939092D01*
X93271497Y-85902134D01*
X93257401Y-85902470D01*
X93254000Y-85910412D01*
X93254000Y-86807885D01*
X92746000Y-86807885D01*
X92746000Y-85915561D01*
X92742027Y-85902030D01*
X92733478Y-85900801D01*
X92590577Y-85939092D01*
X92580273Y-85942842D01*
X92398677Y-86027521D01*
X92389189Y-86032998D01*
X92225058Y-86147925D01*
X92216650Y-86154981D01*
X92074981Y-86296650D01*
X92067925Y-86305058D01*
X91987713Y-86419612D01*
X91932255Y-86463940D01*
X91861636Y-86471249D01*
X91798276Y-86439218D01*
X91762291Y-86378017D01*
X91758500Y-86347341D01*
X91758500Y-83166371D01*
X91778502Y-83098250D01*
X91795405Y-83077276D01*
X91992707Y-82879974D01*
X92055019Y-82845948D01*
X92125834Y-82851013D01*
X92170897Y-82879974D01*
X92220224Y-82929301D01*
X92393442Y-83050589D01*
X92398420Y-83052910D01*
X92398423Y-83052912D01*
X92450672Y-83077276D01*
X92585090Y-83139956D01*
X92590398Y-83141378D01*
X92590400Y-83141379D01*
X92784030Y-83193262D01*
X92784032Y-83193262D01*
X92789345Y-83194686D01*
X93000000Y-83213116D01*
X93210655Y-83194686D01*
X93215968Y-83193262D01*
X93215970Y-83193262D01*
X93409600Y-83141379D01*
X93409602Y-83141378D01*
X93414910Y-83139956D01*
X93549328Y-83077276D01*
X93601577Y-83052912D01*
X93601580Y-83052910D01*
X93606558Y-83050589D01*
X93779776Y-82929301D01*
X93929301Y-82779776D01*
X94050589Y-82606558D01*
X94087553Y-82527290D01*
X94137633Y-82419892D01*
X94137634Y-82419891D01*
X94139956Y-82414910D01*
X94172092Y-82294979D01*
X94193262Y-82215970D01*
X94193262Y-82215968D01*
X94194686Y-82210655D01*
X94213116Y-82000000D01*
X94194686Y-81789345D01*
X94139956Y-81585090D01*
X94057555Y-81408381D01*
X94052912Y-81398423D01*
X94052910Y-81398420D01*
X94050589Y-81393442D01*
X93929301Y-81220224D01*
X93779776Y-81070699D01*
X93606558Y-80949411D01*
X93601580Y-80947090D01*
X93601577Y-80947088D01*
X93419892Y-80862367D01*
X93419891Y-80862366D01*
X93414910Y-80860044D01*
X93409602Y-80858622D01*
X93409600Y-80858621D01*
X93215970Y-80806738D01*
X93215968Y-80806738D01*
X93210655Y-80805314D01*
X93000000Y-80786884D01*
X92789345Y-80805314D01*
X92784032Y-80806738D01*
X92784030Y-80806738D01*
X92590400Y-80858621D01*
X92590398Y-80858622D01*
X92585090Y-80860044D01*
X92580109Y-80862366D01*
X92580108Y-80862367D01*
X92398423Y-80947088D01*
X92398420Y-80947090D01*
X92393442Y-80949411D01*
X92220224Y-81070699D01*
X92086328Y-81204595D01*
X92024016Y-81238621D01*
X91997233Y-81241500D01*
X91867070Y-81241500D01*
X91848120Y-81240067D01*
X91833885Y-81237901D01*
X91833881Y-81237901D01*
X91826651Y-81236801D01*
X91819359Y-81237394D01*
X91819356Y-81237394D01*
X91773982Y-81241085D01*
X91763767Y-81241500D01*
X91755707Y-81241500D01*
X91752073Y-81241924D01*
X91752067Y-81241924D01*
X91739042Y-81243443D01*
X91727480Y-81244791D01*
X91723132Y-81245221D01*
X91650364Y-81251140D01*
X91643403Y-81253395D01*
X91637463Y-81254582D01*
X91631588Y-81255971D01*
X91624319Y-81256818D01*
X91555670Y-81281736D01*
X91551542Y-81283153D01*
X91489064Y-81303393D01*
X91489062Y-81303394D01*
X91482101Y-81305649D01*
X91475846Y-81309445D01*
X91470372Y-81311951D01*
X91464942Y-81314670D01*
X91458063Y-81317167D01*
X91451943Y-81321180D01*
X91451942Y-81321180D01*
X91397024Y-81357186D01*
X91393320Y-81359523D01*
X91330893Y-81397405D01*
X91322516Y-81404803D01*
X91322492Y-81404776D01*
X91319500Y-81407429D01*
X91316267Y-81410132D01*
X91310148Y-81414144D01*
X91305116Y-81419456D01*
X91256872Y-81470383D01*
X91254494Y-81472825D01*
X90511089Y-82216230D01*
X90496677Y-82228616D01*
X90485082Y-82237149D01*
X90485077Y-82237154D01*
X90479182Y-82241492D01*
X90474443Y-82247070D01*
X90474440Y-82247073D01*
X90444965Y-82281768D01*
X90438035Y-82289284D01*
X90432340Y-82294979D01*
X90430060Y-82297861D01*
X90414719Y-82317251D01*
X90411928Y-82320655D01*
X90369409Y-82370703D01*
X90364667Y-82376285D01*
X90361339Y-82382801D01*
X90357972Y-82387850D01*
X90354805Y-82392979D01*
X90350266Y-82398716D01*
X90319345Y-82464875D01*
X90317442Y-82468769D01*
X90284231Y-82533808D01*
X90282492Y-82540916D01*
X90280393Y-82546559D01*
X90278476Y-82552322D01*
X90275378Y-82558950D01*
X90273888Y-82566112D01*
X90273888Y-82566113D01*
X90260514Y-82630412D01*
X90259544Y-82634696D01*
X90242192Y-82705610D01*
X90241500Y-82716764D01*
X90241464Y-82716762D01*
X90241225Y-82720755D01*
X90240851Y-82724947D01*
X90239360Y-82732115D01*
X90239558Y-82739432D01*
X90241454Y-82809521D01*
X90241500Y-82812928D01*
X90241500Y-91835711D01*
X90221498Y-91903832D01*
X90204595Y-91924806D01*
X88090136Y-94039265D01*
X88027824Y-94073291D01*
X87957009Y-94068226D01*
X87911946Y-94039265D01*
X87556037Y-93683356D01*
X87550690Y-93677668D01*
X87514845Y-93637081D01*
X87510000Y-93631595D01*
X87457313Y-93594360D01*
X87451866Y-93590284D01*
X87407028Y-93554809D01*
X87407019Y-93554804D01*
X87401284Y-93550266D01*
X87392685Y-93546247D01*
X87373323Y-93535001D01*
X87371540Y-93533741D01*
X87371538Y-93533740D01*
X87365560Y-93529515D01*
X87305695Y-93505389D01*
X87299477Y-93502684D01*
X87247686Y-93478479D01*
X87247683Y-93478478D01*
X87241050Y-93475378D01*
X87231757Y-93473445D01*
X87210321Y-93466952D01*
X87201511Y-93463402D01*
X87194274Y-93462301D01*
X87137730Y-93453699D01*
X87131022Y-93452492D01*
X87075049Y-93440850D01*
X87075048Y-93440850D01*
X87067885Y-93439360D01*
X87060570Y-93439558D01*
X87058306Y-93439356D01*
X86992232Y-93413379D01*
X86950692Y-93355804D01*
X86944730Y-93296319D01*
X86962452Y-93170221D01*
X86962452Y-93170218D01*
X86963001Y-93166313D01*
X86963299Y-93145000D01*
X86944331Y-92975892D01*
X86888368Y-92815189D01*
X86798192Y-92670879D01*
X86678286Y-92550132D01*
X86658002Y-92537259D01*
X86623406Y-92515304D01*
X86534608Y-92458951D01*
X86374300Y-92401868D01*
X86205329Y-92381720D01*
X86198326Y-92382456D01*
X86198325Y-92382456D01*
X86043101Y-92398770D01*
X86043097Y-92398771D01*
X86036093Y-92399507D01*
X85879882Y-92452685D01*
X85808951Y-92455703D01*
X85750183Y-92422502D01*
X85238770Y-91911089D01*
X85226384Y-91896677D01*
X85217851Y-91885082D01*
X85217846Y-91885077D01*
X85213508Y-91879182D01*
X85207930Y-91874443D01*
X85207927Y-91874440D01*
X85173232Y-91844965D01*
X85165716Y-91838035D01*
X85160021Y-91832340D01*
X85153880Y-91827482D01*
X85137749Y-91814719D01*
X85134345Y-91811928D01*
X85084297Y-91769409D01*
X85084295Y-91769408D01*
X85078715Y-91764667D01*
X85072199Y-91761339D01*
X85067150Y-91757972D01*
X85062021Y-91754805D01*
X85056284Y-91750266D01*
X84990125Y-91719345D01*
X84986225Y-91717439D01*
X84921192Y-91684231D01*
X84914084Y-91682492D01*
X84908441Y-91680393D01*
X84902678Y-91678476D01*
X84896050Y-91675378D01*
X84824583Y-91660513D01*
X84820299Y-91659543D01*
X84771213Y-91647532D01*
X84749390Y-91642192D01*
X84743788Y-91641844D01*
X84743785Y-91641844D01*
X84738236Y-91641500D01*
X84738238Y-91641464D01*
X84734245Y-91641225D01*
X84730053Y-91640851D01*
X84722885Y-91639360D01*
X84659120Y-91641085D01*
X84645479Y-91641454D01*
X84642072Y-91641500D01*
X83867070Y-91641500D01*
X83848120Y-91640067D01*
X83833885Y-91637901D01*
X83833881Y-91637901D01*
X83826651Y-91636801D01*
X83819359Y-91637394D01*
X83819356Y-91637394D01*
X83773982Y-91641085D01*
X83763767Y-91641500D01*
X83755707Y-91641500D01*
X83752073Y-91641924D01*
X83752067Y-91641924D01*
X83739042Y-91643443D01*
X83727480Y-91644791D01*
X83723119Y-91645222D01*
X83694713Y-91647532D01*
X83625195Y-91633118D01*
X83574506Y-91583407D01*
X83558500Y-91521947D01*
X83558500Y-90867070D01*
X83559933Y-90848120D01*
X83562099Y-90833885D01*
X83562099Y-90833881D01*
X83563199Y-90826651D01*
X83558915Y-90773982D01*
X83558500Y-90763767D01*
X83558500Y-90755707D01*
X83555209Y-90727480D01*
X83554778Y-90723121D01*
X83549454Y-90657662D01*
X83549453Y-90657659D01*
X83548860Y-90650364D01*
X83546604Y-90643400D01*
X83545417Y-90637461D01*
X83544030Y-90631590D01*
X83543182Y-90624319D01*
X83540686Y-90617443D01*
X83540684Y-90617434D01*
X83518275Y-90555702D01*
X83516865Y-90551598D01*
X83494352Y-90482101D01*
X83490556Y-90475846D01*
X83488057Y-90470387D01*
X83485329Y-90464939D01*
X83482833Y-90458063D01*
X83442805Y-90397010D01*
X83440481Y-90393327D01*
X83405500Y-90335680D01*
X83405499Y-90335679D01*
X83402595Y-90330893D01*
X83395198Y-90322517D01*
X83395225Y-90322493D01*
X83392570Y-90319499D01*
X83389868Y-90316268D01*
X83385856Y-90310148D01*
X83329617Y-90256872D01*
X83327175Y-90254494D01*
X82595405Y-89522724D01*
X82561379Y-89460412D01*
X82558500Y-89433629D01*
X82558500Y-87546733D01*
X83434822Y-87546733D01*
X83434975Y-87551121D01*
X83434975Y-87551127D01*
X83440106Y-87698045D01*
X83444625Y-87827458D01*
X83445387Y-87831781D01*
X83445388Y-87831788D01*
X83469164Y-87966624D01*
X83493402Y-88104087D01*
X83580203Y-88371235D01*
X83582131Y-88375188D01*
X83582133Y-88375193D01*
X83603325Y-88418642D01*
X83703340Y-88623702D01*
X83705795Y-88627341D01*
X83705798Y-88627347D01*
X83778890Y-88735710D01*
X83860415Y-88856576D01*
X84048371Y-89065322D01*
X84263550Y-89245879D01*
X84501764Y-89394731D01*
X84758375Y-89508982D01*
X85028390Y-89586407D01*
X85032740Y-89587018D01*
X85032743Y-89587019D01*
X85135690Y-89601487D01*
X85306552Y-89625500D01*
X85517146Y-89625500D01*
X85519332Y-89625347D01*
X85519336Y-89625347D01*
X85722827Y-89611118D01*
X85722832Y-89611117D01*
X85727212Y-89610811D01*
X86001970Y-89552409D01*
X86006099Y-89550906D01*
X86006103Y-89550905D01*
X86261781Y-89457846D01*
X86261785Y-89457844D01*
X86265926Y-89456337D01*
X86513942Y-89324464D01*
X86618896Y-89248211D01*
X86737629Y-89161947D01*
X86737632Y-89161944D01*
X86741192Y-89159358D01*
X86943252Y-88964231D01*
X87116188Y-88742882D01*
X87118384Y-88739078D01*
X87118389Y-88739071D01*
X87254435Y-88503431D01*
X87256636Y-88499619D01*
X87361862Y-88239176D01*
X87396181Y-88101531D01*
X87428753Y-87970893D01*
X87428754Y-87970888D01*
X87429817Y-87966624D01*
X87440672Y-87863350D01*
X87458719Y-87691636D01*
X87458719Y-87691633D01*
X87459178Y-87687267D01*
X87459025Y-87682873D01*
X87449529Y-87410939D01*
X87449528Y-87410933D01*
X87449375Y-87406542D01*
X87447406Y-87395371D01*
X87401360Y-87134236D01*
X87400598Y-87129913D01*
X87313797Y-86862765D01*
X87295866Y-86826000D01*
X87220060Y-86670577D01*
X87190660Y-86610298D01*
X87188205Y-86606659D01*
X87188202Y-86606653D01*
X87101879Y-86478675D01*
X87033585Y-86377424D01*
X86845629Y-86168678D01*
X86630450Y-85988121D01*
X86392236Y-85839269D01*
X86135625Y-85725018D01*
X85865610Y-85647593D01*
X85861260Y-85646982D01*
X85861257Y-85646981D01*
X85740649Y-85630031D01*
X85587448Y-85608500D01*
X85376854Y-85608500D01*
X85374668Y-85608653D01*
X85374664Y-85608653D01*
X85171173Y-85622882D01*
X85171168Y-85622883D01*
X85166788Y-85623189D01*
X84892030Y-85681591D01*
X84887901Y-85683094D01*
X84887897Y-85683095D01*
X84632219Y-85776154D01*
X84632215Y-85776156D01*
X84628074Y-85777663D01*
X84380058Y-85909536D01*
X84376499Y-85912122D01*
X84376497Y-85912123D01*
X84217665Y-86027521D01*
X84152808Y-86074642D01*
X83950748Y-86269769D01*
X83777812Y-86491118D01*
X83775616Y-86494922D01*
X83775611Y-86494929D01*
X83683081Y-86655197D01*
X83637364Y-86734381D01*
X83532138Y-86994824D01*
X83531073Y-86999097D01*
X83531072Y-86999099D01*
X83497379Y-87134236D01*
X83464183Y-87267376D01*
X83463724Y-87271744D01*
X83463723Y-87271749D01*
X83450730Y-87395371D01*
X83434822Y-87546733D01*
X82558500Y-87546733D01*
X82558500Y-87127070D01*
X82559933Y-87108120D01*
X82562099Y-87093885D01*
X82562099Y-87093881D01*
X82563199Y-87086651D01*
X82558915Y-87033982D01*
X82558500Y-87023767D01*
X82558500Y-87015707D01*
X82555209Y-86987480D01*
X82554778Y-86983121D01*
X82549454Y-86917662D01*
X82549453Y-86917659D01*
X82548860Y-86910364D01*
X82546604Y-86903400D01*
X82545417Y-86897461D01*
X82544030Y-86891590D01*
X82543182Y-86884319D01*
X82540686Y-86877443D01*
X82540684Y-86877434D01*
X82518275Y-86815702D01*
X82516865Y-86811598D01*
X82494352Y-86742101D01*
X82490556Y-86735846D01*
X82488057Y-86730387D01*
X82485329Y-86724939D01*
X82482833Y-86718063D01*
X82442805Y-86657010D01*
X82440481Y-86653327D01*
X82405500Y-86595680D01*
X82405499Y-86595679D01*
X82402595Y-86590893D01*
X82395198Y-86582517D01*
X82395225Y-86582493D01*
X82392570Y-86579499D01*
X82389868Y-86576268D01*
X82385856Y-86570148D01*
X82329617Y-86516872D01*
X82327175Y-86514494D01*
X80779609Y-84966928D01*
X80745583Y-84904616D01*
X80743782Y-84861389D01*
X80761529Y-84726590D01*
X80763156Y-84660000D01*
X80744852Y-84437361D01*
X80690431Y-84220702D01*
X80601354Y-84015840D01*
X80480014Y-83828277D01*
X80329670Y-83663051D01*
X80325619Y-83659852D01*
X80325615Y-83659848D01*
X80158414Y-83527800D01*
X80158410Y-83527798D01*
X80154359Y-83524598D01*
X79958789Y-83416638D01*
X79953920Y-83414914D01*
X79953916Y-83414912D01*
X79753087Y-83343795D01*
X79753083Y-83343794D01*
X79748212Y-83342069D01*
X79743119Y-83341162D01*
X79743116Y-83341161D01*
X79533373Y-83303800D01*
X79533367Y-83303799D01*
X79528284Y-83302894D01*
X79454452Y-83301992D01*
X79310081Y-83300228D01*
X79310079Y-83300228D01*
X79304911Y-83300165D01*
X79084091Y-83333955D01*
X78871756Y-83403357D01*
X78673607Y-83506507D01*
X78669474Y-83509610D01*
X78669471Y-83509612D01*
X78645247Y-83527800D01*
X78494965Y-83640635D01*
X78340629Y-83802138D01*
X78214743Y-83986680D01*
X78120688Y-84189305D01*
X78060989Y-84404570D01*
X78037251Y-84626695D01*
X77188500Y-84626695D01*
X77188500Y-79222406D01*
X77208502Y-79154285D01*
X77262158Y-79107792D01*
X77332432Y-79097688D01*
X77396330Y-79126595D01*
X77506818Y-79220960D01*
X77506822Y-79220963D01*
X77510584Y-79224176D01*
X77514792Y-79226755D01*
X77514798Y-79226759D01*
X77708817Y-79345654D01*
X77713037Y-79348240D01*
X77717607Y-79350133D01*
X77717611Y-79350135D01*
X77879143Y-79417043D01*
X77932406Y-79439105D01*
X77980349Y-79450615D01*
X78158476Y-79493380D01*
X78158482Y-79493381D01*
X78163289Y-79494535D01*
X78400000Y-79513165D01*
X78636711Y-79494535D01*
X78641518Y-79493381D01*
X78641524Y-79493380D01*
X78819651Y-79450615D01*
X78867594Y-79439105D01*
X78920857Y-79417043D01*
X79082389Y-79350135D01*
X79082393Y-79350133D01*
X79086963Y-79348240D01*
X79091183Y-79345654D01*
X79285202Y-79226759D01*
X79285208Y-79226755D01*
X79289416Y-79224176D01*
X79469969Y-79069969D01*
X79624176Y-78889416D01*
X79626755Y-78885208D01*
X79626759Y-78885202D01*
X79745654Y-78691183D01*
X79748240Y-78686963D01*
X79839105Y-78467594D01*
X79894535Y-78236711D01*
X79913165Y-78000000D01*
X79894535Y-77763289D01*
X79839105Y-77532406D01*
X79748240Y-77313037D01*
X79726713Y-77277908D01*
X79626759Y-77114798D01*
X79626755Y-77114792D01*
X79624176Y-77110584D01*
X79469969Y-76930031D01*
X79289416Y-76775824D01*
X79285208Y-76773245D01*
X79285202Y-76773241D01*
X79091183Y-76654346D01*
X79086963Y-76651760D01*
X79082393Y-76649867D01*
X79082389Y-76649865D01*
X78872167Y-76562789D01*
X78872165Y-76562788D01*
X78867594Y-76560895D01*
X78757405Y-76534441D01*
X78641524Y-76506620D01*
X78641518Y-76506619D01*
X78636711Y-76505465D01*
X78400000Y-76486835D01*
X78163289Y-76505465D01*
X78158482Y-76506619D01*
X78158476Y-76506620D01*
X78042595Y-76534441D01*
X77932406Y-76560895D01*
X77927835Y-76562788D01*
X77927833Y-76562789D01*
X77717611Y-76649865D01*
X77717607Y-76649867D01*
X77713037Y-76651760D01*
X77708814Y-76654348D01*
X77695558Y-76662471D01*
X77627025Y-76681010D01*
X77559348Y-76659554D01*
X77514014Y-76604916D01*
X77505417Y-76534441D01*
X77524957Y-76485037D01*
X77603713Y-76367171D01*
X77613746Y-76354095D01*
X77778068Y-76166722D01*
X77789722Y-76155068D01*
X77977095Y-75990746D01*
X77990171Y-75980713D01*
X78197384Y-75842257D01*
X78211658Y-75834016D01*
X78435174Y-75723791D01*
X78450400Y-75717484D01*
X78686394Y-75637375D01*
X78702304Y-75633112D01*
X78824523Y-75608801D01*
X78946738Y-75584491D01*
X78963078Y-75582340D01*
X79116098Y-75572310D01*
X79178237Y-75568237D01*
X79201349Y-75569267D01*
X79204854Y-75569310D01*
X79213724Y-75570691D01*
X79222625Y-75569527D01*
X79222629Y-75569527D01*
X79245215Y-75566573D01*
X79261581Y-75565509D01*
X92610589Y-75568489D01*
G37*
%TD.AperFunction*%
%TD*%
M02*
