%TF.GenerationSoftware,KiCad,Pcbnew,(6.0.8-1)-1*%
%TF.CreationDate,2023-05-30T17:25:48-07:00*%
%TF.ProjectId,SiPM_breakout,5369504d-5f62-4726-9561-6b6f75742e6b,rev?*%
%TF.SameCoordinates,Original*%
%TF.FileFunction,Drillmap*%
%TF.FilePolarity,Positive*%
%FSLAX45Y45*%
G04 Gerber Fmt 4.5, Leading zero omitted, Abs format (unit mm)*
G04 Created by KiCad (PCBNEW (6.0.8-1)-1) date 2023-05-30 17:25:48*
%MOMM*%
%LPD*%
G01*
G04 APERTURE LIST*
%ADD10C,0.050000*%
%ADD11C,0.200000*%
%ADD12C,0.040000*%
%ADD13C,0.070000*%
%ADD14C,0.100000*%
G04 APERTURE END LIST*
D10*
X9520000Y-7760000D02*
X9520000Y-11811300D01*
X7922000Y-7505700D02*
X9266000Y-7506000D01*
X9266000Y-12065300D02*
X7922000Y-12065000D01*
X7922000Y-7505700D02*
G75*
G03*
X7668000Y-7759700I0J-254000D01*
G01*
X9520000Y-7760000D02*
G75*
G03*
X9266000Y-7506000I-254000J0D01*
G01*
X7668000Y-11811000D02*
G75*
G03*
X7922000Y-12065000I254000J0D01*
G01*
X9266000Y-12065300D02*
G75*
G03*
X9520000Y-11811300I0J254000D01*
G01*
X7668000Y-11811000D02*
X7668000Y-7759700D01*
D11*
D12*
X7820000Y-11340000D02*
X7860000Y-11380000D01*
X7860000Y-11340000D02*
X7820000Y-11380000D01*
X7920000Y-9480000D02*
X7960000Y-9520000D01*
X7960000Y-9480000D02*
X7920000Y-9520000D01*
X7974062Y-10005983D02*
X8014062Y-10045983D01*
X8014062Y-10005983D02*
X7974062Y-10045983D01*
X8089965Y-9270035D02*
X8129965Y-9310035D01*
X8129965Y-9270035D02*
X8089965Y-9310035D01*
X8160000Y-9140000D02*
X8200000Y-9180000D01*
X8200000Y-9140000D02*
X8160000Y-9180000D01*
X8200000Y-10440000D02*
X8240000Y-10480000D01*
X8240000Y-10440000D02*
X8200000Y-10480000D01*
X8200000Y-10980000D02*
X8240000Y-11020000D01*
X8240000Y-10980000D02*
X8200000Y-11020000D01*
X8240000Y-8520000D02*
X8280000Y-8560000D01*
X8280000Y-8520000D02*
X8240000Y-8560000D01*
X8260000Y-9319550D02*
X8300000Y-9359550D01*
X8300000Y-9319550D02*
X8260000Y-9359550D01*
X8260000Y-9520000D02*
X8300000Y-9560000D01*
X8300000Y-9520000D02*
X8260000Y-9560000D01*
X8260000Y-10020000D02*
X8300000Y-10060000D01*
X8300000Y-10020000D02*
X8260000Y-10060000D01*
X8260000Y-10240000D02*
X8300000Y-10280000D01*
X8300000Y-10240000D02*
X8260000Y-10280000D01*
X8505000Y-9780000D02*
X8545000Y-9820000D01*
X8545000Y-9780000D02*
X8505000Y-9820000D01*
X8840000Y-9320000D02*
X8880000Y-9360000D01*
X8880000Y-9320000D02*
X8840000Y-9360000D01*
X8840000Y-10280000D02*
X8880000Y-10320000D01*
X8880000Y-10280000D02*
X8840000Y-10320000D01*
D13*
X9335000Y-8200000D02*
G75*
G03*
X9335000Y-8200000I-35000J0D01*
G01*
X9335000Y-8708000D02*
G75*
G03*
X9335000Y-8708000I-35000J0D01*
G01*
X9355000Y-10680000D02*
G75*
G03*
X9355000Y-10680000I-35000J0D01*
G01*
X9355000Y-11188000D02*
G75*
G03*
X9355000Y-11188000I-35000J0D01*
G01*
D14*
X7840000Y-7750000D02*
X7840000Y-7850000D01*
X7790000Y-7800000D02*
X7890000Y-7800000D01*
X7840000Y-11714250D02*
X7840000Y-11814250D01*
X7790000Y-11764250D02*
X7890000Y-11764250D01*
X7940000Y-8416000D02*
X7940000Y-8516000D01*
X7890000Y-8466000D02*
X7990000Y-8466000D01*
X7940000Y-8670000D02*
X7940000Y-8770000D01*
X7890000Y-8720000D02*
X7990000Y-8720000D01*
X7940000Y-10750000D02*
X7940000Y-10850000D01*
X7890000Y-10800000D02*
X7990000Y-10800000D01*
X7940000Y-11004000D02*
X7940000Y-11104000D01*
X7890000Y-11054000D02*
X7990000Y-11054000D01*
X9280000Y-9636000D02*
X9280000Y-9736000D01*
X9230000Y-9686000D02*
X9330000Y-9686000D01*
X9280000Y-9890000D02*
X9280000Y-9990000D01*
X9230000Y-9940000D02*
X9330000Y-9940000D01*
X9340000Y-7750000D02*
X9340000Y-7850000D01*
X9290000Y-7800000D02*
X9390000Y-7800000D01*
X9340000Y-11714250D02*
X9340000Y-11814250D01*
X9290000Y-11764250D02*
X9390000Y-11764250D01*
D11*
X7923119Y-12378276D02*
X7923119Y-12178276D01*
X7970738Y-12178276D01*
X7999309Y-12187800D01*
X8018357Y-12206848D01*
X8027881Y-12225895D01*
X8037405Y-12263990D01*
X8037405Y-12292562D01*
X8027881Y-12330657D01*
X8018357Y-12349705D01*
X7999309Y-12368752D01*
X7970738Y-12378276D01*
X7923119Y-12378276D01*
X8123119Y-12378276D02*
X8123119Y-12244943D01*
X8123119Y-12283038D02*
X8132643Y-12263990D01*
X8142167Y-12254467D01*
X8161214Y-12244943D01*
X8180262Y-12244943D01*
X8246928Y-12378276D02*
X8246928Y-12244943D01*
X8246928Y-12178276D02*
X8237405Y-12187800D01*
X8246928Y-12197324D01*
X8256452Y-12187800D01*
X8246928Y-12178276D01*
X8246928Y-12197324D01*
X8370738Y-12378276D02*
X8351690Y-12368752D01*
X8342167Y-12349705D01*
X8342167Y-12178276D01*
X8475500Y-12378276D02*
X8456452Y-12368752D01*
X8446929Y-12349705D01*
X8446929Y-12178276D01*
X8704071Y-12378276D02*
X8704071Y-12178276D01*
X8770738Y-12321133D01*
X8837405Y-12178276D01*
X8837405Y-12378276D01*
X9018357Y-12378276D02*
X9018357Y-12273514D01*
X9008833Y-12254467D01*
X8989786Y-12244943D01*
X8951690Y-12244943D01*
X8932643Y-12254467D01*
X9018357Y-12368752D02*
X8999310Y-12378276D01*
X8951690Y-12378276D01*
X8932643Y-12368752D01*
X8923119Y-12349705D01*
X8923119Y-12330657D01*
X8932643Y-12311609D01*
X8951690Y-12302086D01*
X8999310Y-12302086D01*
X9018357Y-12292562D01*
X9113595Y-12244943D02*
X9113595Y-12444943D01*
X9113595Y-12254467D02*
X9132643Y-12244943D01*
X9170738Y-12244943D01*
X9189786Y-12254467D01*
X9199310Y-12263990D01*
X9208833Y-12283038D01*
X9208833Y-12340181D01*
X9199310Y-12359228D01*
X9189786Y-12368752D01*
X9170738Y-12378276D01*
X9132643Y-12378276D01*
X9113595Y-12368752D01*
X9294548Y-12359228D02*
X9304071Y-12368752D01*
X9294548Y-12378276D01*
X9285024Y-12368752D01*
X9294548Y-12359228D01*
X9294548Y-12378276D01*
X9294548Y-12254467D02*
X9304071Y-12263990D01*
X9294548Y-12273514D01*
X9285024Y-12263990D01*
X9294548Y-12254467D01*
X9294548Y-12273514D01*
D12*
X7625500Y-12687800D02*
X7665500Y-12727800D01*
X7665500Y-12687800D02*
X7625500Y-12727800D01*
D11*
X7961214Y-12598276D02*
X7980262Y-12598276D01*
X7999309Y-12607800D01*
X8008833Y-12617324D01*
X8018357Y-12636371D01*
X8027881Y-12674467D01*
X8027881Y-12722086D01*
X8018357Y-12760181D01*
X8008833Y-12779228D01*
X7999309Y-12788752D01*
X7980262Y-12798276D01*
X7961214Y-12798276D01*
X7942167Y-12788752D01*
X7932643Y-12779228D01*
X7923119Y-12760181D01*
X7913595Y-12722086D01*
X7913595Y-12674467D01*
X7923119Y-12636371D01*
X7932643Y-12617324D01*
X7942167Y-12607800D01*
X7961214Y-12598276D01*
X8113595Y-12779228D02*
X8123119Y-12788752D01*
X8113595Y-12798276D01*
X8104071Y-12788752D01*
X8113595Y-12779228D01*
X8113595Y-12798276D01*
X8294548Y-12664943D02*
X8294548Y-12798276D01*
X8246928Y-12588752D02*
X8199309Y-12731609D01*
X8323119Y-12731609D01*
X8437405Y-12598276D02*
X8456452Y-12598276D01*
X8475500Y-12607800D01*
X8485024Y-12617324D01*
X8494548Y-12636371D01*
X8504071Y-12674467D01*
X8504071Y-12722086D01*
X8494548Y-12760181D01*
X8485024Y-12779228D01*
X8475500Y-12788752D01*
X8456452Y-12798276D01*
X8437405Y-12798276D01*
X8418357Y-12788752D01*
X8408833Y-12779228D01*
X8399310Y-12760181D01*
X8389786Y-12722086D01*
X8389786Y-12674467D01*
X8399310Y-12636371D01*
X8408833Y-12617324D01*
X8418357Y-12607800D01*
X8437405Y-12598276D01*
X8627881Y-12598276D02*
X8646929Y-12598276D01*
X8665976Y-12607800D01*
X8675500Y-12617324D01*
X8685024Y-12636371D01*
X8694548Y-12674467D01*
X8694548Y-12722086D01*
X8685024Y-12760181D01*
X8675500Y-12779228D01*
X8665976Y-12788752D01*
X8646929Y-12798276D01*
X8627881Y-12798276D01*
X8608833Y-12788752D01*
X8599310Y-12779228D01*
X8589786Y-12760181D01*
X8580262Y-12722086D01*
X8580262Y-12674467D01*
X8589786Y-12636371D01*
X8599310Y-12617324D01*
X8608833Y-12607800D01*
X8627881Y-12598276D01*
X8780262Y-12798276D02*
X8780262Y-12664943D01*
X8780262Y-12683990D02*
X8789786Y-12674467D01*
X8808833Y-12664943D01*
X8837405Y-12664943D01*
X8856452Y-12674467D01*
X8865976Y-12693514D01*
X8865976Y-12798276D01*
X8865976Y-12693514D02*
X8875500Y-12674467D01*
X8894548Y-12664943D01*
X8923119Y-12664943D01*
X8942167Y-12674467D01*
X8951690Y-12693514D01*
X8951690Y-12798276D01*
X9046929Y-12798276D02*
X9046929Y-12664943D01*
X9046929Y-12683990D02*
X9056452Y-12674467D01*
X9075500Y-12664943D01*
X9104071Y-12664943D01*
X9123119Y-12674467D01*
X9132643Y-12693514D01*
X9132643Y-12798276D01*
X9132643Y-12693514D02*
X9142167Y-12674467D01*
X9161214Y-12664943D01*
X9189786Y-12664943D01*
X9208833Y-12674467D01*
X9218357Y-12693514D01*
X9218357Y-12798276D01*
X9608833Y-12588752D02*
X9437405Y-12845895D01*
X9865976Y-12598276D02*
X9885024Y-12598276D01*
X9904071Y-12607800D01*
X9913595Y-12617324D01*
X9923119Y-12636371D01*
X9932643Y-12674467D01*
X9932643Y-12722086D01*
X9923119Y-12760181D01*
X9913595Y-12779228D01*
X9904071Y-12788752D01*
X9885024Y-12798276D01*
X9865976Y-12798276D01*
X9846929Y-12788752D01*
X9837405Y-12779228D01*
X9827881Y-12760181D01*
X9818357Y-12722086D01*
X9818357Y-12674467D01*
X9827881Y-12636371D01*
X9837405Y-12617324D01*
X9846929Y-12607800D01*
X9865976Y-12598276D01*
X10018357Y-12779228D02*
X10027881Y-12788752D01*
X10018357Y-12798276D01*
X10008833Y-12788752D01*
X10018357Y-12779228D01*
X10018357Y-12798276D01*
X10151690Y-12598276D02*
X10170738Y-12598276D01*
X10189786Y-12607800D01*
X10199310Y-12617324D01*
X10208833Y-12636371D01*
X10218357Y-12674467D01*
X10218357Y-12722086D01*
X10208833Y-12760181D01*
X10199310Y-12779228D01*
X10189786Y-12788752D01*
X10170738Y-12798276D01*
X10151690Y-12798276D01*
X10132643Y-12788752D01*
X10123119Y-12779228D01*
X10113595Y-12760181D01*
X10104071Y-12722086D01*
X10104071Y-12674467D01*
X10113595Y-12636371D01*
X10123119Y-12617324D01*
X10132643Y-12607800D01*
X10151690Y-12598276D01*
X10408833Y-12798276D02*
X10294548Y-12798276D01*
X10351690Y-12798276D02*
X10351690Y-12598276D01*
X10332643Y-12626848D01*
X10313595Y-12645895D01*
X10294548Y-12655419D01*
X10589786Y-12598276D02*
X10494548Y-12598276D01*
X10485024Y-12693514D01*
X10494548Y-12683990D01*
X10513595Y-12674467D01*
X10561214Y-12674467D01*
X10580262Y-12683990D01*
X10589786Y-12693514D01*
X10599310Y-12712562D01*
X10599310Y-12760181D01*
X10589786Y-12779228D01*
X10580262Y-12788752D01*
X10561214Y-12798276D01*
X10513595Y-12798276D01*
X10494548Y-12788752D01*
X10485024Y-12779228D01*
X10665976Y-12598276D02*
X10799310Y-12598276D01*
X10713595Y-12798276D01*
X10865976Y-12598276D02*
X10865976Y-12636371D01*
X10942167Y-12598276D02*
X10942167Y-12636371D01*
X11237405Y-12874467D02*
X11227881Y-12864943D01*
X11208833Y-12836371D01*
X11199309Y-12817324D01*
X11189786Y-12788752D01*
X11180262Y-12741133D01*
X11180262Y-12703038D01*
X11189786Y-12655419D01*
X11199309Y-12626848D01*
X11208833Y-12607800D01*
X11227881Y-12579228D01*
X11237405Y-12569705D01*
X11418357Y-12798276D02*
X11304071Y-12798276D01*
X11361214Y-12798276D02*
X11361214Y-12598276D01*
X11342167Y-12626848D01*
X11323119Y-12645895D01*
X11304071Y-12655419D01*
X11599309Y-12598276D02*
X11504071Y-12598276D01*
X11494548Y-12693514D01*
X11504071Y-12683990D01*
X11523119Y-12674467D01*
X11570738Y-12674467D01*
X11589786Y-12683990D01*
X11599309Y-12693514D01*
X11608833Y-12712562D01*
X11608833Y-12760181D01*
X11599309Y-12779228D01*
X11589786Y-12788752D01*
X11570738Y-12798276D01*
X11523119Y-12798276D01*
X11504071Y-12788752D01*
X11494548Y-12779228D01*
X11846928Y-12798276D02*
X11846928Y-12598276D01*
X11932643Y-12798276D02*
X11932643Y-12693514D01*
X11923119Y-12674467D01*
X11904071Y-12664943D01*
X11875500Y-12664943D01*
X11856452Y-12674467D01*
X11846928Y-12683990D01*
X12056452Y-12798276D02*
X12037405Y-12788752D01*
X12027881Y-12779228D01*
X12018357Y-12760181D01*
X12018357Y-12703038D01*
X12027881Y-12683990D01*
X12037405Y-12674467D01*
X12056452Y-12664943D01*
X12085024Y-12664943D01*
X12104071Y-12674467D01*
X12113595Y-12683990D01*
X12123119Y-12703038D01*
X12123119Y-12760181D01*
X12113595Y-12779228D01*
X12104071Y-12788752D01*
X12085024Y-12798276D01*
X12056452Y-12798276D01*
X12237405Y-12798276D02*
X12218357Y-12788752D01*
X12208833Y-12769705D01*
X12208833Y-12598276D01*
X12389786Y-12788752D02*
X12370738Y-12798276D01*
X12332643Y-12798276D01*
X12313595Y-12788752D01*
X12304071Y-12769705D01*
X12304071Y-12693514D01*
X12313595Y-12674467D01*
X12332643Y-12664943D01*
X12370738Y-12664943D01*
X12389786Y-12674467D01*
X12399309Y-12693514D01*
X12399309Y-12712562D01*
X12304071Y-12731609D01*
X12475500Y-12788752D02*
X12494548Y-12798276D01*
X12532643Y-12798276D01*
X12551690Y-12788752D01*
X12561214Y-12769705D01*
X12561214Y-12760181D01*
X12551690Y-12741133D01*
X12532643Y-12731609D01*
X12504071Y-12731609D01*
X12485024Y-12722086D01*
X12475500Y-12703038D01*
X12475500Y-12693514D01*
X12485024Y-12674467D01*
X12504071Y-12664943D01*
X12532643Y-12664943D01*
X12551690Y-12674467D01*
X12627881Y-12874467D02*
X12637405Y-12864943D01*
X12656452Y-12836371D01*
X12665976Y-12817324D01*
X12675500Y-12788752D01*
X12685024Y-12741133D01*
X12685024Y-12703038D01*
X12675500Y-12655419D01*
X12665976Y-12626848D01*
X12656452Y-12607800D01*
X12637405Y-12579228D01*
X12627881Y-12569705D01*
D13*
X7665500Y-12971800D02*
G75*
G03*
X7665500Y-12971800I-35000J0D01*
G01*
D11*
X7961214Y-12862276D02*
X7980262Y-12862276D01*
X7999309Y-12871800D01*
X8008833Y-12881324D01*
X8018357Y-12900371D01*
X8027881Y-12938467D01*
X8027881Y-12986086D01*
X8018357Y-13024181D01*
X8008833Y-13043228D01*
X7999309Y-13052752D01*
X7980262Y-13062276D01*
X7961214Y-13062276D01*
X7942167Y-13052752D01*
X7932643Y-13043228D01*
X7923119Y-13024181D01*
X7913595Y-12986086D01*
X7913595Y-12938467D01*
X7923119Y-12900371D01*
X7932643Y-12881324D01*
X7942167Y-12871800D01*
X7961214Y-12862276D01*
X8113595Y-13043228D02*
X8123119Y-13052752D01*
X8113595Y-13062276D01*
X8104071Y-13052752D01*
X8113595Y-13043228D01*
X8113595Y-13062276D01*
X8189786Y-12862276D02*
X8323119Y-12862276D01*
X8237405Y-13062276D01*
X8437405Y-12862276D02*
X8456452Y-12862276D01*
X8475500Y-12871800D01*
X8485024Y-12881324D01*
X8494548Y-12900371D01*
X8504071Y-12938467D01*
X8504071Y-12986086D01*
X8494548Y-13024181D01*
X8485024Y-13043228D01*
X8475500Y-13052752D01*
X8456452Y-13062276D01*
X8437405Y-13062276D01*
X8418357Y-13052752D01*
X8408833Y-13043228D01*
X8399310Y-13024181D01*
X8389786Y-12986086D01*
X8389786Y-12938467D01*
X8399310Y-12900371D01*
X8408833Y-12881324D01*
X8418357Y-12871800D01*
X8437405Y-12862276D01*
X8627881Y-12862276D02*
X8646929Y-12862276D01*
X8665976Y-12871800D01*
X8675500Y-12881324D01*
X8685024Y-12900371D01*
X8694548Y-12938467D01*
X8694548Y-12986086D01*
X8685024Y-13024181D01*
X8675500Y-13043228D01*
X8665976Y-13052752D01*
X8646929Y-13062276D01*
X8627881Y-13062276D01*
X8608833Y-13052752D01*
X8599310Y-13043228D01*
X8589786Y-13024181D01*
X8580262Y-12986086D01*
X8580262Y-12938467D01*
X8589786Y-12900371D01*
X8599310Y-12881324D01*
X8608833Y-12871800D01*
X8627881Y-12862276D01*
X8780262Y-13062276D02*
X8780262Y-12928943D01*
X8780262Y-12947990D02*
X8789786Y-12938467D01*
X8808833Y-12928943D01*
X8837405Y-12928943D01*
X8856452Y-12938467D01*
X8865976Y-12957514D01*
X8865976Y-13062276D01*
X8865976Y-12957514D02*
X8875500Y-12938467D01*
X8894548Y-12928943D01*
X8923119Y-12928943D01*
X8942167Y-12938467D01*
X8951690Y-12957514D01*
X8951690Y-13062276D01*
X9046929Y-13062276D02*
X9046929Y-12928943D01*
X9046929Y-12947990D02*
X9056452Y-12938467D01*
X9075500Y-12928943D01*
X9104071Y-12928943D01*
X9123119Y-12938467D01*
X9132643Y-12957514D01*
X9132643Y-13062276D01*
X9132643Y-12957514D02*
X9142167Y-12938467D01*
X9161214Y-12928943D01*
X9189786Y-12928943D01*
X9208833Y-12938467D01*
X9218357Y-12957514D01*
X9218357Y-13062276D01*
X9608833Y-12852752D02*
X9437405Y-13109895D01*
X9865976Y-12862276D02*
X9885024Y-12862276D01*
X9904071Y-12871800D01*
X9913595Y-12881324D01*
X9923119Y-12900371D01*
X9932643Y-12938467D01*
X9932643Y-12986086D01*
X9923119Y-13024181D01*
X9913595Y-13043228D01*
X9904071Y-13052752D01*
X9885024Y-13062276D01*
X9865976Y-13062276D01*
X9846929Y-13052752D01*
X9837405Y-13043228D01*
X9827881Y-13024181D01*
X9818357Y-12986086D01*
X9818357Y-12938467D01*
X9827881Y-12900371D01*
X9837405Y-12881324D01*
X9846929Y-12871800D01*
X9865976Y-12862276D01*
X10018357Y-13043228D02*
X10027881Y-13052752D01*
X10018357Y-13062276D01*
X10008833Y-13052752D01*
X10018357Y-13043228D01*
X10018357Y-13062276D01*
X10151690Y-12862276D02*
X10170738Y-12862276D01*
X10189786Y-12871800D01*
X10199310Y-12881324D01*
X10208833Y-12900371D01*
X10218357Y-12938467D01*
X10218357Y-12986086D01*
X10208833Y-13024181D01*
X10199310Y-13043228D01*
X10189786Y-13052752D01*
X10170738Y-13062276D01*
X10151690Y-13062276D01*
X10132643Y-13052752D01*
X10123119Y-13043228D01*
X10113595Y-13024181D01*
X10104071Y-12986086D01*
X10104071Y-12938467D01*
X10113595Y-12900371D01*
X10123119Y-12881324D01*
X10132643Y-12871800D01*
X10151690Y-12862276D01*
X10294548Y-12881324D02*
X10304071Y-12871800D01*
X10323119Y-12862276D01*
X10370738Y-12862276D01*
X10389786Y-12871800D01*
X10399310Y-12881324D01*
X10408833Y-12900371D01*
X10408833Y-12919419D01*
X10399310Y-12947990D01*
X10285024Y-13062276D01*
X10408833Y-13062276D01*
X10475500Y-12862276D02*
X10608833Y-12862276D01*
X10523119Y-13062276D01*
X10770738Y-12862276D02*
X10732643Y-12862276D01*
X10713595Y-12871800D01*
X10704071Y-12881324D01*
X10685024Y-12909895D01*
X10675500Y-12947990D01*
X10675500Y-13024181D01*
X10685024Y-13043228D01*
X10694548Y-13052752D01*
X10713595Y-13062276D01*
X10751690Y-13062276D01*
X10770738Y-13052752D01*
X10780262Y-13043228D01*
X10789786Y-13024181D01*
X10789786Y-12976562D01*
X10780262Y-12957514D01*
X10770738Y-12947990D01*
X10751690Y-12938467D01*
X10713595Y-12938467D01*
X10694548Y-12947990D01*
X10685024Y-12957514D01*
X10675500Y-12976562D01*
X10865976Y-12862276D02*
X10865976Y-12900371D01*
X10942167Y-12862276D02*
X10942167Y-12900371D01*
X11237405Y-13138467D02*
X11227881Y-13128943D01*
X11208833Y-13100371D01*
X11199309Y-13081324D01*
X11189786Y-13052752D01*
X11180262Y-13005133D01*
X11180262Y-12967038D01*
X11189786Y-12919419D01*
X11199309Y-12890848D01*
X11208833Y-12871800D01*
X11227881Y-12843228D01*
X11237405Y-12833705D01*
X11399309Y-12928943D02*
X11399309Y-13062276D01*
X11351690Y-12852752D02*
X11304071Y-12995609D01*
X11427881Y-12995609D01*
X11656452Y-13062276D02*
X11656452Y-12862276D01*
X11742167Y-13062276D02*
X11742167Y-12957514D01*
X11732643Y-12938467D01*
X11713595Y-12928943D01*
X11685024Y-12928943D01*
X11665976Y-12938467D01*
X11656452Y-12947990D01*
X11865976Y-13062276D02*
X11846928Y-13052752D01*
X11837405Y-13043228D01*
X11827881Y-13024181D01*
X11827881Y-12967038D01*
X11837405Y-12947990D01*
X11846928Y-12938467D01*
X11865976Y-12928943D01*
X11894548Y-12928943D01*
X11913595Y-12938467D01*
X11923119Y-12947990D01*
X11932643Y-12967038D01*
X11932643Y-13024181D01*
X11923119Y-13043228D01*
X11913595Y-13052752D01*
X11894548Y-13062276D01*
X11865976Y-13062276D01*
X12046928Y-13062276D02*
X12027881Y-13052752D01*
X12018357Y-13033705D01*
X12018357Y-12862276D01*
X12199309Y-13052752D02*
X12180262Y-13062276D01*
X12142167Y-13062276D01*
X12123119Y-13052752D01*
X12113595Y-13033705D01*
X12113595Y-12957514D01*
X12123119Y-12938467D01*
X12142167Y-12928943D01*
X12180262Y-12928943D01*
X12199309Y-12938467D01*
X12208833Y-12957514D01*
X12208833Y-12976562D01*
X12113595Y-12995609D01*
X12285024Y-13052752D02*
X12304071Y-13062276D01*
X12342167Y-13062276D01*
X12361214Y-13052752D01*
X12370738Y-13033705D01*
X12370738Y-13024181D01*
X12361214Y-13005133D01*
X12342167Y-12995609D01*
X12313595Y-12995609D01*
X12294548Y-12986086D01*
X12285024Y-12967038D01*
X12285024Y-12957514D01*
X12294548Y-12938467D01*
X12313595Y-12928943D01*
X12342167Y-12928943D01*
X12361214Y-12938467D01*
X12437405Y-13138467D02*
X12446928Y-13128943D01*
X12465976Y-13100371D01*
X12475500Y-13081324D01*
X12485024Y-13052752D01*
X12494548Y-13005133D01*
X12494548Y-12967038D01*
X12485024Y-12919419D01*
X12475500Y-12890848D01*
X12465976Y-12871800D01*
X12446928Y-12843228D01*
X12437405Y-12833705D01*
D14*
X7615500Y-13185800D02*
X7615500Y-13285800D01*
X7565500Y-13235800D02*
X7665500Y-13235800D01*
D11*
X8027881Y-13326276D02*
X7913595Y-13326276D01*
X7970738Y-13326276D02*
X7970738Y-13126276D01*
X7951690Y-13154848D01*
X7932643Y-13173895D01*
X7913595Y-13183419D01*
X8113595Y-13307228D02*
X8123119Y-13316752D01*
X8113595Y-13326276D01*
X8104071Y-13316752D01*
X8113595Y-13307228D01*
X8113595Y-13326276D01*
X8246928Y-13126276D02*
X8265976Y-13126276D01*
X8285024Y-13135800D01*
X8294548Y-13145324D01*
X8304071Y-13164371D01*
X8313595Y-13202467D01*
X8313595Y-13250086D01*
X8304071Y-13288181D01*
X8294548Y-13307228D01*
X8285024Y-13316752D01*
X8265976Y-13326276D01*
X8246928Y-13326276D01*
X8227881Y-13316752D01*
X8218357Y-13307228D01*
X8208833Y-13288181D01*
X8199309Y-13250086D01*
X8199309Y-13202467D01*
X8208833Y-13164371D01*
X8218357Y-13145324D01*
X8227881Y-13135800D01*
X8246928Y-13126276D01*
X8437405Y-13126276D02*
X8456452Y-13126276D01*
X8475500Y-13135800D01*
X8485024Y-13145324D01*
X8494548Y-13164371D01*
X8504071Y-13202467D01*
X8504071Y-13250086D01*
X8494548Y-13288181D01*
X8485024Y-13307228D01*
X8475500Y-13316752D01*
X8456452Y-13326276D01*
X8437405Y-13326276D01*
X8418357Y-13316752D01*
X8408833Y-13307228D01*
X8399310Y-13288181D01*
X8389786Y-13250086D01*
X8389786Y-13202467D01*
X8399310Y-13164371D01*
X8408833Y-13145324D01*
X8418357Y-13135800D01*
X8437405Y-13126276D01*
X8627881Y-13126276D02*
X8646929Y-13126276D01*
X8665976Y-13135800D01*
X8675500Y-13145324D01*
X8685024Y-13164371D01*
X8694548Y-13202467D01*
X8694548Y-13250086D01*
X8685024Y-13288181D01*
X8675500Y-13307228D01*
X8665976Y-13316752D01*
X8646929Y-13326276D01*
X8627881Y-13326276D01*
X8608833Y-13316752D01*
X8599310Y-13307228D01*
X8589786Y-13288181D01*
X8580262Y-13250086D01*
X8580262Y-13202467D01*
X8589786Y-13164371D01*
X8599310Y-13145324D01*
X8608833Y-13135800D01*
X8627881Y-13126276D01*
X8780262Y-13326276D02*
X8780262Y-13192943D01*
X8780262Y-13211990D02*
X8789786Y-13202467D01*
X8808833Y-13192943D01*
X8837405Y-13192943D01*
X8856452Y-13202467D01*
X8865976Y-13221514D01*
X8865976Y-13326276D01*
X8865976Y-13221514D02*
X8875500Y-13202467D01*
X8894548Y-13192943D01*
X8923119Y-13192943D01*
X8942167Y-13202467D01*
X8951690Y-13221514D01*
X8951690Y-13326276D01*
X9046929Y-13326276D02*
X9046929Y-13192943D01*
X9046929Y-13211990D02*
X9056452Y-13202467D01*
X9075500Y-13192943D01*
X9104071Y-13192943D01*
X9123119Y-13202467D01*
X9132643Y-13221514D01*
X9132643Y-13326276D01*
X9132643Y-13221514D02*
X9142167Y-13202467D01*
X9161214Y-13192943D01*
X9189786Y-13192943D01*
X9208833Y-13202467D01*
X9218357Y-13221514D01*
X9218357Y-13326276D01*
X9608833Y-13116752D02*
X9437405Y-13373895D01*
X9865976Y-13126276D02*
X9885024Y-13126276D01*
X9904071Y-13135800D01*
X9913595Y-13145324D01*
X9923119Y-13164371D01*
X9932643Y-13202467D01*
X9932643Y-13250086D01*
X9923119Y-13288181D01*
X9913595Y-13307228D01*
X9904071Y-13316752D01*
X9885024Y-13326276D01*
X9865976Y-13326276D01*
X9846929Y-13316752D01*
X9837405Y-13307228D01*
X9827881Y-13288181D01*
X9818357Y-13250086D01*
X9818357Y-13202467D01*
X9827881Y-13164371D01*
X9837405Y-13145324D01*
X9846929Y-13135800D01*
X9865976Y-13126276D01*
X10018357Y-13307228D02*
X10027881Y-13316752D01*
X10018357Y-13326276D01*
X10008833Y-13316752D01*
X10018357Y-13307228D01*
X10018357Y-13326276D01*
X10151690Y-13126276D02*
X10170738Y-13126276D01*
X10189786Y-13135800D01*
X10199310Y-13145324D01*
X10208833Y-13164371D01*
X10218357Y-13202467D01*
X10218357Y-13250086D01*
X10208833Y-13288181D01*
X10199310Y-13307228D01*
X10189786Y-13316752D01*
X10170738Y-13326276D01*
X10151690Y-13326276D01*
X10132643Y-13316752D01*
X10123119Y-13307228D01*
X10113595Y-13288181D01*
X10104071Y-13250086D01*
X10104071Y-13202467D01*
X10113595Y-13164371D01*
X10123119Y-13145324D01*
X10132643Y-13135800D01*
X10151690Y-13126276D01*
X10285024Y-13126276D02*
X10408833Y-13126276D01*
X10342167Y-13202467D01*
X10370738Y-13202467D01*
X10389786Y-13211990D01*
X10399310Y-13221514D01*
X10408833Y-13240562D01*
X10408833Y-13288181D01*
X10399310Y-13307228D01*
X10389786Y-13316752D01*
X10370738Y-13326276D01*
X10313595Y-13326276D01*
X10294548Y-13316752D01*
X10285024Y-13307228D01*
X10504071Y-13326276D02*
X10542167Y-13326276D01*
X10561214Y-13316752D01*
X10570738Y-13307228D01*
X10589786Y-13278657D01*
X10599310Y-13240562D01*
X10599310Y-13164371D01*
X10589786Y-13145324D01*
X10580262Y-13135800D01*
X10561214Y-13126276D01*
X10523119Y-13126276D01*
X10504071Y-13135800D01*
X10494548Y-13145324D01*
X10485024Y-13164371D01*
X10485024Y-13211990D01*
X10494548Y-13231038D01*
X10504071Y-13240562D01*
X10523119Y-13250086D01*
X10561214Y-13250086D01*
X10580262Y-13240562D01*
X10589786Y-13231038D01*
X10599310Y-13211990D01*
X10770738Y-13192943D02*
X10770738Y-13326276D01*
X10723119Y-13116752D02*
X10675500Y-13259609D01*
X10799310Y-13259609D01*
X10865976Y-13126276D02*
X10865976Y-13164371D01*
X10942167Y-13126276D02*
X10942167Y-13164371D01*
X11237405Y-13402467D02*
X11227881Y-13392943D01*
X11208833Y-13364371D01*
X11199309Y-13345324D01*
X11189786Y-13316752D01*
X11180262Y-13269133D01*
X11180262Y-13231038D01*
X11189786Y-13183419D01*
X11199309Y-13154848D01*
X11208833Y-13135800D01*
X11227881Y-13107228D01*
X11237405Y-13097705D01*
X11418357Y-13326276D02*
X11304071Y-13326276D01*
X11361214Y-13326276D02*
X11361214Y-13126276D01*
X11342167Y-13154848D01*
X11323119Y-13173895D01*
X11304071Y-13183419D01*
X11542167Y-13126276D02*
X11561214Y-13126276D01*
X11580262Y-13135800D01*
X11589786Y-13145324D01*
X11599309Y-13164371D01*
X11608833Y-13202467D01*
X11608833Y-13250086D01*
X11599309Y-13288181D01*
X11589786Y-13307228D01*
X11580262Y-13316752D01*
X11561214Y-13326276D01*
X11542167Y-13326276D01*
X11523119Y-13316752D01*
X11513595Y-13307228D01*
X11504071Y-13288181D01*
X11494548Y-13250086D01*
X11494548Y-13202467D01*
X11504071Y-13164371D01*
X11513595Y-13145324D01*
X11523119Y-13135800D01*
X11542167Y-13126276D01*
X11846928Y-13326276D02*
X11846928Y-13126276D01*
X11932643Y-13326276D02*
X11932643Y-13221514D01*
X11923119Y-13202467D01*
X11904071Y-13192943D01*
X11875500Y-13192943D01*
X11856452Y-13202467D01*
X11846928Y-13211990D01*
X12056452Y-13326276D02*
X12037405Y-13316752D01*
X12027881Y-13307228D01*
X12018357Y-13288181D01*
X12018357Y-13231038D01*
X12027881Y-13211990D01*
X12037405Y-13202467D01*
X12056452Y-13192943D01*
X12085024Y-13192943D01*
X12104071Y-13202467D01*
X12113595Y-13211990D01*
X12123119Y-13231038D01*
X12123119Y-13288181D01*
X12113595Y-13307228D01*
X12104071Y-13316752D01*
X12085024Y-13326276D01*
X12056452Y-13326276D01*
X12237405Y-13326276D02*
X12218357Y-13316752D01*
X12208833Y-13297705D01*
X12208833Y-13126276D01*
X12389786Y-13316752D02*
X12370738Y-13326276D01*
X12332643Y-13326276D01*
X12313595Y-13316752D01*
X12304071Y-13297705D01*
X12304071Y-13221514D01*
X12313595Y-13202467D01*
X12332643Y-13192943D01*
X12370738Y-13192943D01*
X12389786Y-13202467D01*
X12399309Y-13221514D01*
X12399309Y-13240562D01*
X12304071Y-13259609D01*
X12475500Y-13316752D02*
X12494548Y-13326276D01*
X12532643Y-13326276D01*
X12551690Y-13316752D01*
X12561214Y-13297705D01*
X12561214Y-13288181D01*
X12551690Y-13269133D01*
X12532643Y-13259609D01*
X12504071Y-13259609D01*
X12485024Y-13250086D01*
X12475500Y-13231038D01*
X12475500Y-13221514D01*
X12485024Y-13202467D01*
X12504071Y-13192943D01*
X12532643Y-13192943D01*
X12551690Y-13202467D01*
X12627881Y-13402467D02*
X12637405Y-13392943D01*
X12656452Y-13364371D01*
X12665976Y-13345324D01*
X12675500Y-13316752D01*
X12685024Y-13269133D01*
X12685024Y-13231038D01*
X12675500Y-13183419D01*
X12665976Y-13154848D01*
X12656452Y-13135800D01*
X12637405Y-13107228D01*
X12627881Y-13097705D01*
M02*
