%TF.GenerationSoftware,KiCad,Pcbnew,(6.0.8-1)-1*%
%TF.CreationDate,2023-05-30T17:25:48-07:00*%
%TF.ProjectId,SiPM_breakout,5369504d-5f62-4726-9561-6b6f75742e6b,rev?*%
%TF.SameCoordinates,Original*%
%TF.FileFunction,Drillmap*%
%TF.FilePolarity,Positive*%
%FSLAX45Y45*%
G04 Gerber Fmt 4.5, Leading zero omitted, Abs format (unit mm)*
G04 Created by KiCad (PCBNEW (6.0.8-1)-1) date 2023-05-30 17:25:48*
%MOMM*%
%LPD*%
G01*
G04 APERTURE LIST*
%ADD10C,0.050000*%
%ADD11C,0.200000*%
%ADD12C,0.300000*%
G04 APERTURE END LIST*
D10*
X9520000Y-7760000D02*
X9520000Y-11811300D01*
X7922000Y-7505700D02*
X9266000Y-7506000D01*
X9266000Y-12065300D02*
X7922000Y-12065000D01*
X7922000Y-7505700D02*
G75*
G03*
X7668000Y-7759700I0J-254000D01*
G01*
X9520000Y-7760000D02*
G75*
G03*
X9266000Y-7506000I-254000J0D01*
G01*
X7668000Y-11811000D02*
G75*
G03*
X7922000Y-12065000I254000J0D01*
G01*
X9266000Y-12065300D02*
G75*
G03*
X9520000Y-11811300I0J254000D01*
G01*
X7668000Y-11811000D02*
X7668000Y-7759700D01*
D11*
D12*
X8390000Y-10610000D02*
X8690000Y-10910000D01*
X8690000Y-10610000D02*
X8390000Y-10910000D01*
X8394700Y-8611700D02*
X8694700Y-8911700D01*
X8694700Y-8611700D02*
X8394700Y-8911700D01*
D11*
X7923119Y-12378276D02*
X7923119Y-12178276D01*
X7970738Y-12178276D01*
X7999309Y-12187800D01*
X8018357Y-12206848D01*
X8027881Y-12225895D01*
X8037405Y-12263990D01*
X8037405Y-12292562D01*
X8027881Y-12330657D01*
X8018357Y-12349705D01*
X7999309Y-12368752D01*
X7970738Y-12378276D01*
X7923119Y-12378276D01*
X8123119Y-12378276D02*
X8123119Y-12244943D01*
X8123119Y-12283038D02*
X8132643Y-12263990D01*
X8142167Y-12254467D01*
X8161214Y-12244943D01*
X8180262Y-12244943D01*
X8246928Y-12378276D02*
X8246928Y-12244943D01*
X8246928Y-12178276D02*
X8237405Y-12187800D01*
X8246928Y-12197324D01*
X8256452Y-12187800D01*
X8246928Y-12178276D01*
X8246928Y-12197324D01*
X8370738Y-12378276D02*
X8351690Y-12368752D01*
X8342167Y-12349705D01*
X8342167Y-12178276D01*
X8475500Y-12378276D02*
X8456452Y-12368752D01*
X8446929Y-12349705D01*
X8446929Y-12178276D01*
X8704071Y-12378276D02*
X8704071Y-12178276D01*
X8770738Y-12321133D01*
X8837405Y-12178276D01*
X8837405Y-12378276D01*
X9018357Y-12378276D02*
X9018357Y-12273514D01*
X9008833Y-12254467D01*
X8989786Y-12244943D01*
X8951690Y-12244943D01*
X8932643Y-12254467D01*
X9018357Y-12368752D02*
X8999310Y-12378276D01*
X8951690Y-12378276D01*
X8932643Y-12368752D01*
X8923119Y-12349705D01*
X8923119Y-12330657D01*
X8932643Y-12311609D01*
X8951690Y-12302086D01*
X8999310Y-12302086D01*
X9018357Y-12292562D01*
X9113595Y-12244943D02*
X9113595Y-12444943D01*
X9113595Y-12254467D02*
X9132643Y-12244943D01*
X9170738Y-12244943D01*
X9189786Y-12254467D01*
X9199310Y-12263990D01*
X9208833Y-12283038D01*
X9208833Y-12340181D01*
X9199310Y-12359228D01*
X9189786Y-12368752D01*
X9170738Y-12378276D01*
X9132643Y-12378276D01*
X9113595Y-12368752D01*
X9294548Y-12359228D02*
X9304071Y-12368752D01*
X9294548Y-12378276D01*
X9285024Y-12368752D01*
X9294548Y-12359228D01*
X9294548Y-12378276D01*
X9294548Y-12254467D02*
X9304071Y-12263990D01*
X9294548Y-12273514D01*
X9285024Y-12263990D01*
X9294548Y-12254467D01*
X9294548Y-12273514D01*
X7465500Y-12607800D02*
X7665500Y-12807800D01*
X7665500Y-12607800D02*
X7465500Y-12807800D01*
X7904071Y-12598276D02*
X8027881Y-12598276D01*
X7961214Y-12674467D01*
X7989786Y-12674467D01*
X8008833Y-12683990D01*
X8018357Y-12693514D01*
X8027881Y-12712562D01*
X8027881Y-12760181D01*
X8018357Y-12779228D01*
X8008833Y-12788752D01*
X7989786Y-12798276D01*
X7932643Y-12798276D01*
X7913595Y-12788752D01*
X7904071Y-12779228D01*
X8113595Y-12779228D02*
X8123119Y-12788752D01*
X8113595Y-12798276D01*
X8104071Y-12788752D01*
X8113595Y-12779228D01*
X8113595Y-12798276D01*
X8246928Y-12598276D02*
X8265976Y-12598276D01*
X8285024Y-12607800D01*
X8294548Y-12617324D01*
X8304071Y-12636371D01*
X8313595Y-12674467D01*
X8313595Y-12722086D01*
X8304071Y-12760181D01*
X8294548Y-12779228D01*
X8285024Y-12788752D01*
X8265976Y-12798276D01*
X8246928Y-12798276D01*
X8227881Y-12788752D01*
X8218357Y-12779228D01*
X8208833Y-12760181D01*
X8199309Y-12722086D01*
X8199309Y-12674467D01*
X8208833Y-12636371D01*
X8218357Y-12617324D01*
X8227881Y-12607800D01*
X8246928Y-12598276D01*
X8437405Y-12598276D02*
X8456452Y-12598276D01*
X8475500Y-12607800D01*
X8485024Y-12617324D01*
X8494548Y-12636371D01*
X8504071Y-12674467D01*
X8504071Y-12722086D01*
X8494548Y-12760181D01*
X8485024Y-12779228D01*
X8475500Y-12788752D01*
X8456452Y-12798276D01*
X8437405Y-12798276D01*
X8418357Y-12788752D01*
X8408833Y-12779228D01*
X8399310Y-12760181D01*
X8389786Y-12722086D01*
X8389786Y-12674467D01*
X8399310Y-12636371D01*
X8408833Y-12617324D01*
X8418357Y-12607800D01*
X8437405Y-12598276D01*
X8627881Y-12598276D02*
X8646929Y-12598276D01*
X8665976Y-12607800D01*
X8675500Y-12617324D01*
X8685024Y-12636371D01*
X8694548Y-12674467D01*
X8694548Y-12722086D01*
X8685024Y-12760181D01*
X8675500Y-12779228D01*
X8665976Y-12788752D01*
X8646929Y-12798276D01*
X8627881Y-12798276D01*
X8608833Y-12788752D01*
X8599310Y-12779228D01*
X8589786Y-12760181D01*
X8580262Y-12722086D01*
X8580262Y-12674467D01*
X8589786Y-12636371D01*
X8599310Y-12617324D01*
X8608833Y-12607800D01*
X8627881Y-12598276D01*
X8780262Y-12798276D02*
X8780262Y-12664943D01*
X8780262Y-12683990D02*
X8789786Y-12674467D01*
X8808833Y-12664943D01*
X8837405Y-12664943D01*
X8856452Y-12674467D01*
X8865976Y-12693514D01*
X8865976Y-12798276D01*
X8865976Y-12693514D02*
X8875500Y-12674467D01*
X8894548Y-12664943D01*
X8923119Y-12664943D01*
X8942167Y-12674467D01*
X8951690Y-12693514D01*
X8951690Y-12798276D01*
X9046929Y-12798276D02*
X9046929Y-12664943D01*
X9046929Y-12683990D02*
X9056452Y-12674467D01*
X9075500Y-12664943D01*
X9104071Y-12664943D01*
X9123119Y-12674467D01*
X9132643Y-12693514D01*
X9132643Y-12798276D01*
X9132643Y-12693514D02*
X9142167Y-12674467D01*
X9161214Y-12664943D01*
X9189786Y-12664943D01*
X9208833Y-12674467D01*
X9218357Y-12693514D01*
X9218357Y-12798276D01*
X9608833Y-12588752D02*
X9437405Y-12845895D01*
X9865976Y-12598276D02*
X9885024Y-12598276D01*
X9904071Y-12607800D01*
X9913595Y-12617324D01*
X9923119Y-12636371D01*
X9932643Y-12674467D01*
X9932643Y-12722086D01*
X9923119Y-12760181D01*
X9913595Y-12779228D01*
X9904071Y-12788752D01*
X9885024Y-12798276D01*
X9865976Y-12798276D01*
X9846929Y-12788752D01*
X9837405Y-12779228D01*
X9827881Y-12760181D01*
X9818357Y-12722086D01*
X9818357Y-12674467D01*
X9827881Y-12636371D01*
X9837405Y-12617324D01*
X9846929Y-12607800D01*
X9865976Y-12598276D01*
X10018357Y-12779228D02*
X10027881Y-12788752D01*
X10018357Y-12798276D01*
X10008833Y-12788752D01*
X10018357Y-12779228D01*
X10018357Y-12798276D01*
X10218357Y-12798276D02*
X10104071Y-12798276D01*
X10161214Y-12798276D02*
X10161214Y-12598276D01*
X10142167Y-12626848D01*
X10123119Y-12645895D01*
X10104071Y-12655419D01*
X10408833Y-12798276D02*
X10294548Y-12798276D01*
X10351690Y-12798276D02*
X10351690Y-12598276D01*
X10332643Y-12626848D01*
X10313595Y-12645895D01*
X10294548Y-12655419D01*
X10523119Y-12683990D02*
X10504071Y-12674467D01*
X10494548Y-12664943D01*
X10485024Y-12645895D01*
X10485024Y-12636371D01*
X10494548Y-12617324D01*
X10504071Y-12607800D01*
X10523119Y-12598276D01*
X10561214Y-12598276D01*
X10580262Y-12607800D01*
X10589786Y-12617324D01*
X10599310Y-12636371D01*
X10599310Y-12645895D01*
X10589786Y-12664943D01*
X10580262Y-12674467D01*
X10561214Y-12683990D01*
X10523119Y-12683990D01*
X10504071Y-12693514D01*
X10494548Y-12703038D01*
X10485024Y-12722086D01*
X10485024Y-12760181D01*
X10494548Y-12779228D01*
X10504071Y-12788752D01*
X10523119Y-12798276D01*
X10561214Y-12798276D01*
X10580262Y-12788752D01*
X10589786Y-12779228D01*
X10599310Y-12760181D01*
X10599310Y-12722086D01*
X10589786Y-12703038D01*
X10580262Y-12693514D01*
X10561214Y-12683990D01*
X10789786Y-12798276D02*
X10675500Y-12798276D01*
X10732643Y-12798276D02*
X10732643Y-12598276D01*
X10713595Y-12626848D01*
X10694548Y-12645895D01*
X10675500Y-12655419D01*
X10865976Y-12598276D02*
X10865976Y-12636371D01*
X10942167Y-12598276D02*
X10942167Y-12636371D01*
X11237405Y-12874467D02*
X11227881Y-12864943D01*
X11208833Y-12836371D01*
X11199309Y-12817324D01*
X11189786Y-12788752D01*
X11180262Y-12741133D01*
X11180262Y-12703038D01*
X11189786Y-12655419D01*
X11199309Y-12626848D01*
X11208833Y-12607800D01*
X11227881Y-12579228D01*
X11237405Y-12569705D01*
X11304071Y-12617324D02*
X11313595Y-12607800D01*
X11332643Y-12598276D01*
X11380262Y-12598276D01*
X11399309Y-12607800D01*
X11408833Y-12617324D01*
X11418357Y-12636371D01*
X11418357Y-12655419D01*
X11408833Y-12683990D01*
X11294548Y-12798276D01*
X11418357Y-12798276D01*
X11656452Y-12798276D02*
X11656452Y-12598276D01*
X11742167Y-12798276D02*
X11742167Y-12693514D01*
X11732643Y-12674467D01*
X11713595Y-12664943D01*
X11685024Y-12664943D01*
X11665976Y-12674467D01*
X11656452Y-12683990D01*
X11865976Y-12798276D02*
X11846928Y-12788752D01*
X11837405Y-12779228D01*
X11827881Y-12760181D01*
X11827881Y-12703038D01*
X11837405Y-12683990D01*
X11846928Y-12674467D01*
X11865976Y-12664943D01*
X11894548Y-12664943D01*
X11913595Y-12674467D01*
X11923119Y-12683990D01*
X11932643Y-12703038D01*
X11932643Y-12760181D01*
X11923119Y-12779228D01*
X11913595Y-12788752D01*
X11894548Y-12798276D01*
X11865976Y-12798276D01*
X12046928Y-12798276D02*
X12027881Y-12788752D01*
X12018357Y-12769705D01*
X12018357Y-12598276D01*
X12199309Y-12788752D02*
X12180262Y-12798276D01*
X12142167Y-12798276D01*
X12123119Y-12788752D01*
X12113595Y-12769705D01*
X12113595Y-12693514D01*
X12123119Y-12674467D01*
X12142167Y-12664943D01*
X12180262Y-12664943D01*
X12199309Y-12674467D01*
X12208833Y-12693514D01*
X12208833Y-12712562D01*
X12113595Y-12731609D01*
X12285024Y-12788752D02*
X12304071Y-12798276D01*
X12342167Y-12798276D01*
X12361214Y-12788752D01*
X12370738Y-12769705D01*
X12370738Y-12760181D01*
X12361214Y-12741133D01*
X12342167Y-12731609D01*
X12313595Y-12731609D01*
X12294548Y-12722086D01*
X12285024Y-12703038D01*
X12285024Y-12693514D01*
X12294548Y-12674467D01*
X12313595Y-12664943D01*
X12342167Y-12664943D01*
X12361214Y-12674467D01*
X12437405Y-12874467D02*
X12446928Y-12864943D01*
X12465976Y-12836371D01*
X12475500Y-12817324D01*
X12485024Y-12788752D01*
X12494548Y-12741133D01*
X12494548Y-12703038D01*
X12485024Y-12655419D01*
X12475500Y-12626848D01*
X12465976Y-12607800D01*
X12446928Y-12579228D01*
X12437405Y-12569705D01*
X12799309Y-12874467D02*
X12789786Y-12864943D01*
X12770738Y-12836371D01*
X12761214Y-12817324D01*
X12751690Y-12788752D01*
X12742167Y-12741133D01*
X12742167Y-12703038D01*
X12751690Y-12655419D01*
X12761214Y-12626848D01*
X12770738Y-12607800D01*
X12789786Y-12579228D01*
X12799309Y-12569705D01*
X12875500Y-12664943D02*
X12875500Y-12798276D01*
X12875500Y-12683990D02*
X12885024Y-12674467D01*
X12904071Y-12664943D01*
X12932643Y-12664943D01*
X12951690Y-12674467D01*
X12961214Y-12693514D01*
X12961214Y-12798276D01*
X13085024Y-12798276D02*
X13065976Y-12788752D01*
X13056452Y-12779228D01*
X13046928Y-12760181D01*
X13046928Y-12703038D01*
X13056452Y-12683990D01*
X13065976Y-12674467D01*
X13085024Y-12664943D01*
X13113595Y-12664943D01*
X13132643Y-12674467D01*
X13142167Y-12683990D01*
X13151690Y-12703038D01*
X13151690Y-12760181D01*
X13142167Y-12779228D01*
X13132643Y-12788752D01*
X13113595Y-12798276D01*
X13085024Y-12798276D01*
X13208833Y-12664943D02*
X13285024Y-12664943D01*
X13237405Y-12598276D02*
X13237405Y-12769705D01*
X13246928Y-12788752D01*
X13265976Y-12798276D01*
X13285024Y-12798276D01*
X13504071Y-12664943D02*
X13504071Y-12864943D01*
X13504071Y-12674467D02*
X13523119Y-12664943D01*
X13561214Y-12664943D01*
X13580262Y-12674467D01*
X13589786Y-12683990D01*
X13599309Y-12703038D01*
X13599309Y-12760181D01*
X13589786Y-12779228D01*
X13580262Y-12788752D01*
X13561214Y-12798276D01*
X13523119Y-12798276D01*
X13504071Y-12788752D01*
X13713595Y-12798276D02*
X13694548Y-12788752D01*
X13685024Y-12769705D01*
X13685024Y-12598276D01*
X13875500Y-12798276D02*
X13875500Y-12693514D01*
X13865976Y-12674467D01*
X13846928Y-12664943D01*
X13808833Y-12664943D01*
X13789786Y-12674467D01*
X13875500Y-12788752D02*
X13856452Y-12798276D01*
X13808833Y-12798276D01*
X13789786Y-12788752D01*
X13780262Y-12769705D01*
X13780262Y-12750657D01*
X13789786Y-12731609D01*
X13808833Y-12722086D01*
X13856452Y-12722086D01*
X13875500Y-12712562D01*
X13942167Y-12664943D02*
X14018357Y-12664943D01*
X13970738Y-12598276D02*
X13970738Y-12769705D01*
X13980262Y-12788752D01*
X13999309Y-12798276D01*
X14018357Y-12798276D01*
X14161214Y-12788752D02*
X14142167Y-12798276D01*
X14104071Y-12798276D01*
X14085024Y-12788752D01*
X14075500Y-12769705D01*
X14075500Y-12693514D01*
X14085024Y-12674467D01*
X14104071Y-12664943D01*
X14142167Y-12664943D01*
X14161214Y-12674467D01*
X14170738Y-12693514D01*
X14170738Y-12712562D01*
X14075500Y-12731609D01*
X14342167Y-12798276D02*
X14342167Y-12598276D01*
X14342167Y-12788752D02*
X14323119Y-12798276D01*
X14285024Y-12798276D01*
X14265976Y-12788752D01*
X14256452Y-12779228D01*
X14246928Y-12760181D01*
X14246928Y-12703038D01*
X14256452Y-12683990D01*
X14265976Y-12674467D01*
X14285024Y-12664943D01*
X14323119Y-12664943D01*
X14342167Y-12674467D01*
X14418357Y-12874467D02*
X14427881Y-12864943D01*
X14446928Y-12836371D01*
X14456452Y-12817324D01*
X14465976Y-12788752D01*
X14475500Y-12741133D01*
X14475500Y-12703038D01*
X14465976Y-12655419D01*
X14456452Y-12626848D01*
X14446928Y-12607800D01*
X14427881Y-12579228D01*
X14418357Y-12569705D01*
M02*
