M48
; DRILL file {KiCad (6.0.8-1)-1} date Tuesday, May 30, 2023 at 05:25:48 PM
; FORMAT={-:-/ absolute / inch / decimal}
; #@! TF.CreationDate,2023-05-30T17:25:48-07:00
; #@! TF.GenerationSoftware,Kicad,Pcbnew,(6.0.8-1)-1
; #@! TF.FileFunction,Plated,1,2,PTH
FMAT,2
INCH
; #@! TA.AperFunction,Plated,PTH,ViaDrill
T1C0.0157
; #@! TA.AperFunction,Plated,PTH,ComponentDrill
T2C0.0276
; #@! TA.AperFunction,Plated,PTH,ComponentDrill
T3C0.0394
%
G90
G05
T1
X3.0866Y-4.4724
X3.126Y-3.7402
X3.1473Y-3.9472
X3.1929Y-3.6575
X3.2205Y-3.6063
X3.2362Y-4.1181
X3.2362Y-4.3307
X3.252Y-3.3622
X3.2598Y-3.677
X3.2598Y-3.7559
X3.2598Y-3.9528
X3.2598Y-4.0394
X3.3563Y-3.8583
X3.4882Y-3.6772
X3.4882Y-4.0551
T2
X3.6614Y-3.2283
X3.6614Y-3.4283
X3.6693Y-4.2047
X3.6693Y-4.4047
T3
X3.0866Y-3.0709
X3.0866Y-4.6316
X3.126Y-3.3331
X3.126Y-3.4331
X3.126Y-4.252
X3.126Y-4.352
X3.6535Y-3.8134
X3.6535Y-3.9134
X3.6772Y-3.0709
X3.6772Y-4.6316
T0
M30
